{"glyphs":{"0":{"ha":983,"x_min":0,"x_max":0,"o":"m 608 7 b 528 25 593 7 546 11 b 506 72 521 29 506 60 b 529 101 506 83 513 90 b 585 153 558 122 569 131 b 643 263 607 185 621 206 b 668 318 649 279 661 303 b 689 419 681 347 689 369 b 697 511 689 456 697 464 b 693 572 697 536 696 556 b 668 647 689 610 686 617 b 643 694 660 663 653 675 b 601 746 639 707 624 717 b 556 790 593 757 571 776 b 511 853 519 821 511 832 b 571 903 511 875 529 903 b 682 869 594 903 631 893 b 767 804 724 851 736 843 b 819 715 790 774 811 744 b 835 678 824 704 828 692 b 857 574 843 661 856 622 b 871 460 858 540 871 496 b 833 261 871 429 856 338 b 790 169 824 226 824 215 b 692 57 757 126 746 96 b 631 13 669 42 639 19 b 608 7 624 7 618 7 z m 369 7 b 269 68 333 7 311 24 b 131 296 172 172 153 210 b 119 369 124 328 125 340 b 113 538 117 392 113 474 b 143 681 113 586 121 617 b 235 831 153 710 208 800 b 343 901 268 871 332 901 b 393 894 376 901 382 899 b 429 857 426 882 429 871 b 403 794 429 826 421 815 b 308 622 369 758 308 642 b 282 519 308 604 293 569 b 275 438 275 485 275 469 b 293 335 275 390 275 388 b 357 203 306 303 331 247 b 418 138 371 179 399 153 b 447 97 443 118 447 118 b 432 29 447 79 443 51 b 369 7 426 17 397 7 z "},"1":{"ha":663,"x_min":0,"x_max":0,"o":"m 379 -14 b 342 125 351 -14 342 11 b 344 185 342 167 344 171 b 326 443 344 299 326 321 b 329 503 326 461 329 490 b 315 692 329 669 315 663 b 322 775 315 754 318 763 b 346 828 329 788 338 818 b 419 904 385 871 392 904 b 501 860 479 904 493 869 b 528 807 522 836 525 828 b 550 692 533 760 550 761 b 528 536 550 594 538 597 b 482 392 517 468 482 433 b 513 247 482 336 513 349 b 457 85 513 160 479 143 b 379 -14 435 25 426 -14 z m 144 607 b 113 631 131 607 113 613 b 160 719 113 646 131 703 b 199 756 171 726 186 740 b 275 811 211 772 261 811 b 281 778 281 811 281 804 b 268 701 281 749 278 724 b 221 636 250 663 246 654 b 144 607 181 608 168 607 z "},"2":{"ha":1046,"x_min":0,"x_max":0,"o":"m 149 1 b 113 24 131 1 113 3 b 147 128 113 36 129 83 b 169 192 156 150 164 172 b 218 296 181 225 201 257 b 263 356 242 346 256 356 b 318 347 269 356 300 347 b 444 404 382 347 410 363 b 489 458 461 424 479 442 b 522 535 501 479 517 513 b 526 557 525 544 526 551 b 456 635 526 594 500 622 b 335 699 439 639 371 672 b 263 740 311 717 293 731 b 206 753 242 747 222 753 b 171 767 188 753 171 758 b 274 874 171 774 254 858 b 310 886 285 882 297 886 b 440 840 325 886 386 863 b 575 782 504 814 543 793 b 668 725 592 776 619 761 b 742 632 713 690 729 668 b 746 574 746 617 746 608 b 743 525 746 556 744 536 b 692 444 740 515 707 463 b 585 357 668 418 632 389 b 493 286 533 322 503 297 b 408 196 447 228 432 211 b 358 163 390 183 371 168 b 318 138 351 160 328 144 b 204 32 299 124 243 71 b 149 1 172 1 171 1 z m 419 8 b 386 21 407 8 386 8 b 428 85 386 28 408 64 b 485 171 450 110 476 149 b 524 206 490 182 501 206 b 597 196 546 206 568 204 b 721 149 639 185 668 169 b 893 121 744 139 808 142 b 933 90 928 113 933 107 b 907 24 933 75 918 33 b 831 11 894 11 892 11 b 656 17 760 11 690 17 b 593 11 622 17 618 11 b 543 13 585 11 576 13 b 419 8 474 13 444 8 z "},"3":{"ha":871,"x_min":0,"x_max":0,"o":"m 382 3 b 340 11 375 3 365 6 b 281 24 318 17 293 22 b 158 57 225 29 193 36 b 122 89 138 69 122 81 b 143 104 122 93 129 100 b 242 150 151 107 222 142 b 278 161 260 158 258 161 b 381 154 313 161 289 154 b 506 167 472 154 468 160 b 593 215 546 174 568 181 b 600 253 600 226 600 238 b 594 285 600 276 600 278 b 563 331 579 307 576 318 b 346 374 538 353 440 371 b 251 388 290 375 275 376 b 219 415 228 399 219 404 b 254 465 219 431 235 446 b 313 490 269 482 290 488 b 394 506 336 493 363 506 b 521 497 426 506 474 501 b 638 446 549 494 608 476 b 722 353 658 424 711 382 b 757 239 735 322 747 289 b 758 217 758 232 758 224 b 725 135 758 186 747 154 b 707 115 719 131 713 122 b 654 67 699 103 671 76 b 531 26 629 53 564 31 b 468 14 504 24 488 19 b 382 3 435 4 418 3 z m 532 535 b 515 547 526 535 515 542 b 528 622 515 551 528 567 b 518 656 528 642 525 650 b 482 682 511 663 496 675 b 414 711 456 696 436 706 b 253 726 383 719 340 722 b 113 747 147 731 113 733 b 178 844 113 757 138 803 b 272 890 207 876 232 890 b 443 875 315 890 401 883 b 624 806 483 867 581 829 b 707 721 657 788 707 743 b 671 626 707 706 682 642 b 561 543 657 608 579 550 b 532 535 546 538 539 535 z "},"4":{"ha":949,"x_min":0,"x_max":0,"o":"m 706 -18 b 668 33 693 -18 674 1 b 649 203 663 58 663 128 b 643 271 643 229 643 250 b 651 372 643 328 651 332 b 640 457 651 419 640 438 b 649 529 640 472 649 521 b 643 558 649 535 644 553 b 639 650 642 571 639 582 b 635 738 639 708 638 731 b 622 767 633 743 629 756 b 599 857 608 793 599 828 b 608 889 599 872 601 881 b 664 931 617 897 649 922 b 696 943 675 938 692 943 b 753 908 707 943 731 925 b 829 833 796 875 822 849 b 836 786 835 819 836 804 b 826 671 836 756 829 710 b 817 574 824 633 817 601 b 825 508 817 550 825 535 b 800 403 825 486 824 469 b 796 379 797 396 796 392 b 806 253 796 350 806 286 b 788 138 806 211 790 163 b 769 61 785 107 779 88 b 743 8 763 38 756 19 b 706 -18 726 -10 715 -18 z m 561 296 b 426 303 524 296 550 303 b 263 297 333 303 306 297 b 239 308 240 297 239 303 b 254 340 239 317 243 328 b 328 381 260 349 264 351 b 518 451 451 438 493 451 b 569 439 538 451 561 444 b 588 386 588 429 588 418 b 561 296 588 297 588 296 z m 136 308 b 113 333 124 308 113 321 b 142 399 113 347 117 356 b 185 493 164 436 172 460 b 274 653 217 578 222 544 b 353 797 299 707 338 776 b 425 883 365 815 408 867 b 474 910 444 904 450 910 b 506 903 492 910 493 910 b 539 871 517 896 529 890 b 543 825 543 863 543 860 b 517 700 543 764 535 726 b 346 507 493 668 369 528 b 292 449 331 492 303 461 b 154 314 228 378 175 326 b 136 308 146 310 140 308 z "},"5":{"ha":997,"x_min":0,"x_max":0,"o":"m 336 -6 b 242 7 289 -6 264 -6 b 224 26 229 14 224 19 b 293 97 224 35 269 78 b 406 172 322 119 351 146 b 463 207 436 188 454 197 b 483 226 467 211 478 221 b 519 325 490 233 519 310 b 465 408 519 335 499 383 b 401 443 442 425 415 435 b 322 489 381 456 340 481 b 171 581 269 513 228 536 b 121 664 143 601 131 619 b 113 796 115 696 113 760 b 128 872 113 869 113 872 b 199 826 143 872 172 850 b 311 746 247 781 268 767 b 422 650 360 722 393 692 b 513 588 442 625 447 615 b 622 535 586 557 596 544 b 743 422 700 506 725 475 b 751 383 747 407 751 397 b 742 306 751 372 750 357 b 707 211 733 260 722 238 b 576 100 679 163 654 139 b 431 24 531 76 544 74 b 336 -6 365 -4 365 -6 z m 807 729 b 690 738 761 729 764 738 b 574 765 640 738 631 742 b 421 804 481 804 478 804 b 364 808 375 804 374 804 b 338 836 349 814 338 826 b 417 875 338 844 378 865 b 565 897 494 896 501 897 b 821 890 797 897 811 893 b 868 872 843 885 856 886 b 885 764 872 867 885 826 b 807 729 885 733 863 729 z "},"6":{"ha":1011,"x_min":0,"x_max":0,"o":"m 393 -6 b 243 63 374 -6 297 15 b 138 199 206 96 153 163 b 113 321 126 224 113 290 b 118 394 113 335 117 371 b 133 454 121 413 128 435 b 164 535 144 492 151 488 b 208 631 174 574 178 581 b 256 696 231 664 250 690 b 290 729 271 710 279 718 b 436 847 325 764 393 817 b 475 872 446 854 450 854 b 592 925 510 897 574 925 b 624 878 606 925 624 903 b 614 858 624 872 622 868 b 531 747 596 839 549 776 b 467 675 510 714 503 707 b 394 593 450 661 401 603 b 374 558 386 582 381 568 b 349 515 365 543 357 529 b 299 342 325 476 299 382 b 396 163 299 281 346 207 b 443 106 435 128 443 124 b 461 26 443 68 461 40 b 417 -1 461 17 443 4 b 393 -6 408 -3 401 -6 z m 625 7 b 581 40 615 7 586 22 b 568 79 574 60 568 74 b 606 126 568 92 597 121 b 653 188 619 138 631 151 b 693 283 681 232 693 256 b 676 351 693 307 683 340 b 581 439 668 363 638 399 b 536 488 538 468 536 469 b 540 524 536 497 538 508 b 579 583 547 574 550 575 b 613 589 594 588 604 589 b 710 554 628 589 646 588 b 767 524 729 544 756 529 b 818 485 792 511 801 504 b 886 379 857 443 869 422 b 899 321 894 357 899 336 b 838 125 899 260 869 167 b 742 36 806 85 772 54 b 625 7 706 17 654 7 z "},"7":{"ha":990,"x_min":0,"x_max":0,"o":"m 436 0 b 403 65 413 0 403 19 b 443 226 403 122 428 165 b 511 422 468 328 490 361 b 550 528 521 451 531 479 b 618 754 599 653 594 683 b 703 854 633 800 661 836 b 818 872 715 860 801 872 b 836 871 825 872 829 872 b 878 808 875 863 878 861 b 833 696 878 758 878 756 b 743 456 781 626 754 538 b 658 335 740 436 731 407 b 606 225 636 313 619 275 b 549 124 590 174 575 150 b 506 67 536 111 524 96 b 460 4 467 8 467 7 b 436 0 451 0 443 0 z m 156 672 b 113 706 140 672 113 694 b 147 772 113 715 119 728 b 265 892 200 856 208 892 b 356 882 293 892 322 886 b 528 838 396 876 481 854 b 560 815 547 831 560 828 b 547 788 560 810 556 803 b 443 718 526 753 507 736 b 372 711 422 713 417 711 b 286 701 339 711 322 710 b 156 672 204 682 181 672 z "},"8":{"ha":994,"x_min":0,"x_max":0,"o":"m 443 -3 b 371 10 438 -3 408 -1 b 282 47 344 17 293 42 b 168 139 218 85 213 88 b 113 256 129 185 113 222 b 151 356 113 294 142 343 b 206 399 164 372 192 393 b 286 411 224 406 253 411 b 325 406 310 411 315 411 b 340 389 335 400 340 396 b 329 356 340 381 338 378 b 315 276 318 331 315 306 b 333 215 315 251 322 232 b 443 129 368 164 407 157 b 468 60 460 115 468 89 b 443 -3 468 13 457 -3 z m 619 18 b 590 32 610 18 596 19 b 572 85 583 46 572 72 b 608 129 572 96 589 113 b 683 197 632 149 663 174 b 708 251 700 215 708 233 b 706 267 708 257 708 260 b 640 336 701 283 694 297 b 550 382 597 367 583 372 b 468 410 536 386 497 404 b 374 449 447 414 396 435 b 318 478 365 454 353 461 b 229 540 271 500 253 518 b 181 600 207 561 192 579 b 168 679 176 611 168 647 b 215 832 168 735 182 786 b 268 872 231 854 243 861 b 329 890 293 883 313 890 b 347 885 336 890 343 888 b 351 868 351 882 351 879 b 321 790 351 860 336 818 b 299 719 307 765 299 740 b 318 685 299 707 300 703 b 399 633 331 672 372 644 b 593 568 457 608 518 592 b 807 471 693 536 761 510 b 882 317 844 440 882 369 b 864 188 882 278 872 207 b 810 129 856 172 840 153 b 756 83 792 115 764 92 b 693 36 731 58 715 47 b 619 18 667 24 639 18 z m 708 607 b 685 642 692 607 685 618 b 694 697 685 672 694 685 b 592 769 694 728 658 767 b 497 807 550 771 551 776 b 449 858 478 818 449 844 b 503 892 449 864 460 881 b 576 901 532 900 538 901 b 715 864 639 901 671 886 b 781 813 744 849 769 832 b 811 725 793 789 811 740 b 803 696 811 715 807 710 b 754 632 793 669 781 654 b 708 607 731 613 718 607 z "},"9":{"ha":917,"x_min":0,"x_max":0,"o":"m 306 -6 b 275 43 286 -6 275 15 b 293 88 275 64 276 67 b 378 165 321 121 356 153 b 457 238 406 183 426 206 b 539 343 500 282 519 303 b 576 404 543 354 571 397 b 628 582 606 443 628 506 b 568 722 628 656 614 683 b 531 811 533 750 531 761 b 529 851 531 832 529 846 b 610 906 529 886 561 906 b 654 897 626 906 642 903 b 736 821 671 889 724 840 b 785 715 744 808 783 721 b 796 661 789 701 793 694 b 804 596 799 639 804 638 b 772 438 804 549 793 496 b 715 313 764 413 774 408 b 635 218 693 275 664 240 b 581 169 619 207 596 185 b 444 71 524 115 460 78 b 378 29 418 58 397 42 b 306 -6 349 10 325 -6 z m 360 408 b 317 415 335 408 338 410 b 231 449 265 428 256 432 b 129 567 189 478 140 538 b 113 646 117 596 113 608 b 132 774 113 735 118 746 b 174 838 144 799 158 821 b 242 888 190 856 221 879 b 350 903 275 901 301 903 b 440 867 411 903 440 893 b 433 844 440 860 440 851 b 390 807 425 835 415 825 b 333 758 356 783 339 767 b 308 722 325 744 315 733 b 286 643 294 699 286 661 b 294 593 286 626 290 604 b 338 543 310 563 331 550 b 379 519 347 532 363 526 b 450 460 419 503 450 482 b 425 432 450 449 440 443 b 360 408 399 413 378 408 z "},"B":{"ha":1329,"x_min":0,"x_max":0,"o":"m 235 -4 b 189 40 215 -4 204 14 b 176 106 178 58 176 61 b 181 192 176 139 181 179 b 174 264 181 210 174 232 b 156 422 174 332 156 393 b 138 568 156 483 138 488 b 157 676 138 601 157 649 b 125 757 157 701 146 731 b 113 824 114 771 113 772 b 196 907 113 839 114 840 b 308 963 210 918 289 963 b 360 888 326 963 360 929 b 356 768 360 865 356 808 b 364 665 356 707 364 697 b 356 542 364 617 358 563 b 331 292 343 447 343 372 b 306 163 325 251 314 204 b 283 51 294 104 288 61 b 235 -4 268 11 251 -4 z m 528 -6 b 481 4 517 -6 483 0 b 436 71 468 17 443 58 b 418 132 429 85 418 119 b 544 168 418 154 433 168 b 726 160 635 168 651 160 b 936 197 804 160 918 188 b 1011 289 981 219 1011 260 b 981 385 1011 328 1007 338 b 907 450 961 421 931 442 b 832 464 882 460 858 464 b 715 443 800 464 764 457 b 663 431 692 436 668 431 b 604 483 656 431 625 451 b 581 571 593 501 581 547 b 608 592 581 586 583 592 b 721 582 664 592 692 582 b 886 592 738 582 872 589 b 988 628 951 604 967 608 b 1026 696 1006 644 1026 656 b 982 785 1026 728 1010 761 b 849 817 957 806 942 810 b 729 822 793 821 758 822 b 597 815 688 822 618 815 b 515 842 567 815 531 826 b 482 885 493 865 482 876 b 549 926 482 893 492 901 b 681 951 593 944 611 950 b 921 976 842 954 835 976 b 1024 953 953 976 975 971 b 1156 867 1089 929 1128 903 b 1217 750 1201 808 1217 779 b 1206 678 1217 733 1214 715 b 1153 593 1199 647 1178 622 b 1118 543 1125 561 1118 551 b 1199 433 1118 533 1179 493 b 1215 329 1206 414 1215 356 b 1149 211 1215 278 1175 231 b 803 47 1097 175 1013 124 b 610 3 688 6 653 13 b 528 -6 583 -3 546 -6 z "},"C":{"ha":1125,"x_min":0,"x_max":0,"o":"m 865 -19 b 656 11 804 -19 739 -8 b 406 101 521 43 418 93 b 239 206 340 144 281 172 b 114 354 186 246 142 278 b 85 506 100 390 85 449 b 104 640 85 556 90 606 b 189 754 119 681 149 721 b 351 868 253 807 239 814 b 504 929 454 918 460 910 b 699 953 543 946 654 953 b 928 931 753 953 768 949 b 1040 886 953 928 1040 904 b 915 813 1040 869 919 815 b 846 790 882 796 871 790 b 799 793 835 790 814 793 b 718 788 792 793 756 788 b 572 772 660 788 590 779 b 433 703 536 757 475 719 b 347 629 410 693 375 668 b 294 481 306 571 294 544 b 329 335 294 418 303 363 b 406 268 347 315 390 281 b 542 189 442 242 515 210 b 665 124 558 176 610 150 b 814 76 701 107 760 92 b 951 8 886 57 951 26 b 865 -19 951 -7 928 -19 z "},"D":{"ha":1300,"x_min":0,"x_max":0,"o":"m 183 1 b 154 19 171 1 154 6 b 161 171 154 94 161 65 b 168 375 161 264 168 226 b 160 532 168 483 164 483 b 131 692 156 600 151 619 b 121 778 121 728 129 750 b 113 861 118 786 113 831 b 119 936 113 889 115 915 b 156 967 126 963 131 967 b 267 922 171 967 229 943 b 344 863 294 906 338 871 b 360 794 354 853 360 844 b 356 751 360 785 356 760 b 358 676 356 740 358 738 b 344 561 358 593 344 650 b 349 446 344 522 349 469 b 344 408 349 428 344 415 b 347 372 344 397 347 381 b 340 329 347 363 346 354 b 324 176 329 282 324 243 b 318 97 324 117 322 108 b 282 40 306 57 292 46 b 183 1 254 21 217 1 z m 508 6 b 463 35 492 6 463 13 b 619 144 463 53 518 83 b 800 256 722 206 764 221 b 875 326 818 274 864 308 b 949 403 885 342 919 363 b 1000 486 982 450 1000 467 b 993 540 1000 493 997 511 b 981 606 986 582 986 592 b 840 738 968 633 892 717 b 713 764 806 751 758 754 b 497 803 599 788 514 774 b 489 831 494 807 489 819 b 528 936 489 860 518 882 b 601 964 531 953 538 957 b 675 968 628 967 647 968 b 804 938 708 968 761 950 b 960 888 824 932 953 889 b 1043 842 965 886 1006 865 b 1108 793 1081 819 1092 808 b 1215 585 1196 717 1215 667 b 1175 444 1215 528 1193 476 b 1108 375 1167 429 1136 401 b 986 260 1063 332 1010 283 b 750 93 904 178 800 115 b 619 36 656 51 644 39 b 508 6 593 32 564 6 z "},"E":{"ha":1374,"x_min":0,"x_max":0,"o":"m 188 -12 b 164 33 178 -12 167 13 b 157 189 160 64 157 111 b 119 496 157 263 119 419 b 122 613 119 525 122 569 b 118 713 122 664 118 675 b 119 814 118 733 119 781 b 113 904 119 846 113 879 b 157 956 113 951 135 956 b 265 903 175 956 181 953 b 332 800 293 886 332 839 b 322 701 332 753 328 715 b 296 506 308 664 296 567 b 293 361 296 461 293 389 b 301 253 293 289 301 275 b 293 160 301 225 297 175 b 254 82 285 135 257 99 b 229 15 247 56 243 28 b 188 -12 215 1 194 -12 z m 590 35 b 422 75 564 35 422 51 b 496 117 422 94 450 97 b 647 143 538 135 551 139 b 843 153 688 144 767 153 b 1001 167 931 153 974 161 b 1138 185 1040 175 1118 185 b 1218 118 1172 185 1175 172 b 1261 33 1246 85 1261 56 b 1106 6 1261 18 1232 6 b 879 42 1051 6 957 42 b 819 39 863 42 842 39 b 731 42 804 39 761 42 b 590 35 661 42 603 35 z m 1068 389 b 806 415 1006 389 949 408 b 531 451 743 418 638 431 b 440 488 454 467 440 471 b 489 524 440 514 458 524 b 706 546 604 524 643 546 b 919 563 892 546 851 563 b 979 558 946 563 944 558 b 1054 497 1018 558 1018 549 b 1106 404 1068 475 1106 411 b 1068 389 1106 392 1088 389 z m 535 760 b 497 765 524 760 506 760 b 438 850 483 775 438 833 b 464 872 438 869 443 872 b 689 911 510 872 538 888 b 840 929 731 918 761 914 b 1044 961 861 933 956 947 b 1157 969 1079 967 1111 969 b 1247 947 1226 969 1247 968 b 1146 786 1247 919 1183 799 b 1046 776 1131 781 1093 776 b 738 788 897 776 893 788 b 535 760 665 788 615 760 z "},"F":{"ha":1272,"x_min":0,"x_max":0,"o":"m 188 0 b 149 108 150 0 149 47 b 150 257 149 213 150 238 b 138 401 150 332 138 364 b 122 564 138 435 124 531 b 113 672 119 636 113 642 b 117 840 113 699 117 775 b 115 906 117 865 115 890 b 131 938 115 919 121 932 b 217 975 160 954 200 975 b 321 885 247 975 315 894 b 365 782 353 839 365 818 b 331 625 365 743 361 756 b 297 443 306 524 297 465 b 311 321 297 410 311 335 b 301 253 311 301 307 289 b 225 65 296 222 243 135 b 188 0 211 15 200 0 z m 549 443 b 451 461 458 443 451 456 b 514 535 451 468 496 524 b 569 546 519 539 529 540 b 731 572 665 558 692 565 b 814 589 771 579 783 585 b 975 611 857 594 949 611 b 1050 558 994 611 1043 583 b 1074 515 1054 547 1065 531 b 1096 442 1093 483 1096 465 b 1065 411 1096 413 1092 411 b 799 444 996 411 933 433 b 675 450 750 449 711 450 b 549 443 610 450 575 443 z m 867 779 b 753 788 828 779 790 786 b 568 800 658 792 581 796 b 493 886 554 806 493 876 b 713 929 493 907 565 900 b 914 953 775 942 853 938 b 1072 979 996 972 1044 979 b 1138 954 1090 979 1113 971 b 1189 889 1156 942 1156 947 b 1215 835 1206 857 1215 843 b 1058 793 1215 811 1114 793 b 867 779 999 793 1018 779 z "},"G":{"ha":1333,"x_min":0,"x_max":0,"o":"m 776 4 b 719 7 760 4 740 7 b 632 1 682 7 661 1 b 439 53 565 1 503 25 b 310 118 410 65 414 61 b 103 336 185 186 133 240 b 92 494 97 356 92 461 b 118 607 92 565 107 565 b 165 690 124 631 142 663 b 235 767 190 719 199 733 b 518 928 336 864 435 904 b 824 971 589 947 706 971 b 944 960 861 971 904 963 b 1083 908 1038 954 1083 919 b 990 854 1083 889 1010 858 b 874 844 978 851 888 844 b 794 836 850 844 829 836 b 625 794 747 836 672 817 b 388 660 529 749 429 706 b 317 468 322 589 317 518 b 328 321 317 438 324 336 b 367 260 332 308 351 276 b 635 133 443 176 554 133 b 735 156 678 133 675 139 b 864 194 819 181 846 194 b 908 157 886 194 894 176 b 938 71 935 115 938 86 b 914 33 938 63 935 44 b 776 4 883 15 819 4 z m 1111 11 b 1082 51 1093 11 1082 29 b 1085 72 1082 57 1083 64 b 1097 197 1088 93 1097 132 b 1054 307 1097 274 1079 290 b 844 386 1017 332 879 372 b 800 411 825 393 811 403 b 779 450 782 425 779 433 b 793 479 779 467 779 468 b 856 514 832 510 846 514 b 983 517 863 514 925 517 b 1115 511 1051 517 1081 513 b 1172 504 1153 510 1160 508 b 1235 418 1210 489 1235 450 b 1222 268 1235 369 1231 358 b 1203 143 1219 219 1208 178 b 1172 68 1197 100 1188 89 b 1111 11 1143 32 1126 11 z "},"H":{"ha":1383,"x_min":0,"x_max":0,"o":"m 228 -8 b 200 4 218 -8 204 -3 b 178 74 190 25 181 64 b 156 150 174 90 167 124 b 139 399 143 174 150 304 b 126 526 133 440 133 482 b 119 703 122 549 119 633 b 113 908 119 801 113 826 b 121 972 113 964 113 967 b 168 982 131 979 146 982 b 289 953 200 982 231 969 b 343 906 313 946 336 926 b 353 782 346 899 353 801 b 357 688 353 744 357 694 b 343 611 357 676 349 629 b 326 456 329 556 331 488 b 322 403 324 440 322 428 b 325 294 322 381 325 328 b 306 171 325 200 308 238 b 286 65 303 126 292 97 b 251 -3 281 22 274 6 b 228 -8 243 -6 235 -8 z m 1103 0 b 1079 83 1082 0 1079 31 b 1069 242 1079 107 1072 194 b 1044 433 1067 324 1067 322 b 1031 658 1032 501 1031 532 b 1025 857 1031 831 1025 790 b 1028 907 1025 878 1025 896 b 1135 958 1029 914 1072 946 b 1206 976 1157 963 1192 976 b 1244 954 1221 976 1242 960 b 1258 863 1250 946 1258 908 b 1268 776 1258 808 1263 800 b 1271 688 1269 764 1271 719 b 1254 608 1271 658 1268 640 b 1233 439 1233 565 1233 496 b 1231 335 1233 369 1233 343 b 1224 292 1228 322 1226 317 b 1185 150 1221 261 1193 186 b 1122 7 1168 67 1160 33 b 1103 0 1115 1 1108 0 z m 549 399 b 457 406 482 399 472 400 b 438 488 446 410 438 418 b 463 576 438 521 456 574 b 543 582 469 581 508 582 b 660 561 597 582 607 579 b 819 524 719 540 783 526 b 943 482 861 519 910 504 b 968 447 968 465 968 464 b 860 411 968 421 951 411 b 699 404 785 411 808 404 b 549 399 600 404 607 399 z "},"I":{"ha":479,"x_min":0,"x_max":0,"o":"m 193 -8 b 158 117 171 -8 158 0 b 147 286 158 190 156 222 b 143 449 143 326 143 364 b 129 629 143 524 129 571 b 113 796 129 767 113 731 b 125 874 113 831 115 856 b 231 951 138 899 190 933 b 282 969 263 965 274 969 b 322 946 294 969 306 958 b 356 914 336 935 349 922 b 367 792 363 906 367 840 b 353 600 367 682 353 686 b 333 422 353 531 333 435 b 313 328 333 397 315 351 b 281 157 310 306 281 225 b 243 32 281 111 264 60 b 193 -8 224 4 214 -8 z "},"J":{"ha":1050,"x_min":0,"x_max":0,"o":"m 231 -214 b 181 -183 207 -214 181 -203 b 272 -103 181 -169 203 -147 b 372 -24 319 -72 338 -50 b 482 89 428 17 426 33 b 583 263 554 160 575 228 b 618 390 594 307 610 339 b 649 504 624 418 646 494 b 667 613 653 517 667 603 b 681 651 667 625 671 640 b 750 696 700 678 710 675 b 835 707 771 707 806 707 b 897 696 865 707 890 704 b 908 644 903 692 908 661 b 882 536 908 614 882 564 b 863 457 882 524 872 482 b 817 339 843 410 826 351 b 756 218 810 331 808 317 b 675 92 724 158 692 114 b 521 -81 613 4 571 -40 b 381 -172 468 -124 413 -156 b 299 -201 338 -194 328 -192 b 231 -214 286 -206 242 -214 z m 340 793 b 142 825 242 793 190 797 b 113 851 117 839 113 842 b 238 950 113 857 203 929 b 325 976 276 972 288 976 b 465 953 364 976 383 964 b 663 918 574 938 597 918 b 836 925 697 918 810 925 b 926 883 886 925 911 904 b 938 861 932 874 938 868 b 925 844 938 856 932 850 b 850 818 894 821 857 822 b 767 804 842 813 774 807 b 611 786 754 800 682 786 b 340 793 524 786 564 793 z "},"K":{"ha":1317,"x_min":0,"x_max":0,"o":"m 1200 -36 b 958 19 1196 -36 1003 13 b 796 60 917 26 822 54 b 624 171 697 82 699 113 b 488 282 600 189 500 272 b 443 332 469 294 449 318 b 431 407 436 346 431 379 b 449 469 431 422 443 458 b 511 494 458 485 474 492 b 651 554 583 500 593 503 b 758 747 719 613 742 650 b 776 819 765 783 768 803 b 831 874 781 826 819 867 b 1038 969 897 922 1000 969 b 1064 928 1046 969 1064 944 b 1024 788 1064 907 1047 826 b 925 635 1004 756 969 685 b 747 439 858 561 838 521 b 683 365 689 386 683 375 b 819 236 683 336 760 281 b 956 156 874 196 868 192 b 1065 106 1000 138 1053 113 b 1260 8 1151 57 1260 43 b 1250 -19 1260 -3 1257 -10 b 1200 -36 1236 -36 1228 -36 z m 190 0 b 156 100 160 0 157 49 b 151 165 156 139 156 151 b 138 363 139 214 140 257 b 133 490 136 400 133 443 b 119 740 133 525 121 686 b 113 844 118 799 113 808 b 197 938 113 856 193 933 b 306 978 217 951 261 978 b 343 957 324 978 339 967 b 356 878 349 949 356 885 b 336 743 356 858 349 811 b 329 674 331 714 329 696 b 340 532 329 628 340 581 b 307 407 340 493 325 446 b 289 328 293 374 292 381 b 282 258 288 303 283 281 b 249 68 281 200 276 146 b 190 0 235 31 215 0 z "},"L":{"ha":1175,"x_min":0,"x_max":0,"o":"m 882 -1 b 725 22 843 -1 808 6 b 581 49 669 33 614 44 b 456 56 564 51 535 56 b 367 76 375 56 367 58 b 428 154 367 82 410 128 b 481 179 443 179 446 179 b 581 174 518 179 536 174 b 819 185 628 174 649 185 b 981 192 872 185 907 192 b 1047 174 1008 192 1021 192 b 1069 153 1060 165 1069 158 b 1028 81 1069 142 1050 115 b 882 -1 972 0 951 -1 z m 156 1 b 140 56 143 1 140 22 b 150 236 140 114 150 190 b 131 386 150 278 143 335 b 121 626 125 404 124 475 b 113 806 119 761 113 767 b 135 903 113 856 114 869 b 190 950 144 919 169 950 b 282 901 210 950 210 943 b 365 835 329 875 350 858 b 374 772 369 826 374 800 b 368 585 374 758 369 592 b 332 476 364 551 332 536 b 319 281 332 454 319 397 b 322 207 319 249 322 225 b 286 106 322 172 315 171 b 233 29 264 56 260 50 b 156 1 214 14 183 3 z "},"M":{"ha":1726,"x_min":0,"x_max":0,"o":"m 1453 -1 b 1411 42 1442 -1 1414 15 b 1393 107 1410 63 1394 89 b 1372 208 1383 176 1378 182 b 1368 297 1369 224 1372 274 b 1361 374 1363 321 1365 354 b 1356 506 1360 381 1356 447 b 1357 699 1356 554 1357 613 b 1338 825 1357 789 1338 782 b 1406 935 1338 851 1342 853 b 1449 968 1431 967 1431 968 b 1546 893 1471 968 1492 957 b 1614 769 1588 844 1614 803 b 1582 654 1614 742 1592 671 b 1560 569 1569 631 1565 603 b 1550 465 1553 524 1550 497 b 1553 382 1550 443 1553 411 b 1543 253 1553 318 1547 274 b 1539 215 1539 239 1539 228 b 1540 151 1539 204 1540 171 b 1533 65 1540 111 1536 72 b 1453 -1 1525 42 1478 -1 z m 224 10 b 168 86 181 10 206 21 b 147 157 151 114 147 125 b 158 268 147 190 158 226 b 139 478 158 326 139 401 b 125 692 139 618 126 643 b 113 808 122 774 113 776 b 139 896 113 836 121 867 b 218 972 164 936 178 972 b 318 931 225 972 246 965 b 371 811 343 918 371 876 b 365 740 371 785 365 769 b 357 674 365 721 358 694 b 343 488 351 561 343 547 b 331 328 343 413 336 410 b 308 179 319 182 310 189 b 276 57 303 133 293 100 b 224 10 260 14 256 10 z m 867 326 b 776 383 833 326 793 358 b 715 468 756 414 733 438 b 619 569 686 514 660 538 b 508 672 571 608 539 651 b 456 739 490 685 485 694 b 431 792 431 778 431 779 b 449 835 431 804 431 808 b 513 897 468 865 497 897 b 629 867 522 897 606 885 b 664 817 643 856 651 846 b 775 639 675 790 757 660 b 807 592 793 617 797 603 b 851 532 832 565 846 546 b 921 357 889 429 921 383 b 867 326 921 339 886 326 z m 978 396 b 943 435 965 396 956 414 b 931 493 932 456 931 475 b 965 551 931 510 931 511 b 1053 671 1004 597 1032 647 b 1160 810 1081 704 1142 785 b 1211 861 1182 839 1196 861 b 1236 846 1218 861 1222 857 b 1268 783 1264 825 1268 814 b 1253 650 1268 738 1258 657 b 1092 488 1199 590 1147 546 b 978 396 1068 464 986 396 z "},"N":{"ha":1339,"x_min":0,"x_max":0,"o":"m 214 4 b 149 214 185 4 153 188 b 140 349 140 272 140 303 b 135 497 140 358 136 425 b 125 710 133 590 131 693 b 118 796 121 722 119 765 b 113 868 118 838 113 850 b 125 931 113 875 119 904 b 143 971 131 961 135 971 b 226 932 161 971 188 967 b 300 874 254 907 279 888 b 326 781 326 856 326 854 b 315 615 326 675 322 657 b 296 406 306 556 306 507 b 286 294 293 368 294 340 b 275 175 281 267 278 239 b 254 46 274 125 279 97 b 214 4 247 33 231 4 z m 1090 17 b 1068 21 1081 17 1074 18 b 1053 51 1054 28 1053 33 b 1056 193 1053 75 1056 140 b 1042 354 1056 289 1050 317 b 1021 511 1019 440 1025 464 b 1010 639 1018 561 1010 606 b 994 854 1010 740 994 783 b 1018 928 994 900 1014 911 b 1061 961 1019 944 1047 961 b 1144 907 1075 961 1081 953 b 1214 846 1172 888 1197 865 b 1226 800 1226 832 1226 824 b 1222 704 1226 772 1222 769 b 1225 614 1222 676 1225 633 b 1196 510 1225 551 1196 543 b 1190 372 1196 438 1190 440 b 1200 213 1190 296 1200 231 b 1186 143 1200 194 1197 178 b 1132 40 1169 89 1147 51 b 1090 17 1118 29 1104 17 z m 947 199 b 874 281 929 199 901 250 b 743 413 813 347 799 369 b 644 513 686 458 665 492 b 557 603 619 538 596 563 b 443 767 463 703 454 732 b 422 869 438 786 422 836 b 476 938 422 928 446 938 b 568 910 506 938 539 929 b 629 843 600 890 610 874 b 694 744 668 775 674 783 b 729 696 707 721 717 710 b 819 574 769 649 804 597 b 869 499 843 540 847 544 b 900 424 890 460 896 450 b 960 308 904 394 907 394 b 969 250 969 292 969 288 b 947 199 969 201 964 199 z "},"O":{"ha":1590,"x_min":0,"x_max":0,"o":"m 642 -4 b 529 22 615 -4 576 7 b 417 75 492 35 454 54 b 324 124 375 99 343 117 b 244 171 304 131 275 149 b 217 201 226 185 221 190 b 178 258 208 217 190 244 b 99 447 118 322 99 404 b 107 531 99 468 104 494 b 117 590 110 563 117 569 b 142 688 119 626 129 667 b 361 907 193 772 279 863 b 556 953 404 931 449 933 b 650 965 604 961 617 965 b 721 932 667 965 721 944 b 557 849 721 910 628 894 b 464 790 521 825 492 813 b 404 729 426 760 424 750 b 326 615 342 665 342 651 b 307 529 311 579 307 546 b 304 478 307 504 304 492 b 354 336 304 440 329 388 b 388 288 364 318 379 299 b 446 229 404 261 428 243 b 504 190 468 211 492 197 b 632 136 576 151 592 143 b 696 118 642 135 667 126 b 797 78 747 103 797 93 b 746 24 797 72 761 32 b 642 -4 722 11 668 -4 z m 1086 44 b 1053 64 1075 44 1053 51 b 1111 131 1053 79 1085 108 b 1228 269 1156 168 1215 240 b 1257 382 1242 301 1254 347 b 1267 485 1258 396 1267 450 b 1249 594 1267 533 1260 553 b 1168 746 1232 657 1197 710 b 1086 882 1131 794 1086 875 b 1126 906 1086 904 1092 906 b 1271 861 1217 906 1219 888 b 1357 799 1321 836 1317 832 b 1450 681 1399 764 1429 726 b 1492 533 1467 643 1492 560 b 1469 389 1492 521 1481 444 b 1379 204 1453 306 1435 274 b 1292 122 1344 163 1325 149 b 1229 88 1271 106 1263 100 b 1086 44 1129 49 1104 44 z m 854 388 b 743 424 842 388 794 403 b 667 475 685 449 667 460 b 758 554 667 497 706 528 b 838 583 785 567 829 583 b 964 483 854 583 964 493 b 936 439 964 469 963 464 b 854 388 897 401 874 388 z "},"P":{"ha":1243,"x_min":0,"x_max":0,"o":"m 219 1 b 156 36 197 1 163 17 b 150 113 153 49 150 79 b 151 204 150 139 151 158 b 138 471 151 400 138 378 b 131 542 138 483 131 531 b 118 650 126 572 118 582 b 113 896 117 696 113 864 b 169 978 113 949 144 978 b 281 960 188 978 250 967 b 358 926 342 944 354 940 b 363 857 361 919 363 888 b 357 779 363 835 361 808 b 353 657 353 744 353 692 b 340 532 353 590 342 547 b 315 429 336 489 322 483 b 308 338 310 394 308 386 b 310 242 308 317 310 274 b 286 96 310 119 292 160 b 219 1 281 31 253 1 z m 533 338 b 504 365 518 338 507 339 b 479 451 501 389 486 438 b 472 474 474 460 472 468 b 676 519 472 510 588 506 b 751 525 710 525 731 522 b 803 551 761 526 778 538 b 894 646 836 571 886 610 b 907 707 900 665 907 685 b 743 821 907 760 869 778 b 674 838 718 829 706 833 b 572 860 640 842 617 851 b 469 907 518 869 469 892 b 643 964 469 925 549 950 b 778 976 722 976 733 976 b 917 946 849 976 854 974 b 1010 893 964 925 974 910 b 1097 844 1036 881 1068 856 b 1186 694 1167 818 1186 743 b 1146 610 1186 676 1179 656 b 1081 547 1135 594 1110 569 b 864 422 1039 514 972 483 b 738 374 821 399 779 389 b 604 350 690 356 678 364 b 533 338 563 342 547 338 z "},"Q":{"ha":1628,"x_min":0,"x_max":0,"o":"m 1454 -67 b 1376 -60 1432 -67 1419 -60 b 1269 -68 1335 -60 1353 -68 b 1210 -65 1244 -68 1221 -67 b 1061 -35 1181 -61 1108 -44 b 986 4 1007 -25 986 -10 b 1024 69 986 15 1001 44 b 1097 106 1042 90 1075 106 b 1186 60 1117 106 1138 71 b 1288 31 1206 56 1246 40 b 1417 -1 1342 18 1393 3 b 1528 -39 1458 -8 1528 -24 b 1454 -67 1528 -51 1492 -67 z m 638 4 b 417 81 594 4 499 32 b 329 128 385 100 346 121 b 215 207 285 146 224 188 b 154 292 197 244 179 263 b 99 450 117 335 99 415 b 107 539 99 483 106 518 b 115 588 108 564 114 568 b 146 703 119 653 131 678 b 244 825 181 760 201 778 b 372 919 283 867 339 903 b 488 947 418 942 467 943 b 638 972 560 961 619 972 b 719 940 661 972 719 954 b 557 856 719 914 636 908 b 417 754 508 822 471 815 b 324 619 349 674 338 661 b 304 489 308 575 304 544 b 332 392 304 467 310 439 b 381 301 349 357 350 342 b 549 172 421 249 443 228 b 692 126 606 142 606 153 b 793 85 746 110 793 100 b 769 51 793 74 779 67 b 638 4 750 19 675 4 z m 1207 111 b 1172 151 1183 111 1172 126 b 1242 275 1172 178 1189 167 b 1279 385 1267 328 1279 358 b 1286 440 1279 400 1286 421 b 1282 522 1286 464 1283 478 b 1247 668 1279 615 1267 617 b 1161 782 1232 704 1217 722 b 1111 890 1126 819 1111 869 b 1175 914 1111 914 1113 914 b 1235 910 1217 914 1221 914 b 1367 851 1326 882 1324 874 b 1506 694 1447 811 1482 751 b 1529 604 1522 654 1529 632 b 1499 418 1529 564 1511 458 b 1446 303 1489 386 1478 349 b 1371 203 1429 279 1396 224 b 1233 119 1358 192 1240 125 b 1207 111 1226 113 1217 111 z m 804 399 b 776 401 794 399 783 400 b 719 479 729 410 733 424 b 710 542 715 499 710 519 b 753 572 710 553 711 556 b 794 586 779 582 786 586 b 886 558 824 586 840 572 b 954 468 954 538 954 533 b 933 425 954 442 954 432 b 842 403 917 419 890 415 b 804 399 832 400 818 399 z "},"R":{"ha":1364,"x_min":0,"x_max":0,"o":"m 1250 -57 b 1121 -28 1211 -57 1174 -39 b 1043 -8 1094 -22 1063 -14 b 807 100 963 15 882 74 b 669 169 768 114 738 129 b 542 263 590 217 583 204 b 521 296 529 279 521 293 b 542 400 521 300 536 336 b 567 457 546 454 551 457 b 608 456 574 457 588 456 b 689 461 635 456 671 457 b 793 524 711 465 775 503 b 842 651 831 565 842 629 b 781 750 842 706 828 725 b 532 821 715 783 631 808 b 474 843 486 826 474 832 b 528 913 474 847 514 900 b 581 954 554 935 565 954 b 646 947 592 954 615 949 b 776 929 676 946 726 935 b 943 867 864 918 885 896 b 1057 797 965 856 1028 819 b 1101 693 1085 776 1101 754 b 1068 589 1101 635 1094 639 b 918 461 1051 556 976 490 b 821 389 854 431 840 403 b 782 322 794 369 782 343 b 881 224 782 301 810 258 b 1017 138 931 199 960 179 b 1194 57 1061 104 1139 63 b 1283 31 1246 51 1268 44 b 1307 -12 1293 22 1307 1 b 1250 -57 1307 -43 1282 -57 z m 188 -18 b 150 11 172 -18 150 -14 b 157 126 150 40 157 118 b 156 143 157 136 156 139 b 158 214 156 147 158 185 b 146 338 158 257 156 292 b 131 474 136 390 133 379 b 121 653 129 507 121 619 b 113 851 121 764 113 775 b 132 931 113 894 122 913 b 181 974 149 958 163 974 b 281 906 199 974 243 932 b 350 819 331 869 350 838 b 343 689 350 765 343 715 b 344 611 343 664 344 646 b 321 525 344 582 343 564 b 311 471 313 510 311 508 b 303 390 311 428 303 407 b 306 222 303 376 303 236 b 308 189 307 211 308 200 b 288 100 308 157 294 128 b 188 -18 268 26 218 -18 z "},"S":{"ha":1157,"x_min":0,"x_max":0,"o":"m 369 -1 b 232 67 335 -1 307 17 b 113 178 175 106 113 139 b 154 221 113 194 124 221 b 288 165 171 221 243 189 b 411 129 331 142 368 129 b 474 133 433 129 461 133 b 556 92 521 133 556 110 b 472 19 556 72 481 24 b 369 -1 436 1 406 -1 z m 643 11 b 607 44 631 11 607 21 b 682 121 607 68 626 90 b 835 306 749 157 835 239 b 629 440 835 368 771 411 b 393 496 503 465 511 472 b 204 575 288 517 221 563 b 124 689 147 617 124 646 b 149 790 124 739 129 769 b 243 858 168 811 197 832 b 389 917 314 899 353 917 b 418 893 406 917 418 908 b 382 828 418 883 411 871 b 338 743 350 779 338 760 b 344 718 338 735 340 728 b 464 625 365 676 399 656 b 622 583 511 603 575 586 b 917 508 708 578 818 551 b 1024 442 974 483 1004 465 b 1065 350 1051 410 1065 382 b 996 183 1065 288 1054 251 b 811 64 956 136 897 106 b 668 14 722 21 693 14 b 643 11 660 14 653 11 z m 838 799 b 793 806 826 799 811 801 b 593 832 743 817 628 831 b 500 868 536 835 500 850 b 546 918 500 883 519 894 b 608 960 581 950 588 956 b 678 972 633 965 660 972 b 756 953 686 972 733 960 b 857 871 790 940 800 922 b 881 838 875 856 881 846 b 838 799 881 819 860 799 z "},"T":{"ha":1150,"x_min":0,"x_max":0,"o":"m 518 -3 b 489 57 494 -3 489 10 b 493 143 489 107 493 125 b 486 218 493 168 486 203 b 474 344 486 236 478 321 b 468 438 471 360 468 401 b 457 564 468 489 461 556 b 442 656 451 578 449 618 b 436 690 440 671 436 686 b 461 717 436 701 449 717 b 614 657 478 717 543 699 b 683 599 671 622 683 619 b 672 513 683 568 681 546 b 665 474 668 499 669 486 b 657 431 663 460 661 443 b 640 308 647 399 640 319 b 647 221 640 292 647 260 b 610 104 647 168 622 121 b 518 -3 582 68 547 -3 z m 189 753 b 142 800 160 753 144 785 b 113 860 139 819 128 835 b 85 919 94 888 85 906 b 147 985 85 969 114 985 b 251 965 171 985 185 985 b 400 943 314 947 331 944 b 588 922 478 942 565 922 b 708 938 643 922 658 938 b 792 922 729 938 736 936 b 960 883 885 899 903 888 b 1079 840 1033 878 1079 860 b 1074 822 1079 836 1078 831 b 978 793 1061 800 1047 793 b 894 797 940 793 925 793 b 729 814 811 808 764 814 b 578 801 710 814 626 801 b 435 775 535 801 474 779 b 189 753 394 769 214 753 z "},"U":{"ha":1349,"x_min":0,"x_max":0,"o":"m 538 -3 b 440 8 475 -3 476 8 b 286 79 403 8 346 31 b 188 243 246 111 222 182 b 122 425 169 275 140 349 b 96 632 110 479 104 546 b 85 806 90 689 85 751 b 103 953 85 881 92 943 b 165 976 110 960 150 976 b 318 929 240 976 265 969 b 351 886 343 910 351 900 b 328 797 351 863 328 828 b 297 656 328 785 301 743 b 286 546 296 619 286 578 b 329 303 286 511 299 365 b 442 161 356 249 376 206 b 575 100 469 143 503 128 b 640 53 636 76 640 64 b 626 6 640 19 635 7 b 538 -3 606 1 586 -3 z m 857 7 b 790 56 829 7 790 32 b 822 92 790 67 801 78 b 946 211 868 121 919 169 b 1013 376 994 288 997 317 b 1040 526 1028 438 1040 494 b 1051 636 1040 551 1047 615 b 1054 776 1054 654 1054 713 b 1064 919 1054 897 1057 908 b 1094 933 1065 924 1089 933 b 1153 907 1104 933 1128 917 b 1251 839 1189 893 1203 878 b 1264 771 1264 829 1264 822 b 1257 657 1264 694 1257 689 b 1246 543 1257 611 1246 600 b 1228 428 1246 515 1240 483 b 1185 289 1217 371 1215 364 b 1089 144 1153 214 1131 183 b 936 36 1047 107 1031 86 b 857 7 903 18 888 7 z "},"V":{"ha":1467,"x_min":0,"x_max":0,"o":"m 821 14 b 799 60 803 14 799 33 b 818 169 799 104 815 154 b 864 293 821 186 843 246 b 950 483 899 374 893 392 b 1033 644 1007 578 1029 622 b 1043 733 1042 692 1040 708 b 1088 826 1049 779 1068 813 b 1253 943 1136 867 1208 903 b 1304 971 1276 964 1289 971 b 1335 954 1317 971 1328 965 b 1382 858 1360 915 1382 878 b 1340 765 1382 838 1346 772 b 1278 674 1322 744 1296 697 b 1221 601 1258 647 1256 642 b 1153 506 1188 561 1183 550 b 1113 421 1147 499 1128 461 b 1074 335 1101 390 1079 349 b 1017 238 1031 243 1033 269 b 956 161 1006 217 969 182 b 903 107 943 143 913 124 b 821 14 850 22 836 14 z m 692 17 b 610 100 676 17 649 49 b 567 156 596 118 582 138 b 490 278 549 179 517 242 b 388 456 439 353 392 444 b 325 553 378 476 353 511 b 238 678 278 622 244 668 b 92 878 165 772 147 774 b 85 896 89 885 85 890 b 113 935 85 904 97 921 b 151 957 135 957 138 957 b 199 943 165 957 175 953 b 303 889 253 922 254 914 b 361 863 328 876 346 867 b 418 825 393 853 403 844 b 483 710 475 753 472 732 b 536 581 494 686 529 599 b 553 524 544 553 549 533 b 574 463 564 506 565 485 b 597 356 578 450 590 404 b 635 218 604 311 613 253 b 676 129 646 200 664 151 b 706 29 690 103 706 61 b 692 17 706 24 697 17 z "},"W":{"ha":1994,"x_min":0,"x_max":0,"o":"m 619 1 b 588 57 610 1 603 19 b 535 175 567 107 553 135 b 422 369 503 244 447 293 b 326 582 388 475 340 547 b 103 907 286 682 168 840 b 85 931 90 919 85 925 b 171 963 85 949 101 954 b 225 968 196 965 211 968 b 449 900 294 968 428 919 b 488 760 469 879 486 799 b 504 636 490 713 504 681 b 561 469 504 599 540 518 b 618 306 599 385 590 351 b 657 161 642 268 657 176 b 654 132 657 147 654 140 b 661 67 654 111 661 75 b 619 1 661 33 639 1 z m 1274 14 b 1249 42 1260 14 1249 26 b 1293 233 1249 79 1285 174 b 1326 315 1297 260 1311 281 b 1403 478 1343 357 1360 369 b 1431 544 1413 504 1422 514 b 1483 682 1450 610 1476 651 b 1521 775 1490 706 1513 743 b 1733 928 1539 842 1663 885 b 1890 992 1765 947 1868 992 b 1910 978 1900 992 1910 985 b 1863 888 1910 949 1889 918 b 1781 768 1819 839 1799 789 b 1743 710 1774 760 1760 739 b 1638 558 1714 654 1690 622 b 1515 408 1554 460 1586 483 b 1424 254 1478 369 1440 292 b 1353 139 1388 171 1365 174 b 1311 67 1339 106 1319 90 b 1274 14 1297 31 1285 14 z m 740 74 b 718 106 724 74 718 81 b 725 221 718 124 721 158 b 778 438 733 365 760 349 b 842 604 786 481 818 546 b 885 654 856 639 868 654 b 929 619 904 654 928 642 b 954 514 936 563 954 535 b 917 388 954 435 936 465 b 833 254 906 339 889 339 b 789 132 813 221 815 196 b 740 74 772 94 769 74 z m 1210 203 b 1190 244 1199 203 1193 213 b 1142 397 1185 292 1167 350 b 1078 494 1124 432 1100 463 b 999 600 1040 551 1001 578 b 971 675 997 614 971 647 b 972 700 971 681 972 689 b 965 751 972 714 965 739 b 1014 804 965 767 976 775 b 1110 882 1085 858 1074 867 b 1153 897 1139 894 1147 897 b 1178 826 1174 897 1167 865 b 1193 694 1186 799 1183 733 b 1214 589 1201 665 1203 635 b 1228 524 1219 564 1228 543 b 1244 372 1228 492 1244 422 b 1232 218 1244 282 1240 226 b 1210 203 1224 207 1215 203 z "},"X":{"ha":1358,"x_min":0,"x_max":0,"o":"m 140 -1 b 85 29 108 -1 85 1 b 150 115 85 46 124 94 b 274 200 168 131 250 185 b 375 308 304 219 358 288 b 469 425 406 347 446 425 b 492 414 476 425 482 422 b 517 368 515 396 517 392 b 469 193 517 343 476 228 b 449 88 465 167 457 168 b 421 50 446 61 440 58 b 281 24 367 28 328 31 b 140 -1 196 11 179 -1 z m 1117 0 b 1019 65 1086 0 1071 18 b 885 181 990 92 949 129 b 801 256 850 210 825 235 b 672 372 751 299 715 328 b 615 425 653 393 631 410 b 471 558 571 471 539 503 b 333 700 392 624 400 638 b 228 844 297 735 263 779 b 167 975 185 926 167 960 b 193 990 167 988 178 990 b 353 951 228 990 293 975 b 501 833 453 911 438 879 b 638 701 532 811 579 767 b 753 531 704 625 719 596 b 811 422 783 475 781 454 b 842 383 818 414 832 396 b 928 292 864 357 878 328 b 1092 136 963 268 1060 172 b 1165 39 1128 96 1165 67 b 1117 0 1165 19 1146 0 z m 821 596 b 797 631 813 596 797 614 b 842 728 797 651 813 682 b 943 844 865 764 899 806 b 1078 974 1017 907 1028 974 b 1243 938 1115 974 1201 960 b 1274 910 1263 928 1274 918 b 1143 807 1274 897 1179 829 b 1000 714 1125 796 1114 778 b 951 685 985 706 961 692 b 821 596 863 622 829 596 z "},"Y":{"ha":1319,"x_min":0,"x_max":0,"o":"m 750 -6 b 690 14 719 -6 717 -1 b 592 61 653 36 610 44 b 544 150 569 82 553 136 b 522 254 533 169 522 201 b 546 356 522 294 531 333 b 667 513 565 388 592 390 b 807 690 710 582 731 599 b 938 869 865 758 903 807 b 1044 969 990 968 997 969 b 1215 899 1057 969 1186 915 b 1235 865 1231 889 1235 883 b 1049 696 1235 819 1115 735 b 828 519 946 636 943 589 b 750 451 786 494 779 489 b 701 357 707 400 704 394 b 699 311 700 346 699 329 b 717 219 699 285 708 238 b 781 89 740 168 778 108 b 800 28 786 63 800 42 b 750 -6 800 13 776 -6 z m 560 471 b 497 507 540 471 519 483 b 383 592 468 536 432 563 b 219 739 297 644 251 682 b 111 875 203 768 156 819 b 85 940 90 899 85 910 b 129 978 85 956 97 978 b 274 967 183 978 228 976 b 361 940 321 957 353 953 b 400 844 378 918 376 879 b 546 651 490 711 533 678 b 568 589 554 633 564 615 b 585 504 574 564 585 524 b 560 471 585 485 576 471 z "},"Z":{"ha":1376,"x_min":0,"x_max":0,"o":"m 493 4 b 418 39 450 4 418 21 b 472 97 418 56 436 58 b 593 172 504 131 535 151 b 676 194 622 183 653 194 b 814 169 713 194 775 175 b 971 133 853 164 940 138 b 1026 129 988 131 1007 129 b 1090 133 1049 129 1071 133 b 1179 125 1107 133 1136 131 b 1264 92 1235 118 1264 118 b 1157 33 1264 72 1229 71 b 1063 3 1108 7 1093 3 b 996 6 1050 3 1021 4 b 790 21 915 11 911 21 b 581 10 681 21 629 10 b 493 4 551 10 543 4 z m 222 68 b 146 81 194 68 172 76 b 113 103 118 85 113 89 b 356 294 113 135 168 160 b 510 413 432 349 479 386 b 756 617 611 499 721 585 b 925 743 797 654 875 714 b 963 775 938 750 947 769 b 1067 783 972 779 1015 783 b 1193 776 1111 783 1171 781 b 1221 736 1199 775 1221 757 b 1142 636 1221 715 1182 669 b 1000 544 1074 582 1058 578 b 956 521 988 538 982 540 b 643 363 924 499 683 382 b 489 264 599 342 540 307 b 381 186 408 197 401 210 b 279 100 368 172 317 129 b 222 68 247 76 243 68 z m 381 789 b 236 836 343 789 281 815 b 142 913 183 861 142 890 b 296 947 142 943 193 921 b 458 969 339 958 392 969 b 654 963 529 969 533 963 b 974 940 790 963 931 946 b 1035 921 1010 936 1026 932 b 1047 889 1042 914 1047 897 b 938 854 1047 874 1001 874 b 860 836 914 847 888 840 b 707 817 815 829 772 817 b 597 819 653 817 619 819 b 381 789 515 819 443 789 z "},"¼":{"ha":1465,"x_min":0,"x_max":0,"o":"m 1240 11 b 1214 81 1218 11 1217 22 b 1201 204 1210 153 1201 165 b 1210 285 1201 228 1210 260 b 1200 344 1210 326 1200 338 b 1208 389 1200 349 1208 382 b 1201 476 1208 401 1206 394 b 1190 551 1199 533 1199 538 b 1168 629 1175 575 1168 604 b 1243 668 1168 642 1231 668 b 1307 638 1251 668 1272 658 b 1353 569 1343 617 1353 606 b 1338 421 1353 503 1338 446 b 1343 372 1338 407 1343 388 b 1317 276 1343 339 1317 304 b 1319 211 1317 263 1319 250 b 1304 114 1319 158 1311 151 b 1240 11 1296 75 1281 11 z m 1149 228 b 1129 231 1143 228 1139 228 b 1043 235 1117 233 1081 235 b 943 232 1006 235 958 232 b 928 240 929 232 928 233 b 951 272 928 246 940 268 b 1106 338 990 288 1076 332 b 1121 339 1113 339 1118 339 b 1157 329 1136 339 1146 335 b 1168 263 1168 324 1168 301 b 1149 228 1168 231 1160 228 z m 843 253 b 822 269 833 253 822 263 b 856 319 822 275 831 286 b 910 418 881 354 875 372 b 997 560 953 472 965 524 b 1082 619 1029 594 1068 619 b 1139 563 1110 619 1139 597 b 1069 435 1139 483 1121 485 b 968 344 1031 396 990 365 b 843 253 925 301 860 253 z m 300 357 b 275 404 288 357 275 363 b 276 490 275 435 276 469 b 267 724 276 601 267 511 b 260 833 267 804 260 790 b 301 932 260 871 272 894 b 340 957 318 953 331 957 b 422 864 406 957 414 888 b 431 818 429 846 431 831 b 407 700 431 775 417 733 b 378 624 396 658 378 651 b 399 518 378 599 399 585 b 347 397 399 489 364 438 b 300 357 335 368 321 357 z m 131 765 b 113 782 124 765 113 775 b 122 810 113 793 118 800 b 172 858 133 833 158 844 b 228 896 190 876 218 896 b 235 874 232 896 235 894 b 222 824 235 843 231 843 b 194 786 214 801 203 790 b 131 765 169 771 161 765 z m 338 11 b 311 42 321 11 311 22 b 319 82 311 51 314 65 b 431 282 338 129 339 135 b 588 517 507 408 518 418 b 756 775 694 669 718 711 b 849 911 781 818 815 874 b 919 953 876 942 904 953 b 960 944 924 953 942 949 b 1043 892 1015 932 1043 911 b 994 769 1043 872 1013 794 b 947 719 989 761 971 742 b 821 564 872 650 858 621 b 749 435 793 519 757 447 b 618 315 719 396 624 322 b 547 219 597 294 568 254 b 460 119 518 172 499 150 b 338 11 390 65 361 11 z "},"½":{"ha":1524,"x_min":0,"x_max":0,"o":"m 1064 -4 b 1049 7 1057 -4 1049 0 b 1118 113 1049 22 1108 81 b 1154 132 1122 124 1132 132 b 1218 114 1176 132 1196 125 b 1329 79 1257 94 1268 89 b 1411 49 1396 68 1411 63 b 1390 4 1411 36 1399 11 b 1350 -3 1383 -1 1375 -3 b 1228 0 1342 -3 1321 0 b 1064 -4 1072 0 1072 -4 z m 883 -1 b 858 11 875 -1 858 0 b 882 82 858 19 869 47 b 925 178 899 128 911 150 b 963 224 944 215 951 224 b 1003 219 972 224 989 219 b 1107 286 1044 219 1068 233 b 1133 354 1118 301 1133 338 b 1083 404 1133 378 1121 390 b 1006 444 1049 417 1029 428 b 938 475 983 460 960 471 b 903 486 907 479 903 481 b 929 519 903 492 906 497 b 990 561 968 558 974 561 b 1160 499 1008 561 1036 550 b 1282 364 1251 461 1282 415 b 1163 217 1282 310 1240 265 b 1025 103 1103 179 1086 132 b 918 17 993 88 993 83 b 883 -1 897 -1 890 -1 z m 296 356 b 275 367 283 356 281 358 b 268 424 269 374 268 376 b 272 489 268 471 272 481 b 268 539 272 499 268 519 b 263 628 268 575 263 585 b 267 743 263 653 267 657 b 260 836 267 799 260 786 b 306 932 260 885 286 906 b 343 956 315 947 329 956 b 417 888 381 956 414 913 b 431 817 418 860 431 860 b 408 704 431 768 418 747 b 375 618 404 678 375 646 b 396 525 375 590 396 572 b 343 396 396 478 358 436 b 296 356 329 363 315 356 z m 135 765 b 113 783 122 765 113 769 b 190 872 113 810 144 836 b 229 896 206 885 224 896 b 236 881 233 896 236 892 b 207 794 236 833 215 808 b 135 765 206 790 172 765 z m 336 11 b 310 42 319 11 310 22 b 318 82 310 51 313 65 b 429 282 336 129 338 135 b 586 517 506 408 518 418 b 754 775 693 669 718 711 b 847 911 779 818 814 874 b 918 953 875 942 903 953 b 958 944 922 953 940 949 b 1042 892 1014 932 1042 911 b 993 769 1042 872 1011 794 b 946 719 988 761 969 742 b 819 564 871 650 857 621 b 747 435 792 519 756 447 b 617 315 718 396 622 322 b 546 219 596 294 568 254 b 458 119 518 172 497 150 b 336 11 389 65 360 11 z "},"¾":{"ha":1650,"x_min":0,"x_max":0,"o":"m 1426 31 b 1408 35 1419 31 1413 32 b 1397 101 1399 43 1401 53 b 1386 229 1392 185 1386 193 b 1393 310 1386 269 1393 278 b 1383 369 1393 353 1383 360 b 1393 414 1383 375 1393 406 b 1385 503 1393 425 1388 422 b 1374 582 1382 564 1382 567 b 1354 651 1363 600 1354 633 b 1358 669 1354 663 1354 665 b 1426 701 1368 678 1418 701 b 1521 646 1439 701 1508 661 b 1538 603 1531 636 1538 619 b 1521 449 1538 557 1521 464 b 1528 397 1521 435 1528 413 b 1500 300 1528 357 1500 328 b 1504 231 1500 286 1504 276 b 1468 65 1504 163 1472 82 b 1426 31 1460 42 1444 31 z m 1331 251 b 1311 253 1325 251 1318 251 b 1210 257 1297 256 1256 257 b 1129 256 1178 257 1142 256 b 1111 264 1113 256 1111 257 b 1136 296 1111 267 1128 292 b 1206 329 1151 303 1176 314 b 1304 364 1243 349 1288 364 b 1336 357 1310 364 1329 363 b 1351 301 1350 349 1351 346 b 1346 257 1351 265 1349 261 b 1331 251 1343 253 1338 251 z m 1026 276 b 1006 293 1018 276 1006 285 b 1063 393 1006 314 1058 358 b 1124 492 1064 407 1096 440 b 1219 626 1156 551 1171 582 b 1268 651 1238 642 1254 651 b 1301 639 1281 651 1296 643 b 1321 581 1321 621 1321 615 b 1254 461 1321 519 1308 517 b 1156 374 1188 393 1179 400 b 1026 276 1118 331 1043 276 z m 326 344 b 288 347 306 344 296 344 b 196 363 271 351 240 357 b 122 403 179 365 122 390 b 206 446 122 410 153 422 b 233 454 218 451 224 454 b 313 447 253 454 263 447 b 450 472 346 447 428 457 b 475 525 469 486 475 497 b 464 549 475 536 471 536 b 379 592 447 575 443 582 b 281 600 349 596 313 600 b 193 632 232 600 193 615 b 201 650 193 638 196 644 b 292 689 218 671 238 682 b 319 693 304 690 301 693 b 496 658 388 693 458 688 b 568 583 531 631 556 607 b 593 510 572 576 590 522 b 593 493 593 504 593 499 b 568 436 593 467 585 454 b 419 360 536 400 514 374 b 326 344 381 354 378 344 z m 429 714 b 415 725 421 714 415 717 b 421 769 415 732 421 749 b 365 826 421 799 418 800 b 221 846 333 842 290 843 b 113 864 114 850 113 857 b 181 946 113 874 156 931 b 243 960 201 957 206 960 b 506 896 353 960 440 933 b 557 840 533 879 557 853 b 533 786 557 835 542 799 b 429 714 522 768 450 714 z m 501 11 b 475 42 485 11 475 22 b 483 82 475 51 478 65 b 593 282 501 129 503 135 b 751 517 671 408 682 418 b 918 775 858 669 882 711 b 1013 911 943 818 979 874 b 1083 953 1040 942 1068 953 b 1124 944 1088 953 1106 949 b 1206 892 1179 932 1206 911 b 1158 769 1206 872 1176 794 b 1111 719 1153 761 1135 742 b 985 564 1036 650 1022 621 b 913 435 956 519 921 447 b 781 315 883 396 788 322 b 711 219 761 294 732 254 b 624 119 682 172 663 150 b 501 11 554 65 525 11 z "},"!":{"ha":482,"x_min":0,"x_max":0,"o":"m 258 6 b 193 15 243 6 219 7 b 149 36 181 19 164 28 b 113 69 129 47 113 58 b 129 111 113 81 119 96 b 193 174 136 125 167 153 b 257 204 221 193 232 204 b 319 144 314 204 319 182 b 326 88 319 124 326 101 b 306 18 326 69 319 40 b 258 6 297 7 281 6 z m 186 303 b 158 340 168 303 158 315 b 165 449 158 378 165 433 b 150 722 165 471 151 660 b 136 883 146 882 136 840 b 128 954 136 906 128 938 b 153 985 128 974 136 985 b 353 890 182 985 296 933 b 369 858 369 876 369 875 b 360 793 369 840 365 808 b 339 708 354 776 349 736 b 318 593 329 682 318 615 b 321 529 318 582 321 574 b 308 450 321 481 321 474 b 256 368 296 426 281 403 b 186 303 215 314 201 303 z "},"\"":{"ha":686,"x_min":0,"x_max":0,"o":"m 169 738 b 138 746 157 738 151 739 b 113 804 118 754 113 767 b 121 960 113 864 121 921 b 119 1057 121 982 119 1007 b 160 1144 119 1129 147 1144 b 218 1111 176 1144 183 1133 b 275 1065 233 1103 268 1079 b 281 1031 281 1057 281 1054 b 243 875 281 953 256 940 b 169 738 231 811 188 738 z m 456 744 b 435 751 451 744 446 746 b 404 817 418 761 404 778 b 408 876 404 829 407 846 b 414 974 410 910 414 943 b 408 1068 414 1017 408 1053 b 425 1128 408 1085 417 1110 b 450 1150 432 1143 439 1150 b 489 1133 463 1150 472 1143 b 557 1088 517 1117 549 1096 b 574 1056 569 1075 574 1069 b 560 965 574 999 567 993 b 536 882 554 936 542 908 b 510 806 531 860 519 826 b 456 744 492 768 475 744 z "},"#":{"ha":1532,"x_min":0,"x_max":0,"o":"m 706 -208 b 694 -196 700 -208 694 -204 b 697 -175 694 -189 696 -190 b 722 -99 699 -158 707 -142 b 790 111 757 3 771 61 b 824 186 808 161 808 182 b 867 189 832 189 846 189 b 935 179 915 189 935 186 b 904 111 935 172 918 135 b 838 -15 885 81 878 64 b 746 -179 776 -137 767 -157 b 706 -208 733 -193 713 -208 z m 276 -185 b 244 -151 254 -185 244 -178 b 256 -85 244 -129 253 -107 b 276 -11 258 -54 269 -33 b 308 108 286 26 300 71 b 343 186 318 146 332 186 b 418 188 347 186 392 188 b 449 176 443 188 449 186 b 421 92 449 168 443 154 b 325 -135 394 14 357 -79 b 276 -185 306 -168 296 -185 z m 411 235 b 296 238 361 235 318 236 b 113 264 142 246 113 244 b 193 325 113 282 133 299 b 307 363 229 342 281 358 b 407 365 329 365 368 365 b 579 364 469 365 540 364 b 675 365 642 364 646 365 b 947 354 836 365 844 354 b 1147 347 969 354 1057 347 b 1239 340 1210 347 1215 347 b 1288 306 1275 329 1288 319 b 1206 258 1288 290 1268 272 b 1094 250 1178 253 1143 250 b 842 243 1000 250 993 243 b 411 235 793 243 450 235 z m 451 390 b 413 419 433 390 413 401 b 447 536 413 432 429 463 b 518 579 457 576 461 579 b 593 553 574 579 593 578 b 575 492 593 514 590 521 b 557 444 564 471 560 457 b 521 406 553 421 549 410 b 451 390 501 403 482 390 z m 911 414 b 874 444 890 414 874 426 b 903 528 874 461 896 492 b 954 571 907 556 925 571 b 1003 568 961 571 968 568 b 1056 535 1043 568 1056 560 b 1035 456 1056 500 1042 481 b 911 414 1025 417 1022 414 z m 481 642 b 339 644 358 642 350 642 b 279 681 293 654 279 669 b 365 731 279 700 300 715 b 493 739 401 739 439 739 b 556 743 508 739 549 742 b 893 756 579 747 750 753 b 1156 764 1007 757 1008 764 b 1349 758 1246 764 1335 758 b 1419 738 1404 758 1419 753 b 1236 640 1419 707 1306 657 b 1047 635 1214 635 1096 635 b 864 631 931 635 904 631 b 693 635 813 631 718 633 b 481 642 603 640 565 642 z m 550 771 b 533 781 539 771 533 772 b 540 807 533 786 535 796 b 579 933 551 835 569 911 b 690 1043 581 940 608 957 b 744 1083 718 1072 735 1083 b 772 1058 764 1083 772 1075 b 757 1001 772 1047 769 1029 b 710 839 740 963 725 903 b 679 799 703 807 700 806 b 550 771 606 775 567 771 z m 1108 822 b 1021 832 1036 822 1021 822 b 1068 979 1021 844 1047 925 b 1114 1053 1088 1028 1081 1033 b 1183 1076 1131 1064 1156 1072 b 1254 1090 1215 1081 1233 1090 b 1275 1057 1264 1090 1275 1072 b 1206 836 1275 1019 1225 901 b 1108 822 1203 824 1206 822 z "},"$":{"ha":1001,"x_min":0,"x_max":0,"o":"m 525 -253 b 481 -190 503 -253 490 -225 b 469 -143 476 -176 474 -160 b 451 -31 456 -78 451 -47 b 494 -6 451 -15 468 -6 b 581 -46 507 -6 569 -33 b 585 -74 583 -51 585 -61 b 571 -158 585 -100 581 -118 b 542 -242 563 -194 554 -226 b 525 -253 533 -251 529 -253 z m 378 10 b 346 13 368 10 356 10 b 256 47 339 15 299 31 b 160 85 215 64 171 81 b 113 122 128 96 113 108 b 153 158 113 140 131 158 b 347 138 175 158 206 138 b 447 143 393 138 433 143 b 485 115 465 143 485 133 b 463 67 485 104 481 90 b 407 14 447 47 421 21 b 378 10 401 11 390 10 z m 560 43 b 543 69 553 43 543 57 b 581 126 543 86 549 100 b 635 188 601 146 629 176 b 656 233 642 199 646 214 b 676 310 668 267 676 285 b 640 397 676 340 668 374 b 596 418 626 408 604 418 b 467 450 593 418 490 444 b 338 493 390 468 374 475 b 204 569 274 526 257 525 b 168 621 189 582 174 604 b 146 718 165 636 146 679 b 211 843 146 757 171 813 b 286 894 231 858 269 886 b 351 910 300 901 332 910 b 371 894 367 910 371 901 b 364 874 371 889 369 883 b 319 742 329 819 319 775 b 349 679 319 722 326 700 b 414 638 367 663 401 642 b 469 615 418 636 443 626 b 624 565 529 592 532 588 b 767 517 681 551 731 535 b 889 350 846 475 889 418 b 850 244 889 315 889 308 b 750 129 813 183 790 157 b 643 76 721 108 703 103 b 560 43 629 69 567 43 z m 646 793 b 576 794 626 793 606 794 b 488 801 533 794 507 797 b 444 835 463 806 444 819 b 475 886 444 844 460 869 b 531 922 496 910 511 915 b 556 929 542 926 542 929 b 636 911 581 929 592 929 b 744 839 681 893 728 864 b 756 813 749 833 756 819 b 746 799 756 804 751 800 b 646 793 735 794 703 793 z m 435 953 b 400 988 414 953 400 964 b 433 1132 400 1003 426 1113 b 465 1189 447 1169 451 1176 b 485 1197 471 1194 479 1197 b 524 1136 501 1197 524 1175 b 531 1094 524 1128 528 1101 b 540 1040 531 1090 536 1064 b 543 1006 543 1022 543 1011 b 494 967 543 986 526 979 b 435 953 479 960 449 953 z "},"%":{"ha":1351,"x_min":0,"x_max":0,"o":"m 929 21 b 875 33 917 21 896 26 b 800 81 844 43 822 53 b 743 192 746 149 743 153 b 782 329 743 253 756 292 b 853 382 794 346 821 364 b 922 411 886 401 896 411 b 971 371 949 411 971 400 b 913 310 971 342 960 335 b 856 199 869 288 856 263 b 869 149 856 167 856 165 b 943 103 900 111 908 106 b 975 76 972 100 975 93 b 929 21 975 49 956 21 z m 1072 21 b 1028 64 1051 21 1028 39 b 1057 99 1028 82 1035 90 b 1115 169 1085 110 1096 121 b 1126 214 1122 189 1126 194 b 1114 288 1126 267 1122 275 b 1053 326 1104 301 1097 308 b 1015 361 1028 336 1015 346 b 1054 408 1015 385 1035 408 b 1181 361 1090 408 1150 379 b 1231 293 1194 353 1222 318 b 1239 196 1233 282 1239 207 b 1228 158 1239 181 1235 176 b 1169 64 1199 90 1196 88 b 1072 21 1143 39 1101 21 z m 296 575 b 274 579 292 575 283 576 b 206 603 249 585 224 593 b 157 650 190 611 181 619 b 113 749 115 703 113 713 b 135 861 113 790 124 839 b 243 950 151 892 186 919 b 293 965 263 960 278 965 b 342 928 322 965 342 944 b 332 897 342 917 339 903 b 286 865 324 890 301 874 b 240 829 265 854 250 843 b 222 754 231 817 222 775 b 246 692 222 725 222 722 b 313 657 268 664 285 658 b 344 629 336 656 344 649 b 296 575 344 601 318 575 z m 442 575 b 396 618 418 575 396 596 b 426 653 396 633 404 643 b 468 690 439 658 458 671 b 494 758 492 735 494 744 b 479 846 494 821 490 831 b 422 879 468 860 453 867 b 383 918 388 894 383 901 b 422 963 383 940 403 963 b 558 906 456 963 531 931 b 606 758 599 869 606 838 b 569 665 606 718 578 671 b 556 646 564 661 558 653 b 514 599 550 628 543 618 b 442 575 489 583 460 575 z m 322 21 b 296 50 307 21 296 35 b 367 196 296 69 311 115 b 517 410 447 314 449 324 b 743 719 614 536 664 599 b 826 832 790 790 806 811 b 906 876 861 865 876 876 b 1028 821 956 876 1028 854 b 1011 774 1028 813 1022 803 b 931 665 990 719 981 707 b 781 486 849 596 831 558 b 733 406 750 442 753 429 b 638 325 718 386 656 338 b 539 218 596 299 576 271 b 436 114 499 161 474 138 b 322 21 396 90 346 21 z "},"&":{"ha":1182,"x_min":0,"x_max":0,"o":"m 703 -8 b 650 8 692 -8 658 1 b 593 75 632 22 615 47 b 578 99 585 86 578 97 b 643 135 578 111 606 118 b 721 172 668 146 686 151 b 874 228 776 204 838 228 b 1026 146 907 228 951 206 b 1069 94 1064 115 1069 110 b 1043 68 1069 71 1065 68 b 931 85 1004 68 968 85 b 840 65 904 85 881 78 b 817 51 831 63 826 60 b 743 -4 786 25 763 4 b 703 -8 732 -8 721 -8 z m 458 10 b 361 19 440 10 386 14 b 235 78 331 26 311 42 b 149 153 215 88 160 135 b 113 251 131 182 113 243 b 143 392 113 296 121 336 b 200 482 160 438 169 451 b 232 525 228 510 232 524 b 226 538 232 528 231 531 b 199 628 207 571 199 601 b 222 738 199 656 214 722 b 331 853 236 760 279 813 b 489 908 369 885 408 908 b 597 879 546 908 568 896 b 678 788 631 861 678 818 b 657 749 678 764 669 749 b 504 782 628 749 563 782 b 436 756 489 782 458 769 b 371 696 406 736 381 711 b 356 639 364 682 356 656 b 497 581 356 618 425 581 b 563 589 513 581 550 589 b 590 572 569 589 578 588 b 618 518 604 554 618 526 b 606 483 618 510 613 493 b 531 451 594 467 583 460 b 393 406 493 446 418 421 b 332 344 368 389 347 368 b 313 251 315 317 313 300 b 339 178 313 210 314 204 b 422 121 358 156 388 136 b 456 101 435 115 450 106 b 489 25 469 89 489 44 b 458 10 489 11 479 10 z "},"(":{"ha":629,"x_min":0,"x_max":0,"o":"m 440 -192 b 321 -162 385 -192 368 -192 b 244 -68 297 -147 264 -114 b 207 15 231 -32 214 -7 b 188 58 204 29 194 49 b 139 172 174 78 146 133 b 121 331 126 238 121 276 b 113 483 121 381 113 407 b 143 718 113 644 131 665 b 186 892 157 785 164 846 b 254 997 197 914 238 979 b 415 1132 350 1104 382 1132 b 486 1074 440 1132 486 1103 b 458 1011 486 1046 482 1035 b 406 946 442 994 418 967 b 331 796 390 924 381 908 b 278 590 296 722 281 651 b 272 442 276 571 272 497 b 282 325 272 367 278 356 b 318 160 289 283 285 281 b 406 -32 349 53 354 43 b 450 -62 414 -43 429 -54 b 517 -157 499 -81 517 -108 b 440 -192 517 -171 482 -192 z "},")":{"ha":642,"x_min":0,"x_max":0,"o":"m 146 -194 b 113 -133 122 -194 113 -174 b 179 -67 113 -92 122 -107 b 260 -4 207 -46 224 -43 b 279 15 265 1 274 6 b 326 163 313 78 324 153 b 357 306 343 226 356 276 b 365 426 358 344 365 381 b 332 626 365 529 350 536 b 301 785 311 733 303 738 b 283 863 300 828 294 840 b 261 933 274 882 271 910 b 192 1015 250 960 199 1004 b 149 1054 172 1043 164 1038 b 143 1086 143 1061 143 1075 b 221 1138 143 1111 164 1138 b 306 1100 253 1138 263 1133 b 382 1015 343 1074 363 1050 b 399 993 386 1008 393 999 b 443 904 418 971 431 942 b 497 715 456 871 497 743 b 514 629 497 697 510 653 b 529 454 526 554 529 521 b 522 285 529 379 522 347 b 461 68 522 251 503 132 b 383 -67 449 49 419 -21 b 256 -176 333 -131 303 -162 b 146 -194 219 -187 169 -194 z "},"*":{"ha":649,"x_min":0,"x_max":0,"o":"m 229 526 b 160 583 201 526 160 556 b 193 643 160 601 193 626 b 164 675 193 651 183 661 b 113 740 132 696 113 717 b 175 783 113 769 142 783 b 235 772 199 783 221 772 b 268 814 256 772 263 790 b 324 872 278 847 301 872 b 393 813 350 872 381 849 b 428 782 403 789 418 782 b 476 789 432 782 460 789 b 536 750 501 789 536 771 b 499 710 536 739 519 721 b 469 682 478 699 469 697 b 476 658 469 671 471 665 b 513 576 510 610 513 596 b 467 536 513 554 494 536 b 382 569 426 536 421 536 b 340 599 351 597 347 599 b 293 564 328 599 313 586 b 229 526 283 551 250 526 z "},"+":{"ha":1408,"x_min":0,"x_max":0,"o":"m 713 99 b 671 122 700 99 686 106 b 643 221 646 150 643 174 b 638 278 643 256 640 269 b 632 393 635 286 635 307 b 622 647 628 558 622 563 b 631 775 622 718 631 743 b 664 838 631 813 638 838 b 782 738 693 838 756 786 b 794 613 793 719 794 713 b 793 551 794 581 793 565 b 794 501 793 522 794 519 b 779 308 794 400 783 371 b 772 190 775 263 772 247 b 713 99 772 106 721 99 z m 414 413 b 113 476 360 413 113 440 b 236 515 113 492 156 506 b 306 525 272 519 261 521 b 418 539 333 528 375 531 b 489 546 439 543 468 546 b 536 518 513 546 515 544 b 565 443 556 493 565 485 b 533 418 565 422 550 425 b 414 413 524 414 521 413 z m 953 418 b 915 433 949 418 944 418 b 858 476 896 443 858 454 b 882 519 858 489 869 506 b 942 551 907 547 914 551 b 1076 543 982 551 1018 551 b 1258 518 1150 532 1224 521 b 1296 493 1276 517 1296 506 b 1079 436 1296 469 1176 451 b 953 418 967 419 957 418 z "},",":{"ha":506,"x_min":0,"x_max":0,"o":"m 149 -201 b 113 -162 131 -201 113 -179 b 147 -74 113 -128 133 -103 b 207 39 168 -29 201 15 b 311 185 211 51 267 185 b 356 139 324 185 329 179 b 393 78 374 114 393 89 b 314 -49 393 43 329 -32 b 240 -135 290 -75 268 -107 b 149 -201 203 -171 168 -201 z "},"-":{"ha":1006,"x_min":0,"x_max":0,"o":"m 181 417 b 138 431 168 417 157 422 b 113 464 125 436 113 451 b 160 510 113 481 131 496 b 253 522 176 517 190 519 b 400 535 300 525 311 532 b 601 544 446 536 532 539 b 699 547 633 547 682 547 b 831 543 796 547 803 544 b 893 521 881 542 893 538 b 781 419 893 489 835 444 b 646 411 763 411 733 411 b 456 408 593 411 538 408 b 235 418 411 408 388 418 b 181 417 210 418 190 417 z "},".":{"ha":469,"x_min":0,"x_max":0,"o":"m 208 -24 b 142 -6 185 -24 156 -21 b 129 40 133 3 135 17 b 113 110 118 83 113 96 b 161 151 113 131 115 133 b 203 164 182 160 193 164 b 275 140 217 164 260 144 b 350 106 294 135 340 119 b 357 56 357 96 357 94 b 349 8 357 17 356 14 b 275 -14 339 1 331 -1 b 208 -24 236 -22 231 -24 z "},"/":{"ha":1160,"x_min":0,"x_max":0,"o":"m 147 -183 b 113 -158 140 -183 113 -171 b 231 101 113 -117 179 -12 b 361 317 243 129 269 181 b 438 449 382 349 421 418 b 519 615 458 489 486 542 b 567 685 524 624 532 631 b 628 793 585 715 604 753 b 729 972 658 846 690 899 b 879 1071 751 1015 746 1003 b 1000 1124 946 1106 982 1124 b 1047 1088 1031 1124 1047 1099 b 960 940 1047 1069 1000 1019 b 918 861 946 913 931 888 b 865 765 907 839 874 785 b 774 610 842 713 818 689 b 594 394 725 525 694 515 b 419 164 454 224 440 203 b 296 -33 410 144 324 6 b 147 -183 238 -117 174 -183 z "},":":{"ha":540,"x_min":0,"x_max":0,"o":"m 210 115 b 156 140 186 115 179 118 b 131 175 143 151 131 164 b 200 254 131 192 165 224 b 301 306 229 281 267 306 b 376 256 329 306 328 297 b 428 194 415 221 428 207 b 393 142 428 189 406 157 b 340 126 388 136 372 128 b 210 115 296 124 239 115 z m 306 499 b 179 539 278 499 194 533 b 113 582 150 549 113 569 b 183 650 113 599 132 621 b 283 688 210 665 263 688 b 342 654 292 688 324 669 b 406 585 399 606 406 604 b 375 542 406 568 393 558 b 306 499 353 519 321 499 z "},";":{"ha":518,"x_min":0,"x_max":0,"o":"m 349 457 b 271 468 321 457 303 458 b 193 524 233 481 193 506 b 231 590 193 543 206 567 b 331 656 268 624 306 656 b 399 582 400 656 394 619 b 406 529 401 563 406 543 b 400 496 406 518 404 507 b 349 457 390 464 379 457 z m 149 -208 b 113 -169 131 -208 113 -186 b 147 -81 113 -135 133 -110 b 207 32 168 -36 201 8 b 311 178 211 44 267 178 b 356 132 324 178 329 172 b 393 71 374 107 393 82 b 314 -56 393 36 329 -39 b 240 -142 290 -82 268 -114 b 149 -208 203 -178 168 -208 z "},"<":{"ha":732,"x_min":0,"x_max":0,"o":"m 586 124 b 526 156 579 124 553 140 b 449 232 510 165 465 213 b 336 335 424 261 385 301 b 194 390 292 365 232 388 b 139 417 181 392 158 403 b 113 461 122 428 113 447 b 139 501 113 476 133 493 b 218 568 150 519 176 546 b 368 700 315 621 293 651 b 568 814 393 717 513 778 b 601 832 589 828 593 832 b 619 801 611 832 619 819 b 536 663 619 751 586 724 b 429 551 497 615 469 585 b 388 481 404 531 388 499 b 507 346 388 469 417 438 b 581 251 542 313 568 283 b 603 151 593 224 603 169 b 586 124 603 131 593 124 z "},"=":{"ha":1358,"x_min":0,"x_max":0,"o":"m 426 249 b 278 254 315 249 326 253 b 115 286 143 258 115 260 b 261 396 115 338 246 390 b 339 407 288 404 307 407 b 481 404 393 407 447 404 b 617 407 526 404 593 407 b 901 390 724 407 806 394 b 1104 385 975 388 1001 385 b 1157 372 1128 385 1133 383 b 1193 331 1190 357 1193 343 b 1124 278 1193 311 1168 290 b 971 267 1092 268 1065 267 b 804 258 936 267 965 260 b 426 249 718 257 446 249 z m 207 565 b 153 578 192 565 167 572 b 113 615 119 590 113 604 b 300 679 113 651 189 679 b 331 678 319 679 326 678 b 368 681 344 678 357 679 b 726 697 422 689 436 690 b 982 707 843 700 818 707 b 1185 701 1063 707 1131 701 b 1246 676 1218 701 1246 697 b 1189 615 1246 661 1232 640 b 1068 564 1139 586 1089 568 b 878 558 1054 561 943 558 b 701 554 781 558 735 554 b 639 556 685 554 668 556 b 360 568 543 556 446 568 b 207 565 254 568 236 565 z "},">":{"ha":731,"x_min":0,"x_max":0,"o":"m 133 113 b 113 144 121 113 113 131 b 210 294 113 185 143 213 b 342 453 281 383 342 400 b 250 569 342 483 331 489 b 135 742 165 654 147 672 b 129 789 132 757 129 776 b 143 815 129 807 133 815 b 186 797 156 815 172 804 b 256 736 233 772 242 750 b 368 628 278 715 315 668 b 507 554 394 608 435 574 b 618 493 574 536 618 522 b 585 426 618 474 614 464 b 514 374 571 408 550 393 b 436 313 478 354 456 342 b 393 263 418 286 406 274 b 188 140 357 231 243 178 b 133 113 158 121 143 113 z "},"?":{"ha":817,"x_min":0,"x_max":0,"o":"m 351 -10 b 275 31 336 -10 324 -6 b 235 81 243 54 235 67 b 279 163 235 101 242 110 b 310 194 296 188 301 194 b 383 172 318 194 349 183 b 469 107 401 167 469 128 b 424 51 469 101 464 93 b 351 -10 371 -4 369 -10 z m 306 267 b 215 414 267 267 215 333 b 236 486 215 438 222 465 b 389 603 258 518 378 597 b 496 792 435 624 496 729 b 435 901 496 833 435 892 b 492 967 435 919 451 967 b 572 951 513 967 533 967 b 692 857 619 933 678 904 b 704 785 700 829 704 803 b 663 657 704 733 688 693 b 506 533 632 613 569 565 b 340 331 358 460 340 431 b 335 281 340 289 340 285 b 306 267 326 272 317 267 z m 153 782 b 113 813 139 782 113 797 b 175 890 113 822 121 849 b 246 935 214 921 221 925 b 308 950 276 946 299 950 b 350 907 331 950 340 939 b 357 869 356 892 357 882 b 344 832 357 847 354 838 b 250 806 338 828 289 813 b 153 782 228 801 169 782 z "},"@":{"ha":1489,"x_min":0,"x_max":0,"o":"m 572 42 b 435 54 515 42 481 43 b 361 82 404 63 372 75 b 244 178 324 106 281 138 b 131 336 213 214 150 289 b 113 444 115 379 113 392 b 126 524 113 461 122 494 b 143 618 131 564 138 590 b 175 713 147 643 160 669 b 243 794 188 746 210 757 b 322 858 272 826 293 840 b 401 899 360 882 383 892 b 535 926 433 911 493 926 b 589 904 556 926 563 922 b 617 874 604 893 617 881 b 556 829 617 858 586 842 b 493 799 531 819 500 806 b 464 781 488 792 481 792 b 342 681 428 756 368 711 b 293 583 307 642 304 626 b 272 469 281 539 272 496 b 296 357 272 443 289 371 b 489 147 369 219 418 192 b 576 121 514 132 536 124 b 644 88 624 117 644 108 b 639 68 644 82 643 76 b 572 42 625 44 618 42 z m 914 40 b 878 68 897 40 878 49 b 907 124 878 83 888 108 b 993 158 922 135 963 151 b 1140 239 1050 172 1106 203 b 1199 325 1156 256 1186 300 b 1226 479 1218 363 1226 378 b 1206 553 1226 510 1218 526 b 1110 707 1171 638 1131 689 b 1001 782 1104 713 1058 747 b 933 833 965 804 947 818 b 919 869 924 844 919 850 b 940 892 919 882 924 885 b 1036 897 954 897 956 897 b 1108 883 1069 897 1083 890 b 1193 850 1144 872 1156 872 b 1246 803 1207 842 1232 821 b 1294 743 1268 776 1285 764 b 1318 710 1297 738 1308 722 b 1356 614 1336 688 1346 660 b 1376 474 1361 579 1376 529 b 1365 339 1376 431 1372 372 b 1321 240 1356 299 1347 283 b 1256 163 1306 214 1283 186 b 1093 68 1214 126 1154 88 b 965 46 1057 56 976 50 b 914 40 960 44 931 40 z m 424 301 b 400 315 413 301 400 304 b 454 397 400 328 428 358 b 471 428 460 407 458 413 b 550 561 506 468 518 483 b 575 604 556 576 569 594 b 631 693 592 635 614 669 b 689 728 642 711 649 714 b 776 750 708 735 765 750 b 793 739 785 750 793 746 b 782 725 793 738 785 728 b 707 618 758 704 732 664 b 656 543 692 589 675 561 b 576 450 650 538 593 471 b 551 413 571 443 558 426 b 424 301 518 354 458 301 z m 1119 318 b 1036 353 1106 318 1047 346 b 968 446 1022 363 988 403 b 864 613 963 460 892 576 b 835 681 850 631 835 661 b 850 710 835 707 840 710 b 879 700 856 710 868 706 b 967 613 922 676 940 654 b 1040 506 993 568 1007 560 b 1093 418 1063 469 1083 447 b 1124 375 1101 397 1114 385 b 1146 343 1136 363 1146 349 b 1119 318 1146 335 1129 318 z m 657 411 b 631 431 643 411 631 414 b 675 500 631 456 656 500 b 743 492 686 500 731 492 b 849 485 764 492 786 485 b 913 475 894 485 903 483 b 924 457 919 469 924 463 b 901 442 924 449 921 446 b 831 432 876 436 847 432 b 788 425 818 432 806 428 b 726 418 764 421 743 418 b 657 411 714 418 668 411 z "},"[":{"ha":803,"x_min":0,"x_max":0,"o":"m 372 -219 b 343 -172 351 -219 343 -211 b 353 -103 343 -131 353 -131 b 397 -64 353 -75 365 -64 b 525 -75 421 -64 461 -71 b 667 -112 558 -78 654 -99 b 689 -167 672 -119 689 -161 b 610 -190 689 -175 667 -186 b 478 -210 592 -192 518 -204 b 372 -219 442 -215 390 -219 z m 231 -207 b 160 -182 211 -207 165 -189 b 149 -40 153 -172 149 -99 b 151 43 149 -7 151 0 b 143 211 151 150 143 168 b 146 378 143 232 146 322 b 128 625 146 476 128 563 b 121 694 128 676 126 685 b 118 804 118 699 118 711 b 113 975 118 925 113 932 b 129 1114 113 1038 124 1075 b 172 1154 132 1147 142 1154 b 314 1057 200 1154 274 1114 b 319 1028 318 1050 319 1042 b 313 907 319 1004 313 961 b 306 797 313 872 313 817 b 279 610 299 781 279 651 b 274 446 279 554 274 511 b 279 315 274 389 279 347 b 268 115 279 242 268 221 b 272 -172 268 -40 272 -162 b 231 -207 272 -189 254 -207 z m 431 1017 b 378 1043 407 1017 390 1024 b 343 1104 364 1065 343 1101 b 431 1153 343 1121 396 1128 b 471 1171 451 1167 465 1171 b 553 1154 493 1171 531 1158 b 690 1050 583 1147 690 1074 b 431 1017 690 1031 626 1017 z "},"\\":{"ha":1076,"x_min":0,"x_max":0,"o":"m 939 -179 b 921 -174 933 -179 928 -178 b 768 3 881 -147 881 -131 b 674 128 707 76 706 85 b 606 219 646 165 633 189 b 440 440 600 226 481 379 b 296 665 424 465 386 517 b 139 897 207 813 174 828 b 113 950 121 931 113 936 b 181 1072 113 965 125 1011 b 204 1101 190 1083 196 1090 b 243 1124 215 1119 224 1124 b 353 1007 267 1124 300 1093 b 426 901 376 967 403 931 b 550 675 467 851 517 776 b 725 357 575 600 668 442 b 794 231 756 313 781 251 b 933 -44 822 188 872 57 b 964 -132 950 -71 964 -110 b 939 -179 964 -162 951 -179 z "},"]":{"ha":831,"x_min":0,"x_max":0,"o":"m 326 -228 b 113 -108 221 -228 113 -126 b 283 -79 113 -83 210 -83 b 374 -75 315 -78 365 -75 b 436 -119 400 -75 426 -92 b 454 -156 442 -133 454 -146 b 369 -214 454 -169 401 -199 b 326 -228 344 -226 339 -228 z m 663 -203 b 619 -185 654 -203 635 -193 b 517 -68 569 -156 521 -81 b 511 -37 513 -60 511 -51 b 517 78 511 0 517 3 b 532 260 517 131 531 238 b 539 461 536 300 539 378 b 532 661 539 588 532 644 b 540 756 532 714 540 740 b 536 989 540 793 536 907 b 532 1074 536 1032 532 1061 b 550 1136 532 1111 533 1119 b 588 1153 558 1144 568 1153 b 668 1138 606 1153 650 1146 b 685 1096 682 1132 685 1118 b 693 1060 685 1086 693 1074 b 686 989 693 1056 690 1033 b 678 849 683 963 678 882 b 681 685 678 792 681 732 b 690 243 681 338 690 294 b 708 76 690 161 708 139 b 718 -36 708 19 718 18 b 703 -161 718 -107 703 -131 b 663 -203 703 -186 678 -203 z m 415 1006 b 331 1011 381 1006 383 1008 b 168 1039 274 1014 218 1024 b 122 1076 147 1046 142 1049 b 114 1093 118 1083 114 1089 b 149 1125 114 1104 135 1122 b 293 1146 194 1135 254 1136 b 403 1158 306 1149 354 1153 b 432 1161 414 1160 426 1161 b 463 1143 447 1161 463 1150 b 458 1092 463 1122 458 1108 b 450 1042 458 1075 450 1060 b 415 1006 450 1010 436 1006 z "},"_":{"ha":1431,"x_min":0,"x_max":0,"o":"m 985 -274 b 600 -275 856 -274 624 -275 b 481 -269 567 -275 511 -271 b 339 -267 449 -268 394 -267 b 219 -268 276 -267 253 -268 b 165 -258 200 -268 185 -265 b 113 -218 129 -246 113 -236 b 206 -169 113 -201 160 -176 b 322 -162 224 -167 260 -162 b 576 -150 392 -162 422 -150 b 1006 -139 685 -150 892 -139 b 1289 -144 1117 -139 1256 -140 b 1318 -167 1311 -147 1318 -151 b 1272 -211 1318 -179 1315 -186 b 1161 -261 1242 -231 1197 -249 b 985 -274 1128 -272 1108 -274 z "},"`":{"ha":693,"x_min":0,"x_max":0,"o":"m 546 1065 b 426 1103 521 1065 472 1089 b 272 1147 344 1126 343 1138 b 167 1172 218 1154 207 1163 b 113 1203 144 1178 113 1181 b 165 1244 113 1214 117 1218 b 307 1307 268 1299 283 1307 b 375 1268 340 1307 343 1294 b 488 1174 406 1242 417 1231 b 581 1082 560 1115 581 1093 b 546 1065 581 1074 567 1065 z "},"{":{"ha":744,"x_min":0,"x_max":0,"o":"m 557 -237 b 522 -233 547 -237 535 -236 b 381 -42 438 -214 404 -129 b 349 63 372 -7 367 26 b 303 275 314 136 308 225 b 211 378 299 306 265 350 b 113 479 126 422 113 438 b 147 518 113 493 118 499 b 258 644 190 546 225 571 b 321 804 285 703 311 724 b 346 899 324 822 342 879 b 399 1054 354 928 381 1026 b 486 1150 418 1086 454 1121 b 535 1172 503 1165 522 1172 b 600 1156 549 1172 593 1163 b 632 1083 615 1143 632 1103 b 603 1044 632 1072 625 1064 b 504 894 553 1001 529 963 b 439 711 478 826 472 772 b 361 579 401 646 378 600 b 326 483 333 546 326 517 b 435 267 326 438 406 351 b 451 203 443 242 444 242 b 478 125 456 172 457 167 b 589 -97 496 83 506 -44 b 631 -157 622 -119 631 -129 b 557 -237 631 -197 610 -237 z "},"|":{"ha":433,"x_min":0,"x_max":0,"o":"m 254 -304 b 168 -257 224 -304 185 -272 b 128 -122 139 -229 128 -169 b 129 -69 128 -92 129 -81 b 117 125 129 0 121 103 b 114 276 114 135 114 188 b 113 424 114 351 113 418 b 121 685 113 432 121 524 b 114 1063 121 1001 114 989 b 122 1175 114 1143 119 1143 b 168 1276 131 1258 133 1276 b 310 1176 226 1276 300 1196 b 321 1117 318 1161 321 1156 b 318 992 321 1057 318 1021 b 300 778 318 954 317 890 b 296 735 297 761 296 749 b 300 547 296 726 300 664 b 308 293 300 365 308 367 b 303 149 308 250 303 214 b 304 -94 303 111 304 -29 b 310 -246 304 -210 310 -208 b 304 -282 310 -261 306 -279 b 254 -304 289 -297 269 -304 z "},"}":{"ha":747,"x_min":0,"x_max":0,"o":"m 224 -222 b 124 -132 171 -222 124 -181 b 158 -78 124 -114 128 -107 b 265 124 231 -11 239 56 b 317 267 279 158 271 178 b 422 481 390 415 422 428 b 361 608 422 510 408 533 b 293 767 339 644 303 701 b 247 900 286 829 257 840 b 203 1011 242 940 218 981 b 158 1056 193 1028 186 1040 b 113 1115 115 1079 113 1094 b 128 1160 113 1129 117 1147 b 207 1181 140 1174 147 1181 b 335 1067 251 1181 311 1139 b 368 961 343 1039 357 1006 b 379 929 371 951 375 938 b 428 788 408 865 424 819 b 461 660 436 711 443 683 b 567 583 489 625 511 613 b 635 503 618 556 635 535 b 542 399 635 479 586 464 b 493 326 519 368 497 344 b 454 254 488 311 463 271 b 422 117 443 235 439 169 b 396 1 406 60 399 13 b 328 -139 389 -33 367 -96 b 224 -222 290 -181 261 -222 z "},"€":{"ha":963,"x_min":0,"x_max":0,"o":"m 758 -22 b 724 -17 749 -22 739 -19 b 542 44 665 -7 606 13 b 382 132 485 72 458 83 b 294 201 318 174 331 168 b 183 326 229 263 214 276 b 122 483 151 381 131 425 b 113 553 118 518 113 532 b 256 815 113 635 136 718 b 483 922 319 867 389 910 b 561 931 533 929 544 931 b 743 911 653 931 669 922 b 850 865 804 901 850 885 b 743 769 850 849 764 778 b 668 764 736 767 732 765 b 549 754 575 761 578 754 b 371 682 511 754 418 733 b 322 611 360 669 340 644 b 288 489 304 575 288 518 b 294 421 288 468 292 431 b 401 246 318 357 343 293 b 449 213 415 235 431 226 b 536 161 506 172 506 181 b 682 108 558 146 646 115 b 806 57 793 86 806 76 b 758 -22 806 21 793 -22 z m 731 417 b 638 428 699 417 697 421 b 456 460 557 438 519 443 b 361 504 376 479 361 485 b 493 544 361 538 433 529 b 624 560 522 551 554 547 b 746 568 646 564 719 568 b 793 522 775 568 793 551 b 778 469 793 497 781 485 b 731 417 771 446 751 417 z "},"ƒ":{"ha":1074,"x_min":0,"x_max":0,"o":"m 157 -126 b 113 -89 140 -126 113 -104 b 185 -46 113 -72 179 -47 b 250 -19 201 -42 239 -24 b 343 43 286 -6 319 15 b 389 114 358 61 382 104 b 426 192 417 157 422 183 b 460 343 438 215 453 274 b 479 471 468 418 478 461 b 493 672 481 494 493 639 b 500 767 494 719 500 749 b 585 947 500 851 529 883 b 671 1013 608 975 635 994 b 772 1039 690 1022 756 1039 b 785 1022 782 1039 785 1033 b 768 978 785 1001 779 983 b 717 933 760 972 732 951 b 678 881 696 911 689 900 b 646 763 656 846 646 813 b 647 718 646 744 647 729 b 642 671 647 697 644 692 b 626 558 638 649 631 585 b 622 475 622 532 622 504 b 610 335 622 386 613 374 b 593 228 607 299 603 264 b 514 33 574 149 531 53 b 467 -8 500 18 482 4 b 367 -69 418 -46 385 -58 b 250 -108 347 -81 303 -99 b 157 -126 210 -115 174 -126 z m 283 501 b 260 519 274 501 260 511 b 293 551 260 526 268 532 b 431 639 379 618 410 639 b 447 635 439 639 443 639 b 453 557 453 628 453 625 b 436 536 453 543 450 542 b 283 501 400 522 313 501 z m 703 611 b 676 640 682 611 676 622 b 736 713 676 703 685 696 b 843 728 761 721 825 728 b 868 714 860 728 868 724 b 817 674 868 704 831 678 b 785 653 813 672 793 658 b 736 625 754 632 754 639 b 703 611 726 617 713 611 z m 921 918 b 903 933 910 918 911 924 b 832 975 889 950 864 975 b 804 992 813 975 804 986 b 865 1042 804 1015 832 1042 b 928 1032 876 1042 913 1039 b 961 982 950 1021 961 1007 b 951 935 961 963 960 944 b 921 918 942 924 929 918 z "},"•":{"ha":556,"x_min":0,"x_max":0,"o":"m 324 324 b 207 363 307 324 268 338 b 113 428 161 382 113 404 b 218 522 113 450 151 485 b 304 554 251 540 293 554 b 396 486 311 554 376 507 b 443 431 422 457 443 442 b 393 367 443 418 417 390 b 324 324 367 340 335 324 z "},"´":{"ha":639,"x_min":0,"x_max":0,"o":"m 133 1047 b 113 1068 124 1047 113 1057 b 138 1096 113 1072 122 1082 b 239 1164 168 1124 221 1153 b 371 1244 268 1183 296 1199 b 483 1300 411 1269 468 1300 b 518 1232 503 1300 506 1289 b 526 1169 524 1201 526 1183 b 456 1107 526 1143 508 1125 b 296 1072 404 1089 338 1076 b 133 1047 253 1068 142 1047 z "},"ˆ":{"ha":971,"x_min":0,"x_max":0,"o":"m 139 1049 b 113 1069 128 1049 113 1053 b 336 1274 113 1106 254 1217 b 481 1346 418 1331 460 1346 b 538 1328 493 1346 519 1339 b 701 1225 606 1283 656 1257 b 858 1076 789 1165 858 1096 b 835 1063 858 1069 858 1063 b 657 1124 806 1063 736 1088 b 499 1172 613 1144 540 1172 b 218 1075 429 1172 406 1146 b 139 1049 188 1064 146 1049 z "},"˜":{"ha":956,"x_min":0,"x_max":0,"o":"m 629 1074 b 515 1094 583 1074 543 1082 b 326 1132 469 1114 371 1132 b 193 1119 278 1132 231 1126 b 146 1110 164 1114 156 1110 b 113 1142 136 1110 113 1115 b 200 1233 113 1172 156 1217 b 340 1263 251 1253 278 1263 b 453 1247 388 1263 431 1260 b 517 1203 478 1232 493 1221 b 629 1168 550 1176 568 1168 b 743 1183 668 1168 672 1183 b 843 1153 807 1183 843 1176 b 831 1129 843 1146 840 1138 b 717 1089 814 1114 781 1110 b 629 1074 686 1079 667 1074 z "},"¨":{"ha":874,"x_min":0,"x_max":0,"o":"m 629 1044 b 568 1075 613 1044 592 1058 b 522 1128 543 1093 522 1115 b 599 1256 522 1143 574 1231 b 633 1278 613 1269 622 1278 b 707 1229 651 1278 681 1257 b 761 1143 728 1208 761 1163 b 714 1092 761 1135 757 1129 b 629 1044 679 1063 650 1044 z m 211 1049 b 175 1063 207 1049 203 1050 b 124 1119 133 1082 126 1085 b 113 1222 122 1139 113 1182 b 140 1264 113 1243 115 1247 b 188 1285 161 1278 179 1285 b 278 1238 206 1285 236 1268 b 350 1147 342 1189 350 1169 b 307 1103 350 1128 335 1122 b 211 1049 251 1061 229 1050 z "},"°":{"ha":718,"x_min":0,"x_max":0,"o":"m 293 576 b 225 594 274 576 249 583 b 167 638 193 608 182 618 b 113 751 121 692 113 701 b 143 874 113 797 125 844 b 217 933 157 896 188 915 b 293 965 265 964 279 965 b 340 929 325 965 340 946 b 326 892 340 904 338 899 b 268 854 311 883 301 875 b 233 817 250 843 239 833 b 225 751 228 797 225 776 b 235 706 225 719 225 718 b 313 657 265 668 278 660 b 343 629 343 654 343 642 b 293 576 343 606 325 576 z m 438 575 b 394 619 417 575 394 600 b 467 685 394 653 447 649 b 494 763 493 738 494 749 b 481 842 494 821 486 835 b 426 878 472 856 463 863 b 382 918 396 890 382 901 b 422 963 382 943 406 963 b 499 940 436 963 475 950 b 603 813 571 911 603 865 b 606 749 603 796 606 775 b 572 663 606 725 581 682 b 438 575 556 618 492 575 z "},"‰":{"ha":1928,"x_min":0,"x_max":0,"o":"m 1503 7 b 1435 25 1483 7 1458 14 b 1376 68 1403 39 1392 49 b 1322 182 1331 122 1322 132 b 1353 304 1322 228 1335 275 b 1426 364 1367 326 1397 346 b 1503 396 1475 394 1489 396 b 1550 360 1535 396 1550 376 b 1536 322 1550 335 1547 329 b 1478 285 1521 314 1511 306 b 1443 247 1460 274 1449 264 b 1435 182 1438 228 1435 207 b 1444 136 1435 150 1435 149 b 1522 88 1475 99 1488 90 b 1553 60 1553 85 1553 72 b 1503 7 1553 36 1535 7 z m 1647 6 b 1604 50 1626 6 1604 31 b 1676 115 1604 83 1657 79 b 1704 193 1703 168 1704 179 b 1690 272 1704 251 1696 265 b 1636 308 1682 286 1672 293 b 1592 349 1606 321 1592 332 b 1632 393 1592 374 1615 393 b 1708 371 1646 393 1685 381 b 1813 243 1781 342 1813 296 b 1815 179 1813 226 1815 206 b 1782 93 1815 156 1790 113 b 1647 6 1765 49 1701 6 z m 929 6 b 875 18 917 6 896 11 b 800 65 844 28 822 38 b 743 176 746 133 743 138 b 782 314 743 238 756 276 b 853 367 794 331 821 349 b 922 396 886 386 896 396 b 971 356 949 396 971 385 b 913 294 971 326 960 319 b 856 183 869 272 856 247 b 869 133 856 151 856 150 b 943 88 900 96 908 90 b 975 61 972 85 975 78 b 929 6 975 33 956 6 z m 1072 6 b 1028 49 1051 6 1028 24 b 1057 83 1028 67 1035 75 b 1115 154 1085 94 1096 106 b 1126 199 1122 174 1126 179 b 1114 272 1126 251 1122 260 b 1053 311 1104 286 1097 293 b 1015 346 1028 321 1015 331 b 1054 393 1015 369 1035 393 b 1181 346 1090 393 1150 364 b 1231 278 1194 338 1222 303 b 1239 181 1233 267 1239 192 b 1228 143 1239 165 1235 161 b 1169 49 1199 75 1196 72 b 1072 6 1143 24 1101 6 z m 296 560 b 274 564 292 560 283 561 b 206 588 249 569 224 578 b 157 635 190 596 181 604 b 113 733 115 688 113 697 b 135 846 113 775 124 824 b 243 935 151 876 186 904 b 293 950 263 944 278 950 b 342 913 322 950 342 929 b 332 882 342 901 339 888 b 286 850 324 875 301 858 b 240 814 265 839 250 828 b 222 739 231 801 222 760 b 246 676 222 710 222 707 b 313 642 268 649 285 643 b 344 614 336 640 344 633 b 296 560 344 586 318 560 z m 442 560 b 396 603 418 560 396 581 b 426 638 396 618 404 628 b 468 675 439 643 458 656 b 494 743 492 719 494 729 b 479 831 494 806 490 815 b 422 864 468 844 453 851 b 383 903 388 879 383 886 b 422 947 383 925 403 947 b 558 890 456 947 531 915 b 606 743 599 854 606 822 b 569 650 606 703 578 656 b 556 631 564 646 558 638 b 514 583 550 613 543 603 b 442 560 489 568 460 560 z m 322 6 b 296 35 307 6 296 19 b 367 181 296 54 311 100 b 517 394 447 299 449 308 b 743 704 614 521 664 583 b 826 817 790 775 806 796 b 906 861 861 850 876 861 b 1028 806 956 861 1028 839 b 1011 758 1028 797 1022 788 b 931 650 990 704 981 692 b 781 471 849 581 831 543 b 733 390 750 426 753 414 b 638 310 718 371 656 322 b 539 203 596 283 576 256 b 436 99 499 146 474 122 b 322 6 396 75 346 6 z "},"„":{"ha":686,"x_min":0,"x_max":0,"o":"m 169 -193 b 138 -185 157 -193 151 -192 b 113 -126 118 -176 113 -164 b 121 29 113 -67 121 -10 b 119 126 121 51 119 76 b 160 214 119 199 147 214 b 218 181 176 214 183 203 b 275 135 233 172 268 149 b 281 100 281 126 281 124 b 243 -56 281 22 256 10 b 169 -193 231 -119 188 -193 z m 456 -186 b 435 -179 451 -186 446 -185 b 404 -114 418 -169 404 -153 b 408 -54 404 -101 407 -85 b 414 43 410 -21 414 13 b 408 138 414 86 408 122 b 425 197 408 154 417 179 b 450 219 432 213 439 219 b 489 203 463 219 472 213 b 557 157 517 186 549 165 b 574 125 569 144 574 139 b 560 35 574 68 567 63 b 536 -49 554 6 542 -22 b 510 -125 531 -71 519 -104 b 456 -186 492 -162 475 -186 z "},"®":{"ha":1057,"x_min":0,"x_max":0,"o":"m 400 408 b 292 426 356 408 321 415 b 156 532 243 444 197 486 b 118 597 146 543 124 581 b 113 653 114 613 113 629 b 139 799 113 688 128 771 b 197 875 158 847 165 843 b 268 921 218 894 228 908 b 365 943 325 939 346 940 b 386 944 374 944 381 944 b 449 910 421 944 449 917 b 410 886 449 901 443 896 b 279 817 358 869 306 839 b 231 754 250 793 240 783 b 215 674 219 724 215 697 b 272 543 215 628 233 586 b 343 486 293 521 307 507 b 417 460 376 467 390 461 b 468 439 468 456 468 447 b 460 425 468 433 465 431 b 400 408 449 413 431 408 z m 664 418 b 631 435 650 418 631 419 b 706 490 631 450 643 471 b 825 574 764 508 799 528 b 846 665 842 603 846 624 b 810 758 846 692 836 721 b 710 853 782 799 767 819 b 654 910 672 875 654 893 b 706 932 654 924 658 932 b 757 926 724 932 742 931 b 903 839 824 908 876 879 b 944 674 925 806 944 732 b 907 524 944 575 943 572 b 832 460 882 489 864 481 b 715 422 797 436 761 426 b 664 418 699 421 681 418 z m 681 519 b 592 557 661 519 631 538 b 518 603 560 572 524 597 b 496 656 517 606 496 649 b 531 671 496 658 501 671 b 599 732 569 671 599 689 b 524 782 599 757 571 774 b 499 793 506 785 499 788 b 508 810 499 797 504 803 b 535 825 519 824 524 825 b 631 797 568 825 608 814 b 676 749 658 778 676 772 b 626 674 676 719 668 706 b 586 631 596 650 586 640 b 646 574 586 610 604 608 b 706 533 681 546 706 549 b 681 519 706 529 693 519 z m 406 531 b 393 550 396 531 393 536 b 397 610 393 558 397 586 b 390 736 397 628 390 657 b 393 818 390 810 390 814 b 417 829 394 821 406 829 b 443 818 425 829 433 826 b 463 760 463 804 463 803 b 446 629 463 689 446 714 b 447 599 446 617 447 607 b 406 531 447 571 422 531 z "},"©":{"ha":1060,"x_min":0,"x_max":0,"o":"m 372 404 b 332 411 358 404 353 406 b 235 456 289 422 271 431 b 138 558 211 472 156 525 b 113 646 118 592 113 614 b 129 754 113 665 121 710 b 147 814 131 772 144 807 b 178 864 156 836 163 847 b 263 915 200 889 231 904 b 374 939 315 933 356 939 b 446 913 428 939 446 921 b 371 875 446 904 429 890 b 296 836 333 865 317 851 b 215 669 222 779 215 706 b 292 521 215 615 249 561 b 356 476 318 496 331 489 b 435 454 379 465 393 458 b 468 435 467 451 468 444 b 372 404 468 408 446 404 z m 656 414 b 631 435 642 414 631 422 b 708 488 631 451 657 471 b 831 581 774 508 808 533 b 844 640 840 599 844 618 b 831 714 844 685 844 686 b 717 846 799 781 778 808 b 656 908 672 872 656 888 b 692 929 656 928 658 929 b 840 889 758 929 806 911 b 896 842 881 864 882 863 b 939 736 917 811 931 783 b 947 642 944 706 947 693 b 936 567 947 606 943 588 b 867 476 918 518 876 483 b 681 415 806 435 757 418 b 656 414 668 415 661 414 z m 596 529 b 464 549 525 529 504 540 b 374 582 413 560 390 572 b 308 683 336 606 308 647 b 328 724 308 701 318 708 b 358 758 336 738 351 753 b 435 797 365 763 406 786 b 622 825 485 815 525 825 b 643 817 638 825 643 821 b 621 794 643 813 633 804 b 578 776 608 783 604 781 b 496 758 553 772 499 760 b 418 714 481 753 424 719 b 401 674 411 707 401 686 b 450 603 401 661 411 621 b 606 561 476 590 585 561 b 635 550 625 561 635 557 b 596 529 635 535 618 529 z "},"™":{"ha":1426,"x_min":0,"x_max":0,"o":"m 368 414 b 331 421 354 414 347 417 b 235 464 293 429 271 438 b 160 535 217 478 182 510 b 113 651 129 569 113 600 b 117 703 113 668 114 688 b 138 801 126 760 132 790 b 150 833 143 813 144 819 b 258 922 164 872 211 908 b 374 949 308 938 344 949 b 418 942 399 949 400 949 b 444 922 436 935 444 931 b 368 883 444 911 422 899 b 285 836 331 872 317 865 b 225 746 253 804 240 790 b 214 681 218 724 214 700 b 260 563 214 640 225 607 b 356 485 293 521 311 508 b 428 464 375 474 396 467 b 467 444 456 461 467 460 b 460 428 467 440 464 435 b 368 414 454 418 439 414 z m 1043 418 b 1014 435 1029 418 1014 419 b 1090 489 1014 454 1032 468 b 1176 538 1128 503 1157 514 b 1226 689 1218 589 1226 613 b 1165 824 1226 724 1190 797 b 1100 874 1153 836 1131 856 b 1056 922 1069 890 1056 907 b 1076 944 1056 942 1056 944 b 1213 908 1133 944 1169 933 b 1283 826 1244 889 1264 868 b 1314 663 1306 781 1314 725 b 1289 550 1314 613 1310 593 b 1201 463 1272 517 1243 488 b 1043 418 1146 428 1088 418 z m 668 496 b 650 517 660 496 657 497 b 644 558 644 531 644 536 b 643 624 644 579 644 607 b 632 768 639 681 632 742 b 665 819 632 785 644 819 b 683 814 672 819 679 817 b 708 764 700 806 708 793 b 706 719 708 751 706 739 b 701 654 706 706 703 675 b 668 496 696 563 688 496 z m 444 515 b 433 561 436 515 433 517 b 428 613 433 579 428 599 b 411 744 428 685 411 728 b 431 756 411 754 419 756 b 488 726 435 756 469 743 b 497 707 493 721 497 719 b 486 603 497 672 486 667 b 475 544 486 563 486 561 b 444 515 463 526 453 515 z m 1049 525 b 1031 564 1036 525 1031 556 b 1021 685 1031 581 1024 571 b 1018 790 1019 738 1018 779 b 1025 807 1018 794 1021 800 b 1053 833 1038 829 1043 833 b 1097 771 1064 833 1097 796 b 1090 736 1097 765 1094 750 b 1081 661 1083 721 1082 711 b 1067 535 1078 547 1074 543 b 1049 525 1061 528 1056 525 z m 869 607 b 803 678 847 607 833 649 b 772 707 796 683 783 697 b 732 760 749 729 732 750 b 763 797 732 785 754 797 b 806 772 776 797 797 790 b 854 699 815 754 831 729 b 892 618 868 679 892 628 b 869 607 892 608 878 607 z m 910 632 b 893 661 901 632 893 650 b 981 788 893 672 971 788 b 993 779 982 788 986 786 b 999 749 999 775 999 769 b 968 685 999 726 996 717 b 910 632 929 642 915 632 z m 340 767 b 300 806 332 767 300 801 b 354 832 300 817 324 832 b 417 838 383 832 413 838 b 457 835 421 838 442 835 b 496 836 468 835 479 836 b 526 831 507 836 514 836 b 600 789 557 817 600 804 b 581 774 600 785 593 774 b 506 790 558 774 524 790 b 431 783 481 790 438 785 b 357 771 404 776 378 775 b 340 767 347 768 343 767 z "},"¢":{"ha":1004,"x_min":0,"x_max":0,"o":"m 617 -276 b 563 -158 597 -276 578 -231 b 547 -99 558 -140 553 -121 b 540 -65 544 -86 540 -78 b 554 -36 540 -54 546 -47 b 594 -1 574 -7 589 -1 b 668 -40 611 -1 665 -31 b 671 -71 669 -47 671 -54 b 640 -249 671 -118 658 -162 b 617 -276 636 -265 631 -276 z m 626 31 b 456 65 572 31 572 43 b 253 175 394 76 331 113 b 171 264 231 193 190 236 b 118 426 143 304 131 343 b 113 481 117 444 113 456 b 121 551 113 511 118 524 b 160 658 131 608 143 631 b 269 781 192 710 253 768 b 357 839 301 801 331 824 b 521 889 410 868 446 875 b 582 894 543 893 561 894 b 703 886 614 894 674 886 b 882 857 754 886 868 868 b 892 842 888 853 892 849 b 838 783 892 825 856 792 b 813 779 829 779 819 779 b 711 788 793 779 763 788 b 643 779 699 788 672 788 b 513 739 613 771 544 751 b 404 678 471 722 419 690 b 290 554 342 628 306 590 b 268 467 281 532 268 485 b 331 318 268 425 297 351 b 440 247 349 299 389 275 b 742 153 531 197 665 157 b 838 93 819 149 838 111 b 758 43 838 72 803 53 b 626 31 738 39 654 31 z m 594 239 b 554 361 572 239 558 290 b 544 553 550 418 544 439 b 557 694 544 686 550 690 b 578 701 565 700 569 701 b 632 654 596 701 617 681 b 688 561 665 603 688 601 b 646 336 688 510 656 372 b 594 239 626 256 614 239 z m 565 943 b 540 983 544 943 540 958 b 547 1033 540 1000 547 1024 b 575 1151 547 1039 564 1108 b 596 1197 582 1178 585 1197 b 629 1157 608 1197 617 1186 b 672 1022 658 1090 661 1082 b 678 976 676 1000 678 986 b 621 950 678 957 668 956 b 565 943 579 946 579 943 z "},"£":{"ha":1125,"x_min":0,"x_max":0,"o":"m 197 18 b 171 26 179 18 171 18 b 225 94 171 35 193 63 b 290 172 243 114 267 139 b 367 281 324 221 349 251 b 414 428 397 333 407 367 b 415 456 415 439 415 447 b 390 539 415 478 411 490 b 367 649 371 582 367 601 b 383 782 367 708 368 740 b 422 831 394 814 406 831 b 550 769 444 831 517 792 b 564 753 563 761 564 757 b 533 693 564 744 533 711 b 535 675 533 688 535 683 b 550 590 535 663 540 624 b 564 506 563 550 564 529 b 535 338 564 467 557 392 b 474 236 513 285 490 260 b 343 78 431 174 400 119 b 293 50 331 68 331 67 b 197 18 247 29 211 18 z m 842 22 b 743 29 803 22 786 24 b 553 42 656 39 604 42 b 422 35 493 42 431 35 b 401 44 410 35 401 39 b 436 90 401 50 411 65 b 456 111 444 99 453 104 b 543 128 464 125 469 128 b 715 138 581 128 646 133 b 950 147 738 139 915 147 b 1013 122 960 147 1013 132 b 981 75 1013 117 996 99 b 935 32 965 50 953 39 b 842 22 918 25 881 22 z m 328 400 b 261 413 322 400 304 407 b 113 444 131 431 113 436 b 128 463 113 451 118 458 b 253 486 136 467 215 482 b 290 492 268 488 281 489 b 332 493 297 493 314 493 b 375 461 374 493 375 492 b 328 400 375 442 353 400 z m 618 408 b 594 436 606 408 594 418 b 606 460 594 444 601 450 b 640 494 615 482 629 492 b 668 497 647 496 653 497 b 833 478 725 497 796 488 b 868 458 865 469 868 467 b 806 431 868 443 842 439 b 699 415 757 419 736 421 b 618 408 683 413 628 408 z m 818 740 b 706 779 803 740 760 779 b 660 778 683 779 667 778 b 585 817 642 778 619 799 b 529 886 550 835 529 881 b 535 894 529 889 531 892 b 626 903 544 901 557 903 b 810 865 732 903 761 893 b 872 792 851 842 872 815 b 818 740 872 774 842 740 z "},"¥":{"ha":1225,"x_min":0,"x_max":0,"o":"m 754 -12 b 718 10 750 -12 739 -7 b 618 110 676 46 618 74 b 649 219 618 135 649 174 b 624 332 649 278 624 281 b 675 431 624 364 626 367 b 722 529 693 453 706 481 b 803 688 743 592 783 642 b 876 826 810 706 860 779 b 935 928 894 882 917 928 b 1096 838 975 928 1056 865 b 1113 811 1110 828 1113 825 b 1079 760 1113 803 1113 793 b 968 672 1056 738 1004 697 b 831 538 892 621 915 606 b 775 461 799 513 793 503 b 756 399 763 435 756 410 b 763 311 756 379 763 364 b 781 181 763 251 779 218 b 793 74 785 133 793 133 b 786 13 793 24 793 22 b 754 -12 781 1 763 -12 z m 1056 317 b 992 331 1042 317 1039 322 b 835 389 925 342 835 367 b 950 428 835 406 868 418 b 1049 439 983 432 996 439 b 1097 403 1097 439 1097 438 b 1056 317 1097 371 1088 317 z m 243 346 b 208 381 226 346 208 363 b 253 446 208 406 233 439 b 282 450 264 450 267 450 b 506 426 358 450 424 446 b 563 397 539 418 563 408 b 456 365 563 388 560 382 b 339 351 422 360 400 364 b 243 346 326 349 249 346 z m 639 490 b 581 525 622 490 596 508 b 443 619 543 563 496 592 b 242 775 324 683 307 710 b 142 861 218 797 165 843 b 113 908 113 883 113 894 b 228 944 113 940 126 944 b 365 924 251 944 353 933 b 435 821 399 896 372 889 b 574 681 458 794 521 731 b 638 558 603 653 619 599 b 653 506 650 531 653 514 b 639 490 653 494 647 490 z "},"¤":{"ha":1622,"x_min":0,"x_max":0,"o":"m 267 3 b 214 53 250 3 243 17 b 182 93 201 68 193 78 b 169 111 178 100 169 108 b 179 135 169 121 175 132 b 221 153 183 138 199 144 b 331 197 278 174 314 188 b 363 207 346 206 356 207 b 383 190 381 207 383 200 b 371 140 383 158 382 156 b 349 107 368 135 358 119 b 318 57 331 83 331 71 b 282 6 301 39 288 8 b 267 3 278 3 272 3 z m 1381 4 b 1365 11 1375 4 1372 6 b 1281 85 1344 26 1306 60 b 1240 144 1256 113 1240 135 b 1264 163 1240 151 1250 163 b 1306 153 1274 163 1290 157 b 1356 138 1329 147 1349 140 b 1421 114 1374 129 1403 125 b 1472 81 1453 96 1472 97 b 1403 13 1472 68 1425 24 b 1381 4 1392 7 1385 4 z m 685 92 b 628 97 656 92 647 92 b 517 144 581 110 546 119 b 463 196 494 163 476 176 b 444 213 458 201 450 208 b 332 432 374 271 332 336 b 340 508 332 467 340 481 b 368 635 340 549 356 608 b 382 675 372 647 381 665 b 472 782 396 728 429 760 b 581 824 500 796 536 810 b 701 840 619 836 654 840 b 744 824 722 840 728 835 b 771 792 757 815 771 804 b 724 763 771 779 758 771 b 621 713 683 753 646 728 b 485 569 536 661 500 625 b 468 461 475 535 468 490 b 475 408 468 442 469 425 b 536 289 490 354 494 340 b 665 182 585 229 604 215 b 743 164 692 168 694 167 b 796 139 778 161 796 156 b 772 100 796 131 781 106 b 685 92 764 96 721 92 z m 957 103 b 918 133 938 103 918 107 b 1018 207 918 167 960 192 b 1196 438 1128 238 1196 311 b 1181 522 1196 474 1196 492 b 1118 633 1157 572 1136 608 b 1032 706 1100 657 1054 694 b 954 772 1000 724 956 764 b 951 796 953 776 951 786 b 997 825 951 819 956 825 b 1131 801 1068 825 1082 821 b 1207 760 1165 788 1171 782 b 1272 690 1244 736 1253 719 b 1310 590 1293 658 1304 618 b 1325 511 1317 561 1319 539 b 1329 469 1328 500 1329 490 b 1319 331 1329 371 1326 354 b 1236 203 1310 289 1269 233 b 1089 121 1193 164 1121 128 b 1006 107 1036 108 1018 114 b 957 103 1003 106 974 103 z m 315 739 b 281 744 306 739 294 740 b 157 772 228 758 185 756 b 131 800 144 781 136 786 b 113 903 128 813 113 881 b 143 944 113 924 126 944 b 236 872 156 944 201 910 b 275 833 250 857 265 843 b 339 758 297 813 339 783 b 315 739 339 747 331 739 z m 1308 760 b 1286 779 1299 760 1286 768 b 1321 821 1286 790 1303 801 b 1378 874 1354 853 1364 860 b 1450 918 1401 897 1436 918 b 1488 883 1460 918 1468 914 b 1510 828 1500 864 1510 843 b 1503 815 1510 819 1508 818 b 1400 776 1486 807 1414 779 b 1308 760 1371 769 1326 760 z "},"§":{"ha":807,"x_min":0,"x_max":0,"o":"m 331 -183 b 306 -169 322 -183 306 -179 b 369 -85 306 -149 358 -94 b 421 -8 397 -62 421 -28 b 392 57 421 4 401 42 b 278 181 367 93 343 124 b 207 246 232 219 235 222 b 143 328 178 271 156 296 b 113 432 125 369 113 392 b 156 522 113 469 131 493 b 231 578 179 547 206 568 b 299 589 256 588 261 589 b 392 558 356 589 392 576 b 385 546 392 553 388 549 b 343 488 381 540 347 496 b 321 413 332 463 321 433 b 354 336 321 371 346 344 b 400 290 365 322 376 311 b 419 271 406 285 411 276 b 471 221 440 257 460 231 b 518 169 488 207 511 179 b 561 54 521 165 561 82 b 554 -15 561 28 560 8 b 461 -132 544 -50 513 -92 b 347 -181 419 -164 417 -167 b 331 -183 342 -182 336 -183 z m 492 243 b 467 257 482 243 469 251 b 442 344 463 263 442 339 b 475 376 442 351 450 361 b 525 450 514 401 525 415 b 517 486 525 471 525 472 b 454 567 496 518 460 560 b 393 611 442 579 406 600 b 293 683 361 636 329 644 b 253 724 286 690 267 711 b 190 801 217 756 208 768 b 165 881 168 839 165 858 b 204 1006 165 928 175 958 b 286 1092 225 1042 261 1079 b 372 1110 310 1103 351 1110 b 404 1099 393 1110 404 1106 b 349 1024 404 1085 376 1054 b 306 964 329 1001 315 985 b 301 944 304 957 301 951 b 361 857 301 933 325 888 b 440 799 382 839 419 811 b 594 692 485 771 581 704 b 686 560 657 640 672 613 b 694 499 693 533 694 525 b 686 433 694 469 694 465 b 636 325 667 360 661 347 b 543 269 614 307 593 301 b 492 243 510 250 501 243 z "},"¶":{"ha":1082,"x_min":0,"x_max":0,"o":"m 901 -196 b 833 -168 883 -196 840 -187 b 822 -12 824 -139 822 -26 b 818 156 822 58 822 122 b 814 282 815 169 814 263 b 796 597 814 494 801 521 b 790 667 793 643 794 657 b 785 776 786 676 785 690 b 779 929 785 886 779 881 b 790 1063 779 1010 790 1028 b 806 1103 790 1076 800 1101 b 826 1106 810 1106 818 1106 b 906 1069 854 1106 863 1100 b 969 982 953 1038 969 1013 b 963 843 969 958 963 940 b 957 760 963 801 961 769 b 936 593 950 742 936 643 b 931 444 936 526 931 476 b 938 301 931 400 938 397 b 929 129 938 199 929 210 b 939 -153 929 54 939 -1 b 901 -196 939 -185 929 -196 z m 646 -175 b 567 -128 629 -175 579 -142 b 507 -43 550 -110 511 -54 b 506 -10 506 -35 506 -26 b 515 211 506 94 511 201 b 524 474 521 228 524 339 b 517 653 524 617 517 618 b 521 783 517 678 521 706 b 515 976 521 876 515 903 b 511 1051 515 1038 511 1043 b 544 1118 511 1100 522 1108 b 564 1122 554 1122 557 1122 b 646 1101 606 1122 644 1106 b 651 1078 647 1097 651 1086 b 660 1031 651 1056 660 1039 b 653 943 660 1024 656 1017 b 647 782 650 889 647 835 b 651 653 647 764 651 778 b 654 549 651 557 654 551 b 665 278 656 454 660 342 b 668 228 667 264 668 260 b 682 111 668 169 682 174 b 690 43 682 103 688 64 b 693 -49 693 11 693 -19 b 681 -146 693 -85 681 -107 b 663 -169 681 -150 681 -161 b 646 -175 657 -172 654 -175 z m 325 571 b 218 604 279 571 240 583 b 190 636 201 619 193 626 b 125 751 181 672 133 690 b 113 840 119 788 113 815 b 122 894 113 853 118 865 b 160 988 125 922 140 956 b 204 1057 179 1017 183 1042 b 356 1104 224 1074 308 1104 b 450 1060 406 1104 450 1075 b 422 1036 450 1051 440 1044 b 318 928 358 1007 332 979 b 300 831 306 875 300 849 b 318 738 300 811 310 756 b 371 657 328 719 364 664 b 422 629 388 643 413 631 b 443 617 435 626 443 622 b 382 582 443 603 431 594 b 325 571 340 571 339 571 z "},"¿":{"ha":815,"x_min":0,"x_max":0,"o":"m 319 -21 b 182 29 281 -21 218 4 b 113 171 131 64 113 100 b 299 422 113 285 185 365 b 439 513 372 460 419 490 b 469 636 468 547 469 578 b 482 692 469 682 469 683 b 507 700 490 697 496 700 b 576 636 529 700 551 679 b 596 549 589 615 596 594 b 422 354 596 478 579 454 b 360 283 390 333 383 322 b 321 165 339 250 321 208 b 367 69 321 138 322 128 b 382 44 378 54 382 54 b 347 -17 382 31 363 -11 b 319 -21 342 -19 331 -21 z m 510 -6 b 476 14 493 -6 486 -1 b 457 82 469 24 457 64 b 474 117 457 96 461 110 b 618 156 500 131 549 142 b 664 164 639 160 653 164 b 703 132 683 164 703 144 b 632 44 703 110 679 82 b 571 11 617 31 594 21 b 510 -6 544 0 525 -6 z m 497 775 b 417 803 483 775 435 793 b 340 868 368 826 340 853 b 351 889 340 875 343 881 b 436 981 361 900 428 974 b 453 985 440 983 446 985 b 528 946 469 985 479 985 b 574 889 572 910 574 906 b 535 813 574 872 564 854 b 497 775 515 783 507 775 z "},"¡":{"ha":482,"x_min":0,"x_max":0,"o":"m 225 781 b 163 840 168 781 163 803 b 156 897 163 861 156 883 b 178 967 156 915 163 944 b 224 979 185 978 203 979 b 290 969 240 979 263 978 b 333 949 303 965 318 957 b 369 915 354 938 369 926 b 354 874 369 904 363 889 b 289 811 346 860 317 832 b 225 781 261 792 250 781 z m 331 -8 b 131 86 300 -8 186 43 b 113 118 113 100 113 101 b 122 183 113 136 118 168 b 143 268 129 200 133 240 b 164 383 154 294 164 361 b 161 447 164 394 161 403 b 174 526 161 496 161 503 b 228 608 186 550 201 574 b 296 674 268 663 281 674 b 324 636 315 674 324 661 b 318 528 324 599 318 543 b 332 254 318 506 331 317 b 346 93 336 94 346 136 b 356 22 346 71 356 39 b 331 -8 356 3 346 -8 z "},"±":{"ha":1407,"x_min":0,"x_max":0,"o":"m 758 24 b 693 25 744 24 726 24 b 404 35 586 29 567 35 b 307 42 336 35 326 35 b 265 82 276 53 265 64 b 319 126 265 101 276 107 b 431 140 344 138 399 140 b 736 156 489 140 465 149 b 975 165 849 158 849 165 b 1121 161 1042 165 1085 161 b 1193 136 1176 161 1193 154 b 1056 35 1193 96 1076 40 b 939 28 1042 31 986 28 b 758 24 781 28 779 24 z m 724 217 b 671 242 713 217 696 218 b 644 318 640 269 656 286 b 629 542 638 343 635 386 b 618 706 626 613 618 599 b 626 835 618 804 626 788 b 656 882 626 868 635 882 b 682 876 663 882 671 881 b 785 767 701 869 768 811 b 790 665 789 757 790 739 b 794 533 790 624 794 564 b 781 265 794 435 781 386 b 775 232 781 240 781 238 b 724 217 765 222 743 217 z m 457 456 b 232 472 335 456 311 463 b 113 513 153 483 113 500 b 193 546 113 525 131 535 b 314 565 228 551 261 561 b 481 589 401 572 451 589 b 536 561 510 589 514 589 b 567 485 558 533 567 506 b 457 456 567 472 563 456 z m 956 467 b 910 486 947 467 944 472 b 856 525 876 500 856 513 b 893 576 856 535 876 556 b 953 601 908 597 919 601 b 1143 586 1031 601 1128 589 b 1258 572 1151 585 1215 576 b 1294 547 1285 569 1294 558 b 1047 483 1294 529 1228 510 b 956 467 983 474 964 467 z "},"×":{"ha":1053,"x_min":0,"x_max":0,"o":"m 138 139 b 113 171 125 139 113 156 b 164 264 113 194 131 228 b 289 404 203 307 236 361 b 339 482 331 438 339 457 b 225 615 339 511 293 549 b 129 765 168 669 144 692 b 122 799 125 782 122 792 b 163 825 122 815 154 825 b 225 790 176 825 206 811 b 261 751 236 779 246 764 b 326 685 272 742 293 711 b 429 614 369 651 406 618 b 514 606 461 607 483 606 b 646 654 593 606 625 628 b 808 761 676 692 724 710 b 918 824 875 801 907 824 b 940 793 929 824 940 808 b 857 657 940 740 901 711 b 744 535 813 603 783 565 b 713 474 719 515 713 488 b 768 406 713 461 721 453 b 913 242 846 328 886 297 b 929 164 919 226 929 183 b 893 136 929 150 908 136 b 825 175 868 136 846 153 b 615 339 768 233 699 329 b 539 353 579 343 568 353 b 481 340 518 353 500 344 b 406 296 446 333 442 315 b 281 221 386 285 346 258 b 138 139 217 185 146 139 z "},"÷":{"ha":1153,"x_min":0,"x_max":0,"o":"m 453 149 b 418 156 440 149 431 149 b 379 207 407 163 379 196 b 489 319 379 232 443 290 b 549 338 508 332 532 338 b 606 304 569 338 574 329 b 674 231 650 268 674 242 b 658 203 674 224 668 217 b 543 156 624 153 628 167 b 453 149 506 150 475 149 z m 543 421 b 249 432 490 421 440 432 b 193 431 222 432 206 431 b 113 478 128 431 113 469 b 279 536 113 510 174 536 b 447 549 317 536 381 549 b 690 558 529 549 621 554 b 840 564 768 563 824 564 b 974 558 868 564 921 558 b 1040 533 1022 558 1040 551 b 918 438 1040 497 968 458 b 758 425 892 426 874 425 b 543 421 671 425 588 421 z m 549 653 b 439 688 532 653 483 671 b 358 740 381 708 358 725 b 526 842 358 778 496 842 b 653 740 549 842 653 768 b 624 699 653 728 650 722 b 549 653 599 676 567 653 z "},"Š":{"ha":1157,"x_min":0,"x_max":0,"o":"m 474 1018 b 344 1083 442 1018 417 1039 b 146 1238 274 1126 199 1183 b 101 1297 115 1269 101 1286 b 121 1311 101 1307 108 1311 b 269 1258 149 1311 201 1292 b 414 1201 401 1194 357 1222 b 457 1192 432 1194 453 1192 b 619 1236 481 1192 519 1196 b 824 1308 742 1286 811 1308 b 846 1285 844 1308 846 1297 b 721 1160 846 1271 786 1204 b 613 1086 682 1133 661 1114 b 474 1018 565 1060 511 1018 z m 369 -1 b 232 67 335 -1 307 17 b 113 178 175 106 113 139 b 154 221 113 194 124 221 b 288 165 171 221 243 189 b 411 129 331 142 368 129 b 474 133 433 129 461 133 b 556 92 521 133 556 110 b 472 19 556 72 481 24 b 369 -1 436 1 406 -1 z m 643 11 b 607 44 631 11 607 21 b 682 121 607 68 626 90 b 835 306 749 157 835 239 b 629 440 835 368 771 411 b 393 496 503 465 511 472 b 204 575 288 517 221 563 b 124 689 147 617 124 646 b 149 790 124 739 129 769 b 243 858 168 811 197 832 b 389 917 314 899 353 917 b 418 893 406 917 418 908 b 382 828 418 883 411 871 b 338 743 350 779 338 760 b 344 718 338 735 340 728 b 464 625 365 676 399 656 b 622 583 511 603 575 586 b 917 508 708 578 818 551 b 1024 442 974 483 1004 465 b 1065 350 1051 410 1065 382 b 996 183 1065 288 1054 251 b 811 64 956 136 897 106 b 668 14 722 21 693 14 b 643 11 660 14 653 11 z m 838 799 b 793 806 826 799 811 801 b 593 832 743 817 628 831 b 500 868 536 835 500 850 b 546 918 500 883 519 894 b 608 960 581 950 588 956 b 678 972 633 965 660 972 b 756 953 686 972 733 960 b 857 871 790 940 800 922 b 881 838 875 856 881 846 b 838 799 881 819 860 799 z "},"Ž":{"ha":1368,"x_min":0,"x_max":0,"o":"m 1025 -15 b 914 -3 1017 -15 944 -7 b 724 14 850 7 779 14 b 506 6 701 14 538 8 b 469 4 492 4 481 4 b 419 14 438 4 432 10 b 382 46 383 26 382 35 b 406 72 382 56 392 58 b 443 107 417 83 436 96 b 469 135 453 119 467 131 b 519 193 483 149 501 167 b 554 213 531 210 543 213 b 614 215 576 213 594 215 b 693 203 651 215 667 208 b 804 169 750 192 778 175 b 881 146 835 163 847 158 b 1039 115 949 121 978 115 b 1193 96 1118 115 1156 100 b 1242 68 1228 92 1242 85 b 1206 43 1242 58 1233 53 b 1103 3 1179 33 1140 19 b 1025 -15 1076 -8 1046 -15 z m 218 75 b 167 83 199 75 183 79 b 113 108 138 90 113 89 b 244 207 113 131 131 143 b 356 276 288 231 311 249 b 468 347 382 293 425 318 b 632 464 542 396 553 411 b 925 664 839 601 836 617 b 993 708 979 693 981 704 b 1053 713 1000 711 1021 713 b 1219 701 1104 713 1183 710 b 1243 686 1231 699 1240 689 b 1249 665 1246 681 1249 676 b 1132 553 1249 640 1196 594 b 1024 496 1086 524 1067 513 b 975 474 1017 493 997 486 b 853 417 915 440 868 424 b 738 369 831 408 765 381 b 468 229 578 304 560 294 b 381 169 443 213 418 196 b 283 106 339 142 294 113 b 218 75 243 79 243 75 z m 426 696 b 296 747 393 696 336 722 b 179 868 235 786 179 833 b 218 893 179 888 192 893 b 247 892 225 893 231 892 b 322 906 265 892 292 896 b 486 931 393 926 429 931 b 711 914 549 931 600 918 b 1031 869 847 910 961 883 b 1092 865 1051 865 1065 865 b 1188 872 1117 865 1157 872 b 1231 864 1203 872 1224 871 b 1256 831 1244 851 1256 844 b 1225 807 1256 821 1240 807 b 1192 813 1218 807 1199 813 b 1132 801 1183 813 1156 801 b 1026 778 1100 801 1056 782 b 951 756 1004 774 992 768 b 847 733 904 740 896 744 b 758 719 815 725 818 719 b 618 731 714 719 667 731 b 426 696 556 731 471 696 z m 718 1025 b 678 1032 707 1025 685 1029 b 524 1126 668 1035 567 1097 b 376 1244 436 1186 413 1207 b 340 1297 354 1267 340 1285 b 356 1310 340 1306 347 1310 b 488 1268 382 1310 438 1290 b 578 1226 515 1256 544 1240 b 694 1193 603 1215 681 1193 b 768 1204 706 1193 746 1200 b 935 1268 781 1207 908 1260 b 994 1288 944 1271 971 1281 b 1064 1307 1040 1301 1049 1307 b 1085 1288 1078 1307 1085 1299 b 1006 1197 1085 1274 1051 1236 b 853 1093 957 1158 894 1117 b 718 1025 810 1069 749 1025 z "},"Ÿ":{"ha":1319,"x_min":0,"x_max":0,"o":"m 856 1038 b 794 1068 839 1038 818 1051 b 749 1121 769 1086 749 1108 b 825 1249 749 1136 800 1224 b 860 1271 839 1263 849 1271 b 933 1222 878 1271 907 1250 b 988 1136 954 1201 988 1156 b 940 1085 988 1128 983 1122 b 856 1038 906 1056 876 1038 z m 438 1042 b 401 1056 433 1042 429 1043 b 350 1113 360 1075 353 1078 b 339 1215 349 1132 339 1175 b 367 1257 339 1236 342 1240 b 414 1278 388 1271 406 1278 b 504 1231 432 1278 463 1261 b 576 1140 568 1182 576 1163 b 533 1096 576 1121 561 1115 b 438 1042 478 1054 456 1043 z m 750 -6 b 690 14 719 -6 717 -1 b 592 61 653 36 610 44 b 544 150 569 82 553 136 b 522 254 533 169 522 201 b 546 356 522 294 531 333 b 667 513 565 388 592 390 b 807 690 710 582 731 599 b 938 869 865 758 903 807 b 1044 969 990 968 997 969 b 1215 899 1057 969 1186 915 b 1235 865 1231 889 1235 883 b 1049 696 1235 819 1115 735 b 828 519 946 636 943 589 b 750 451 786 494 779 489 b 701 357 707 400 704 394 b 699 311 700 346 699 329 b 717 219 699 285 708 238 b 781 89 740 168 778 108 b 800 28 786 63 800 42 b 750 -6 800 13 776 -6 z m 560 471 b 497 507 540 471 519 483 b 383 592 468 536 432 563 b 219 739 297 644 251 682 b 111 875 203 768 156 819 b 85 940 90 899 85 910 b 129 978 85 956 97 978 b 274 967 183 978 228 976 b 361 940 321 957 353 953 b 400 844 378 918 376 879 b 546 651 490 711 533 678 b 568 589 554 633 564 615 b 585 504 574 564 585 524 b 560 471 585 485 576 471 z "},"Þ":{"ha":1204,"x_min":0,"x_max":0,"o":"m 215 6 b 156 44 196 6 157 25 b 150 136 154 54 150 119 b 139 435 150 485 139 347 b 131 529 139 475 133 506 b 118 707 121 590 118 607 b 113 882 118 814 113 854 b 171 956 113 917 138 956 b 357 910 207 956 353 929 b 365 846 360 901 365 874 b 351 685 365 799 351 725 b 353 642 351 660 353 654 b 340 518 353 560 340 533 b 321 451 340 501 333 490 b 308 332 315 433 308 374 b 311 218 308 304 311 261 b 285 94 311 150 290 153 b 215 6 279 31 251 6 z m 506 203 b 478 228 485 203 481 206 b 450 322 472 278 450 306 b 539 353 450 340 481 347 b 681 368 628 361 642 368 b 818 456 719 368 790 415 b 840 535 829 469 840 518 b 689 633 840 585 774 606 b 535 668 650 646 632 649 b 450 710 485 678 450 699 b 606 761 450 725 518 750 b 725 772 665 769 688 772 b 851 742 781 772 793 771 b 924 703 890 722 906 715 b 1060 617 958 681 1043 642 b 1092 522 1075 596 1092 547 b 931 349 1092 475 1028 399 b 797 276 878 321 817 289 b 557 211 765 256 643 221 b 506 203 535 208 518 203 z "},"Ð":{"ha":1611,"x_min":0,"x_max":0,"o":"m 444 0 b 411 18 428 0 411 0 b 419 97 411 47 419 72 b 426 174 419 118 426 157 b 439 394 426 265 439 232 b 432 514 439 460 432 474 b 406 672 432 553 424 617 b 401 721 401 689 401 699 b 393 821 401 763 393 751 b 400 896 393 856 393 875 b 436 931 410 929 413 931 b 490 917 451 931 454 931 b 538 896 500 913 532 899 b 632 822 579 872 625 836 b 638 782 635 817 638 808 b 631 718 638 735 631 729 b 636 649 631 710 636 704 b 617 538 636 594 617 600 b 619 460 617 493 619 476 b 615 374 619 440 615 407 b 607 311 615 338 613 329 b 589 179 593 263 593 246 b 581 96 586 121 586 108 b 485 8 564 49 551 33 b 444 0 468 1 463 0 z m 821 6 b 775 39 799 6 775 13 b 928 143 775 50 836 89 b 1032 204 958 161 993 178 b 1119 265 1060 222 1079 225 b 1188 326 1147 293 1176 310 b 1217 358 1194 336 1201 347 b 1285 440 1242 378 1253 397 b 1311 492 1308 471 1311 474 b 1303 568 1311 504 1304 540 b 1281 626 1301 599 1290 614 b 1150 743 1247 675 1185 728 b 1063 763 1131 751 1076 763 b 890 788 1056 763 958 785 b 803 838 819 792 803 800 b 835 929 803 864 829 897 b 914 971 843 971 858 960 b 979 975 933 975 967 975 b 1131 939 1029 975 1075 956 b 1246 901 1179 925 1236 904 b 1424 796 1281 893 1378 842 b 1514 679 1461 760 1497 724 b 1526 596 1522 656 1526 628 b 1518 519 1526 546 1526 542 b 1413 371 1492 454 1496 443 b 1338 299 1375 339 1361 317 b 1242 208 1318 283 1293 257 b 1119 125 1219 189 1138 135 b 1022 76 1090 108 1065 93 b 935 36 994 65 954 38 b 893 22 924 35 908 28 b 821 6 868 13 846 6 z m 336 392 b 289 401 315 392 314 396 b 125 457 232 413 156 439 b 113 476 118 461 113 469 b 133 503 113 492 122 499 b 269 532 164 513 253 526 b 347 538 278 535 308 538 b 375 497 369 538 375 532 b 336 392 375 447 361 392 z m 725 413 b 685 414 700 413 690 413 b 664 456 674 418 664 443 b 671 483 664 463 665 469 b 717 535 688 522 693 525 b 753 539 724 538 738 539 b 978 503 786 539 886 531 b 1018 475 1000 496 1018 483 b 950 443 1018 461 1007 454 b 813 422 885 431 854 431 b 725 413 768 414 747 413 z "},"Ç":{"ha":1125,"x_min":0,"x_max":0,"o":"m 618 -161 b 457 -110 558 -161 457 -140 b 569 -81 457 -85 506 -104 b 628 -32 601 -69 614 -32 b 675 -40 640 -32 658 -40 b 728 -67 697 -40 715 -56 b 753 -97 742 -79 753 -79 b 618 -161 753 -128 699 -161 z m 865 -19 b 656 11 804 -19 739 -8 b 406 101 521 43 418 93 b 239 206 340 144 281 172 b 114 354 186 246 142 278 b 85 506 100 390 85 449 b 104 640 85 556 90 606 b 189 754 119 681 149 721 b 351 868 253 807 239 814 b 504 929 454 918 460 910 b 699 953 543 946 654 953 b 928 931 753 953 768 949 b 1040 886 953 928 1040 904 b 915 813 1040 869 919 815 b 846 790 882 796 871 790 b 799 793 835 790 814 793 b 718 788 792 793 756 788 b 572 772 660 788 590 779 b 433 703 536 757 475 719 b 347 629 410 693 375 668 b 294 481 306 571 294 544 b 329 335 294 418 303 363 b 406 268 347 315 390 281 b 542 189 442 242 515 210 b 665 124 558 176 610 150 b 814 76 701 107 760 92 b 951 8 886 57 951 26 b 865 -19 951 -7 928 -19 z "},"Ñ":{"ha":1339,"x_min":0,"x_max":0,"o":"m 836 1124 b 700 1158 804 1124 744 1136 b 497 1211 619 1199 525 1211 b 283 1167 419 1211 290 1167 b 247 1196 265 1167 247 1182 b 290 1286 247 1215 260 1249 b 450 1374 319 1319 396 1361 b 556 1383 486 1382 497 1383 b 717 1296 629 1383 651 1365 b 828 1251 751 1260 785 1251 b 921 1261 864 1251 888 1261 b 1001 1246 947 1261 974 1257 b 1040 1211 1036 1232 1040 1228 b 947 1149 1040 1181 1018 1163 b 836 1124 914 1142 876 1124 z m 214 4 b 149 214 185 4 153 188 b 140 349 140 272 140 303 b 135 497 140 358 136 425 b 125 710 133 590 131 693 b 118 796 121 722 119 765 b 113 868 118 838 113 850 b 125 931 113 875 119 904 b 143 971 131 961 135 971 b 226 932 161 971 188 967 b 300 874 254 907 279 888 b 326 781 326 856 326 854 b 315 615 326 675 322 657 b 296 406 306 556 306 507 b 286 294 293 368 294 340 b 275 175 281 267 278 239 b 254 46 274 125 279 97 b 214 4 247 33 231 4 z m 1090 17 b 1068 21 1081 17 1074 18 b 1053 51 1054 28 1053 33 b 1056 193 1053 75 1056 140 b 1042 354 1056 289 1050 317 b 1021 511 1019 440 1025 464 b 1010 639 1018 561 1010 606 b 994 854 1010 740 994 783 b 1018 928 994 900 1014 911 b 1061 961 1019 944 1047 961 b 1144 907 1075 961 1081 953 b 1214 846 1172 888 1197 865 b 1226 800 1226 832 1226 824 b 1222 704 1226 772 1222 769 b 1225 614 1222 676 1225 633 b 1196 510 1225 551 1196 543 b 1190 372 1196 438 1190 440 b 1200 213 1190 296 1200 231 b 1186 143 1200 194 1197 178 b 1132 40 1169 89 1147 51 b 1090 17 1118 29 1104 17 z m 947 199 b 874 281 929 199 901 250 b 743 413 813 347 799 369 b 644 513 686 458 665 492 b 557 603 619 538 596 563 b 443 767 463 703 454 732 b 422 869 438 786 422 836 b 476 938 422 928 446 938 b 568 910 506 938 539 929 b 629 843 600 890 610 874 b 694 744 668 775 674 783 b 729 696 707 721 717 710 b 819 574 769 649 804 597 b 869 499 843 540 847 544 b 900 424 890 460 896 450 b 960 308 904 394 907 394 b 969 250 969 292 969 288 b 947 199 969 201 964 199 z "},"Ý":{"ha":1319,"x_min":0,"x_max":0,"o":"m 531 1071 b 507 1090 518 1071 507 1082 b 593 1176 507 1104 563 1157 b 740 1281 628 1197 660 1224 b 900 1376 808 1328 886 1376 b 936 1300 918 1376 922 1365 b 951 1219 950 1238 951 1228 b 886 1150 951 1192 940 1174 b 703 1101 826 1124 740 1106 b 531 1071 638 1094 565 1071 z m 750 -6 b 690 14 719 -6 717 -1 b 592 61 653 36 610 44 b 544 150 569 82 553 136 b 522 254 533 169 522 201 b 546 356 522 294 531 333 b 667 513 565 388 592 390 b 807 690 710 582 731 599 b 938 869 865 758 903 807 b 1044 969 990 968 997 969 b 1215 899 1057 969 1186 915 b 1235 865 1231 889 1235 883 b 1049 696 1235 819 1115 735 b 828 519 946 636 943 589 b 750 451 786 494 779 489 b 701 357 707 400 704 394 b 699 311 700 346 699 329 b 717 219 699 285 708 238 b 781 89 740 168 778 108 b 800 28 786 63 800 42 b 750 -6 800 13 776 -6 z m 560 471 b 497 507 540 471 519 483 b 383 592 468 536 432 563 b 219 739 297 644 251 682 b 111 875 203 768 156 819 b 85 940 90 899 85 910 b 129 978 85 956 97 978 b 274 967 183 978 228 976 b 361 940 321 957 353 953 b 400 844 378 918 376 879 b 546 651 490 711 533 678 b 568 589 554 633 564 615 b 585 504 574 564 585 524 b 560 471 585 485 576 471 z "},"À":{"ha":1607,"x_min":0,"x_max":0,"o":"m 1488 -19 b 1419 1 1481 -19 1442 -10 b 1303 60 1357 33 1349 24 b 1165 238 1268 86 1183 190 b 1096 350 1157 260 1126 299 b 1026 464 1067 400 1040 439 b 925 639 989 531 942 593 b 897 726 906 697 897 686 b 919 813 897 807 903 813 b 982 778 933 813 956 792 b 1144 575 1049 742 1119 619 b 1236 443 1169 525 1196 499 b 1389 242 1272 392 1340 300 b 1451 139 1419 206 1421 183 b 1543 25 1483 93 1543 51 b 1488 -19 1543 8 1507 -19 z m 122 -14 b 64 21 94 -14 64 0 b 142 185 64 63 125 144 b 239 329 168 249 189 261 b 353 515 300 411 318 439 b 469 711 383 581 388 561 b 529 814 496 758 504 763 b 583 850 538 833 551 836 b 663 883 601 857 626 865 b 789 925 710 907 782 925 b 815 904 803 925 815 915 b 715 724 815 867 769 840 b 671 644 706 701 671 650 b 610 536 671 632 626 565 b 532 446 588 497 579 488 b 467 379 513 428 492 403 b 401 318 444 357 419 338 b 239 88 346 256 307 175 b 122 -14 200 38 135 -14 z m 550 206 b 511 210 535 206 522 207 b 490 236 492 215 490 219 b 536 346 490 269 497 303 b 582 374 551 363 575 374 b 653 358 589 374 635 364 b 794 335 681 349 746 344 b 922 321 819 329 858 324 b 1044 301 1021 315 1028 317 b 1071 257 1053 294 1071 263 b 1021 239 1071 240 1049 247 b 879 225 994 231 958 228 b 678 211 772 222 767 211 b 550 206 589 211 578 206 z m 1029 978 b 910 1013 992 978 974 993 b 760 1054 807 1043 829 1043 b 592 1108 649 1072 592 1088 b 694 1176 592 1125 644 1150 b 790 1213 763 1213 764 1213 b 865 1168 818 1213 821 1204 b 975 1078 919 1122 958 1089 b 1064 993 1014 1051 1064 1004 b 1029 978 1064 985 1050 978 z "},"Á":{"ha":1607,"x_min":0,"x_max":0,"o":"m 678 1011 b 657 1028 671 1011 657 1018 b 781 1128 657 1054 743 1106 b 890 1199 803 1142 817 1153 b 992 1256 929 1222 976 1244 b 1019 1269 1003 1264 1015 1269 b 1060 1185 1039 1269 1047 1254 b 1068 1135 1064 1163 1068 1147 b 938 1057 1068 1100 1033 1083 b 764 1026 854 1033 840 1043 b 678 1011 733 1019 682 1011 z m 1488 -19 b 1419 1 1481 -19 1442 -10 b 1303 60 1357 33 1349 24 b 1165 238 1268 86 1183 190 b 1096 350 1157 260 1126 299 b 1026 464 1067 400 1040 439 b 925 639 989 531 942 593 b 897 726 906 697 897 686 b 919 813 897 807 903 813 b 982 778 933 813 956 792 b 1144 575 1049 742 1119 619 b 1236 443 1169 525 1196 499 b 1389 242 1272 392 1340 300 b 1451 139 1419 206 1421 183 b 1543 25 1483 93 1543 51 b 1488 -19 1543 8 1507 -19 z m 122 -14 b 64 21 94 -14 64 0 b 142 185 64 63 125 144 b 239 329 168 249 189 261 b 353 515 300 411 318 439 b 469 711 383 581 388 561 b 529 814 496 758 504 763 b 583 850 538 833 551 836 b 663 883 601 857 626 865 b 789 925 710 907 782 925 b 815 904 803 925 815 915 b 715 724 815 867 769 840 b 671 644 706 701 671 650 b 610 536 671 632 626 565 b 532 446 588 497 579 488 b 467 379 513 428 492 403 b 401 318 444 357 419 338 b 239 88 346 256 307 175 b 122 -14 200 38 135 -14 z m 550 206 b 511 210 535 206 522 207 b 490 236 492 215 490 219 b 536 346 490 269 497 303 b 582 374 551 363 575 374 b 653 358 589 374 635 364 b 794 335 681 349 746 344 b 922 321 819 329 858 324 b 1044 301 1021 315 1028 317 b 1071 257 1053 294 1071 263 b 1021 239 1071 240 1049 247 b 879 225 994 231 958 228 b 678 211 772 222 767 211 b 550 206 589 211 578 206 z "},"Â":{"ha":1607,"x_min":0,"x_max":0,"o":"m 415 956 b 393 976 407 956 393 960 b 589 1161 393 1017 558 1140 b 764 1253 708 1243 735 1253 b 982 1132 797 1253 849 1219 b 1139 985 1067 1076 1139 1001 b 1115 969 1139 978 1136 969 b 938 1031 1086 969 1014 993 b 779 1079 893 1053 818 1079 b 557 1004 724 1079 683 1061 b 415 956 501 979 426 956 z m 1488 -19 b 1419 1 1481 -19 1442 -10 b 1303 60 1357 33 1349 24 b 1165 238 1268 86 1183 190 b 1096 350 1157 260 1126 299 b 1026 464 1067 400 1040 439 b 925 639 989 531 942 593 b 897 726 906 697 897 686 b 919 813 897 807 903 813 b 982 778 933 813 956 792 b 1144 575 1049 742 1119 619 b 1236 443 1169 525 1196 499 b 1389 242 1272 392 1340 300 b 1451 139 1419 206 1421 183 b 1543 25 1483 93 1543 51 b 1488 -19 1543 8 1507 -19 z m 122 -14 b 64 21 94 -14 64 0 b 142 185 64 63 125 144 b 239 329 168 249 189 261 b 353 515 300 411 318 439 b 469 711 383 581 388 561 b 529 814 496 758 504 763 b 583 850 538 833 551 836 b 663 883 601 857 626 865 b 789 925 710 907 782 925 b 815 904 803 925 815 915 b 715 724 815 867 769 840 b 671 644 706 701 671 650 b 610 536 671 632 626 565 b 532 446 588 497 579 488 b 467 379 513 428 492 403 b 401 318 444 357 419 338 b 239 88 346 256 307 175 b 122 -14 200 38 135 -14 z m 550 206 b 511 210 535 206 522 207 b 490 236 492 215 490 219 b 536 346 490 269 497 303 b 582 374 551 363 575 374 b 653 358 589 374 635 364 b 794 335 681 349 746 344 b 922 321 819 329 858 324 b 1044 301 1021 315 1028 317 b 1071 257 1053 294 1071 263 b 1021 239 1071 240 1049 247 b 879 225 994 231 958 228 b 678 211 772 222 767 211 b 550 206 589 211 578 206 z "},"Ã":{"ha":1607,"x_min":0,"x_max":0,"o":"m 946 1003 b 811 1028 907 1003 860 1014 b 643 1057 765 1042 690 1057 b 457 1032 518 1057 488 1032 b 425 1056 444 1032 425 1046 b 535 1167 425 1100 467 1143 b 676 1188 592 1186 611 1188 b 818 1136 744 1188 750 1183 b 917 1096 861 1106 885 1096 b 1063 1114 965 1096 1001 1114 b 1156 1083 1101 1114 1156 1113 b 1028 1018 1156 1049 1110 1046 b 946 1003 989 1006 979 1003 z m 1488 -19 b 1419 1 1481 -19 1442 -10 b 1303 60 1357 33 1349 24 b 1165 238 1268 86 1183 190 b 1096 350 1157 260 1126 299 b 1026 464 1067 400 1040 439 b 925 639 989 531 942 593 b 897 726 906 697 897 686 b 919 813 897 807 903 813 b 982 778 933 813 956 792 b 1144 575 1049 742 1119 619 b 1236 443 1169 525 1196 499 b 1389 242 1272 392 1340 300 b 1451 139 1419 206 1421 183 b 1543 25 1483 93 1543 51 b 1488 -19 1543 8 1507 -19 z m 122 -14 b 64 21 94 -14 64 0 b 142 185 64 63 125 144 b 239 329 168 249 189 261 b 353 515 300 411 318 439 b 469 711 383 581 388 561 b 529 814 496 758 504 763 b 583 850 538 833 551 836 b 663 883 601 857 626 865 b 789 925 710 907 782 925 b 815 904 803 925 815 915 b 715 724 815 867 769 840 b 671 644 706 701 671 650 b 610 536 671 632 626 565 b 532 446 588 497 579 488 b 467 379 513 428 492 403 b 401 318 444 357 419 338 b 239 88 346 256 307 175 b 122 -14 200 38 135 -14 z m 550 206 b 511 210 535 206 522 207 b 490 236 492 215 490 219 b 536 346 490 269 497 303 b 582 374 551 363 575 374 b 653 358 589 374 635 364 b 794 335 681 349 746 344 b 922 321 819 329 858 324 b 1044 301 1021 315 1028 317 b 1071 257 1053 294 1071 263 b 1021 239 1071 240 1049 247 b 879 225 994 231 958 228 b 678 211 772 222 767 211 b 550 206 589 211 578 206 z "},"Ä":{"ha":1607,"x_min":0,"x_max":0,"o":"m 1029 989 b 969 1019 1013 989 992 1003 b 922 1072 944 1038 922 1060 b 999 1200 922 1088 974 1175 b 1033 1222 1013 1214 1022 1222 b 1107 1174 1051 1222 1082 1201 b 1161 1088 1128 1153 1161 1107 b 1094 1021 1161 1079 1157 1072 b 1029 989 1081 1010 1050 989 z m 611 993 b 575 1007 607 993 603 994 b 524 1064 533 1026 526 1029 b 513 1167 522 1083 513 1126 b 540 1208 513 1188 515 1192 b 588 1229 561 1222 579 1229 b 678 1182 606 1229 636 1213 b 750 1092 742 1133 750 1114 b 707 1047 750 1072 735 1067 b 611 993 651 1006 629 994 z m 1488 -19 b 1419 1 1481 -19 1442 -10 b 1303 60 1357 33 1349 24 b 1165 238 1268 86 1183 190 b 1096 350 1157 260 1126 299 b 1026 464 1067 400 1040 439 b 925 639 989 531 942 593 b 897 726 906 697 897 686 b 919 813 897 807 903 813 b 982 778 933 813 956 792 b 1144 575 1049 742 1119 619 b 1236 443 1169 525 1196 499 b 1389 242 1272 392 1340 300 b 1451 139 1419 206 1421 183 b 1543 25 1483 93 1543 51 b 1488 -19 1543 8 1507 -19 z m 122 -14 b 64 21 94 -14 64 0 b 142 185 64 63 125 144 b 239 329 168 249 189 261 b 353 515 300 411 318 439 b 469 711 383 581 388 561 b 529 814 496 758 504 763 b 583 850 538 833 551 836 b 663 883 601 857 626 865 b 789 925 710 907 782 925 b 815 904 803 925 815 915 b 715 724 815 867 769 840 b 671 644 706 701 671 650 b 610 536 671 632 626 565 b 532 446 588 497 579 488 b 467 379 513 428 492 403 b 401 318 444 357 419 338 b 239 88 346 256 307 175 b 122 -14 200 38 135 -14 z m 550 206 b 511 210 535 206 522 207 b 490 236 492 215 490 219 b 536 346 490 269 497 303 b 582 374 551 363 575 374 b 653 358 589 374 635 364 b 794 335 681 349 746 344 b 922 321 819 329 858 324 b 1044 301 1021 315 1028 317 b 1071 257 1053 294 1071 263 b 1021 239 1071 240 1049 247 b 879 225 994 231 958 228 b 678 211 772 222 767 211 b 550 206 589 211 578 206 z "},"Å":{"ha":1607,"x_min":0,"x_max":0,"o":"m 888 978 b 847 1019 879 978 847 993 b 917 1083 847 1056 894 1049 b 946 1156 932 1107 946 1140 b 932 1239 946 1235 939 1225 b 878 1271 925 1250 908 1258 b 835 1310 846 1282 835 1293 b 875 1353 835 1332 857 1353 b 1033 1271 907 1353 1003 1321 b 1054 1207 1053 1242 1054 1240 b 1058 1150 1054 1194 1058 1176 b 1039 1090 1058 1131 1053 1121 b 976 1010 1018 1046 1011 1033 b 888 978 947 992 924 978 z m 746 981 b 715 983 739 981 728 981 b 633 1022 685 992 643 1013 b 575 1093 611 1047 586 1075 b 564 1147 568 1106 564 1124 b 610 1285 564 1208 582 1256 b 725 1353 629 1304 707 1350 b 744 1354 732 1354 738 1354 b 792 1317 769 1354 792 1346 b 728 1253 792 1290 783 1285 b 676 1140 682 1228 676 1206 b 703 1088 676 1118 676 1117 b 769 1057 725 1063 740 1057 b 796 1033 790 1057 796 1050 b 783 997 796 1021 792 1008 b 746 981 772 982 764 981 z m 1488 -19 b 1419 1 1481 -19 1442 -10 b 1303 60 1357 33 1349 24 b 1165 238 1268 86 1183 190 b 1096 350 1157 260 1126 299 b 1026 464 1067 400 1040 439 b 925 639 989 531 942 593 b 897 726 906 697 897 686 b 919 813 897 807 903 813 b 982 778 933 813 956 792 b 1144 575 1049 742 1119 619 b 1236 443 1169 525 1196 499 b 1389 242 1272 392 1340 300 b 1451 139 1419 206 1421 183 b 1543 25 1483 93 1543 51 b 1488 -19 1543 8 1507 -19 z m 122 -14 b 64 21 94 -14 64 0 b 142 185 64 63 125 144 b 239 329 168 249 189 261 b 353 515 300 411 318 439 b 469 711 383 581 388 561 b 529 814 496 758 504 763 b 583 850 538 833 551 836 b 663 883 601 857 626 865 b 789 925 710 907 782 925 b 815 904 803 925 815 915 b 715 724 815 867 769 840 b 671 644 706 701 671 650 b 610 536 671 632 626 565 b 532 446 588 497 579 488 b 467 379 513 428 492 403 b 401 318 444 357 419 338 b 239 88 346 256 307 175 b 122 -14 200 38 135 -14 z m 550 206 b 511 210 535 206 522 207 b 490 236 492 215 490 219 b 536 346 490 269 497 303 b 582 374 551 363 575 374 b 653 358 589 374 635 364 b 794 335 681 349 746 344 b 922 321 819 329 858 324 b 1044 301 1021 315 1028 317 b 1071 257 1053 294 1071 263 b 1021 239 1071 240 1049 247 b 879 225 994 231 958 228 b 678 211 772 222 767 211 b 550 206 589 211 578 206 z "},"Æ":{"ha":2383,"x_min":0,"x_max":0,"o":"m 2239 -21 b 2174 -17 2217 -21 2231 -17 b 2103 -1 2149 -17 2121 -8 b 1969 35 2071 11 2000 35 b 1943 33 1963 35 1957 33 b 1856 40 1917 33 1885 40 b 1749 38 1840 40 1778 38 b 1669 46 1717 38 1690 40 b 1594 78 1651 50 1594 68 b 1621 106 1594 89 1606 99 b 1658 125 1628 108 1644 117 b 1825 153 1706 151 1699 140 b 1919 157 1839 154 1875 156 b 2040 171 1994 158 2007 161 b 2129 181 2054 175 2107 181 b 2168 168 2147 181 2163 174 b 2214 104 2172 163 2185 140 b 2271 -4 2240 72 2271 8 b 2239 -21 2271 -17 2257 -21 z m 1488 1 b 1340 58 1476 1 1424 21 b 1271 110 1321 67 1296 85 b 1167 257 1243 139 1179 228 b 1100 364 1157 281 1107 349 b 944 617 1088 388 968 583 b 907 703 924 649 926 664 b 897 803 901 713 897 725 b 919 835 897 828 904 835 b 974 803 938 835 940 828 b 1029 764 992 790 1017 779 b 1132 619 1079 703 1111 658 b 1235 467 1156 575 1199 508 b 1267 424 1247 451 1257 438 b 1411 232 1344 314 1407 240 b 1453 157 1422 207 1453 167 b 1503 104 1453 154 1483 121 b 1542 47 1524 85 1542 60 b 1488 1 1542 32 1506 1 z m 114 10 b 93 13 107 10 97 11 b 64 38 79 18 64 33 b 101 138 64 61 76 93 b 157 244 150 222 154 239 b 176 272 163 251 169 265 b 264 385 182 279 232 340 b 358 549 314 456 354 535 b 417 640 368 576 415 636 b 488 764 418 646 467 732 b 521 821 499 781 518 813 b 579 871 536 854 539 856 b 640 897 594 876 613 883 b 744 935 683 918 731 935 b 796 929 758 935 771 929 b 814 919 808 929 814 924 b 789 874 814 911 803 888 b 711 739 775 860 729 781 b 671 667 697 708 681 689 b 608 557 656 626 613 564 b 482 418 583 510 518 458 b 444 382 469 404 457 393 b 346 269 415 357 367 303 b 138 17 254 115 183 44 b 114 10 129 11 132 10 z m 551 229 b 492 251 494 229 492 240 b 510 336 492 278 493 306 b 582 397 528 367 567 397 b 625 388 586 397 593 396 b 790 358 713 365 747 368 b 925 344 826 350 867 347 b 1047 321 1021 340 1031 339 b 1072 279 1057 310 1072 285 b 1015 260 1072 260 1049 271 b 883 249 1007 257 957 249 b 801 243 832 249 821 243 b 769 239 793 243 786 242 b 676 233 754 236 739 233 b 551 229 585 233 582 229 z m 1893 413 b 1785 433 1857 413 1801 433 b 1654 447 1779 433 1700 447 b 1510 464 1601 447 1535 463 b 1432 475 1496 465 1465 472 b 1379 490 1419 476 1389 482 b 1358 521 1371 496 1358 513 b 1419 549 1358 538 1375 549 b 1506 558 1443 549 1482 553 b 1619 578 1543 568 1569 578 b 1747 592 1669 578 1732 588 b 1785 597 1760 594 1767 597 b 1857 588 1803 597 1854 589 b 1875 560 1864 585 1871 578 b 1901 486 1878 550 1890 524 b 1917 429 1908 461 1917 442 b 1893 413 1917 417 1901 413 z m 1194 792 b 1164 796 1182 792 1169 793 b 1094 883 1142 806 1094 869 b 1119 904 1094 900 1103 904 b 1240 924 1142 904 1189 914 b 1358 942 1297 935 1324 942 b 1489 953 1385 942 1435 950 b 1611 961 1519 954 1575 960 b 1739 965 1661 963 1672 965 b 1832 957 1767 965 1790 964 b 1888 936 1863 951 1888 949 b 1839 864 1888 926 1874 906 b 1769 801 1808 829 1782 807 b 1731 799 1761 799 1744 799 b 1594 808 1654 799 1635 808 b 1406 824 1576 808 1506 824 b 1194 792 1321 824 1269 792 z "},"È":{"ha":1367,"x_min":0,"x_max":0,"o":"m 1075 -12 b 886 19 1057 -12 947 19 b 732 22 774 19 768 22 b 592 17 703 22 613 17 b 453 35 546 17 494 22 b 417 56 422 43 417 46 b 460 86 417 68 433 78 b 600 121 513 103 518 117 b 738 129 663 124 724 128 b 842 133 750 131 797 133 b 999 147 878 133 947 136 b 1131 165 1035 156 1110 165 b 1213 99 1168 165 1169 147 b 1254 18 1235 72 1254 38 b 1236 -3 1254 4 1247 0 b 1075 -12 1214 -8 1167 -12 z m 167 -8 b 147 21 151 -8 156 3 b 143 113 143 33 143 36 b 113 463 143 331 113 363 b 117 596 113 490 117 499 b 115 667 117 624 115 647 b 119 781 115 717 119 756 b 114 856 119 811 114 822 b 157 911 114 906 131 911 b 186 907 165 911 181 910 b 286 847 224 888 254 871 b 333 767 303 836 333 789 b 301 594 333 713 318 669 b 290 493 292 550 290 508 b 281 338 290 433 281 371 b 289 243 281 289 289 268 b 256 117 289 189 276 146 b 228 51 236 90 238 74 b 200 10 219 35 222 25 b 167 -8 181 -4 171 -8 z m 1050 369 b 990 374 1033 369 1010 371 b 788 396 931 381 826 396 b 558 425 768 396 685 401 b 432 463 500 436 432 443 b 472 504 432 497 454 504 b 583 511 510 504 569 508 b 706 525 626 519 647 525 b 864 539 743 525 825 528 b 901 543 874 542 888 543 b 968 539 931 543 947 539 b 1029 482 990 539 994 533 b 1082 386 1056 442 1082 393 b 1050 369 1082 375 1074 369 z m 529 739 b 492 746 511 739 501 740 b 431 832 475 756 431 813 b 461 853 431 850 439 853 b 563 869 475 853 538 864 b 758 899 642 888 653 889 b 956 928 803 903 831 911 b 1136 950 1026 938 1046 950 b 1190 949 1157 950 1176 949 b 1240 928 1233 949 1240 946 b 1218 865 1240 911 1229 899 b 1160 779 1210 844 1193 817 b 1043 754 1144 763 1097 754 b 943 758 999 754 976 758 b 746 768 914 758 851 768 b 624 751 697 768 686 765 b 529 739 597 746 553 739 z m 833 1049 b 715 1083 796 1049 779 1064 b 565 1125 611 1114 633 1114 b 396 1179 454 1143 396 1158 b 499 1247 396 1196 450 1221 b 594 1283 568 1283 568 1283 b 669 1239 622 1283 626 1275 b 781 1149 725 1193 764 1160 b 868 1064 818 1122 868 1075 b 833 1049 868 1056 856 1049 z "},"É":{"ha":1367,"x_min":0,"x_max":0,"o":"m 561 1056 b 535 1072 549 1056 535 1060 b 660 1172 535 1093 606 1142 b 831 1278 692 1190 707 1210 b 900 1313 869 1300 889 1313 b 942 1217 915 1313 928 1299 b 944 1181 943 1201 944 1190 b 876 1118 944 1144 913 1131 b 660 1074 793 1090 704 1079 b 561 1056 582 1064 582 1056 z m 1075 -12 b 886 19 1057 -12 947 19 b 732 22 774 19 768 22 b 592 17 703 22 613 17 b 453 35 546 17 494 22 b 417 56 422 43 417 46 b 460 86 417 68 433 78 b 600 121 513 103 518 117 b 738 129 663 124 724 128 b 842 133 750 131 797 133 b 999 147 878 133 947 136 b 1131 165 1035 156 1110 165 b 1213 99 1168 165 1169 147 b 1254 18 1235 72 1254 38 b 1236 -3 1254 4 1247 0 b 1075 -12 1214 -8 1167 -12 z m 167 -8 b 147 21 151 -8 156 3 b 143 113 143 33 143 36 b 113 463 143 331 113 363 b 117 596 113 490 117 499 b 115 667 117 624 115 647 b 119 781 115 717 119 756 b 114 856 119 811 114 822 b 157 911 114 906 131 911 b 186 907 165 911 181 910 b 286 847 224 888 254 871 b 333 767 303 836 333 789 b 301 594 333 713 318 669 b 290 493 292 550 290 508 b 281 338 290 433 281 371 b 289 243 281 289 289 268 b 256 117 289 189 276 146 b 228 51 236 90 238 74 b 200 10 219 35 222 25 b 167 -8 181 -4 171 -8 z m 1050 369 b 990 374 1033 369 1010 371 b 788 396 931 381 826 396 b 558 425 768 396 685 401 b 432 463 500 436 432 443 b 472 504 432 497 454 504 b 583 511 510 504 569 508 b 706 525 626 519 647 525 b 864 539 743 525 825 528 b 901 543 874 542 888 543 b 968 539 931 543 947 539 b 1029 482 990 539 994 533 b 1082 386 1056 442 1082 393 b 1050 369 1082 375 1074 369 z m 529 739 b 492 746 511 739 501 740 b 431 832 475 756 431 813 b 461 853 431 850 439 853 b 563 869 475 853 538 864 b 758 899 642 888 653 889 b 956 928 803 903 831 911 b 1136 950 1026 938 1046 950 b 1190 949 1157 950 1176 949 b 1240 928 1233 949 1240 946 b 1218 865 1240 911 1229 899 b 1160 779 1210 844 1193 817 b 1043 754 1144 763 1097 754 b 943 758 999 754 976 758 b 746 768 914 758 851 768 b 624 751 697 768 686 765 b 529 739 597 746 553 739 z "},"Ê":{"ha":1367,"x_min":0,"x_max":0,"o":"m 304 1047 b 281 1068 294 1047 281 1058 b 339 1144 281 1079 321 1129 b 515 1279 388 1188 454 1243 b 640 1344 578 1315 607 1344 b 817 1260 689 1344 683 1340 b 1028 1072 935 1186 1028 1101 b 1008 1061 1028 1064 1021 1061 b 806 1133 981 1061 915 1081 b 707 1165 760 1156 754 1154 b 667 1174 686 1171 678 1174 b 506 1124 643 1174 583 1158 b 385 1075 453 1100 413 1085 b 304 1047 350 1061 308 1047 z m 1075 -12 b 886 19 1057 -12 947 19 b 732 22 774 19 768 22 b 592 17 703 22 613 17 b 453 35 546 17 494 22 b 417 56 422 43 417 46 b 460 86 417 68 433 78 b 600 121 513 103 518 117 b 738 129 663 124 724 128 b 842 133 750 131 797 133 b 999 147 878 133 947 136 b 1131 165 1035 156 1110 165 b 1213 99 1168 165 1169 147 b 1254 18 1235 72 1254 38 b 1236 -3 1254 4 1247 0 b 1075 -12 1214 -8 1167 -12 z m 167 -8 b 147 21 151 -8 156 3 b 143 113 143 33 143 36 b 113 463 143 331 113 363 b 117 596 113 490 117 499 b 115 667 117 624 115 647 b 119 781 115 717 119 756 b 114 856 119 811 114 822 b 157 911 114 906 131 911 b 186 907 165 911 181 910 b 286 847 224 888 254 871 b 333 767 303 836 333 789 b 301 594 333 713 318 669 b 290 493 292 550 290 508 b 281 338 290 433 281 371 b 289 243 281 289 289 268 b 256 117 289 189 276 146 b 228 51 236 90 238 74 b 200 10 219 35 222 25 b 167 -8 181 -4 171 -8 z m 1050 369 b 990 374 1033 369 1010 371 b 788 396 931 381 826 396 b 558 425 768 396 685 401 b 432 463 500 436 432 443 b 472 504 432 497 454 504 b 583 511 510 504 569 508 b 706 525 626 519 647 525 b 864 539 743 525 825 528 b 901 543 874 542 888 543 b 968 539 931 543 947 539 b 1029 482 990 539 994 533 b 1082 386 1056 442 1082 393 b 1050 369 1082 375 1074 369 z m 529 739 b 492 746 511 739 501 740 b 431 832 475 756 431 813 b 461 853 431 850 439 853 b 563 869 475 853 538 864 b 758 899 642 888 653 889 b 956 928 803 903 831 911 b 1136 950 1026 938 1046 950 b 1190 949 1157 950 1176 949 b 1240 928 1233 949 1240 946 b 1218 865 1240 911 1229 899 b 1160 779 1210 844 1193 817 b 1043 754 1144 763 1097 754 b 943 758 999 754 976 758 b 746 768 914 758 851 768 b 624 751 697 768 686 765 b 529 739 597 746 553 739 z "},"Ë":{"ha":1367,"x_min":0,"x_max":0,"o":"m 381 1083 b 344 1097 374 1083 368 1085 b 294 1171 296 1122 294 1124 b 286 1244 294 1183 286 1207 b 314 1299 286 1278 286 1283 b 358 1317 336 1311 347 1317 b 499 1228 393 1317 482 1246 b 522 1178 517 1207 522 1196 b 458 1122 522 1160 472 1132 b 381 1083 433 1104 403 1083 z m 801 1076 b 742 1107 785 1076 764 1090 b 694 1160 717 1125 694 1147 b 769 1290 694 1178 746 1263 b 806 1310 782 1306 794 1310 b 881 1261 824 1310 854 1289 b 933 1175 900 1240 933 1194 b 867 1108 933 1167 929 1160 b 801 1076 853 1097 822 1076 z m 1075 -12 b 886 19 1057 -12 947 19 b 732 22 774 19 768 22 b 592 17 703 22 613 17 b 453 35 546 17 494 22 b 417 56 422 43 417 46 b 460 86 417 68 433 78 b 600 121 513 103 518 117 b 738 129 663 124 724 128 b 842 133 750 131 797 133 b 999 147 878 133 947 136 b 1131 165 1035 156 1110 165 b 1213 99 1168 165 1169 147 b 1254 18 1235 72 1254 38 b 1236 -3 1254 4 1247 0 b 1075 -12 1214 -8 1167 -12 z m 167 -8 b 147 21 151 -8 156 3 b 143 113 143 33 143 36 b 113 463 143 331 113 363 b 117 596 113 490 117 499 b 115 667 117 624 115 647 b 119 781 115 717 119 756 b 114 856 119 811 114 822 b 157 911 114 906 131 911 b 186 907 165 911 181 910 b 286 847 224 888 254 871 b 333 767 303 836 333 789 b 301 594 333 713 318 669 b 290 493 292 550 290 508 b 281 338 290 433 281 371 b 289 243 281 289 289 268 b 256 117 289 189 276 146 b 228 51 236 90 238 74 b 200 10 219 35 222 25 b 167 -8 181 -4 171 -8 z m 1050 369 b 990 374 1033 369 1010 371 b 788 396 931 381 826 396 b 558 425 768 396 685 401 b 432 463 500 436 432 443 b 472 504 432 497 454 504 b 583 511 510 504 569 508 b 706 525 626 519 647 525 b 864 539 743 525 825 528 b 901 543 874 542 888 543 b 968 539 931 543 947 539 b 1029 482 990 539 994 533 b 1082 386 1056 442 1082 393 b 1050 369 1082 375 1074 369 z m 529 739 b 492 746 511 739 501 740 b 431 832 475 756 431 813 b 461 853 431 850 439 853 b 563 869 475 853 538 864 b 758 899 642 888 653 889 b 956 928 803 903 831 911 b 1136 950 1026 938 1046 950 b 1190 949 1157 950 1176 949 b 1240 928 1233 949 1240 946 b 1218 865 1240 911 1229 899 b 1160 779 1210 844 1193 817 b 1043 754 1144 763 1097 754 b 943 758 999 754 976 758 b 746 768 914 758 851 768 b 624 751 697 768 686 765 b 529 739 597 746 553 739 z "},"Ì":{"ha":497,"x_min":0,"x_max":0,"o":"m 201 -12 b 167 40 185 -12 167 8 b 161 93 167 54 161 72 b 164 151 161 108 164 132 b 144 389 164 201 144 321 b 146 446 144 404 146 421 b 132 628 146 560 132 557 b 113 792 132 751 113 740 b 147 890 113 846 125 869 b 296 964 182 922 268 964 b 340 940 306 964 311 963 b 376 904 356 928 374 914 b 385 788 381 885 385 831 b 368 568 385 685 368 653 b 354 432 368 522 360 479 b 329 325 349 396 338 361 b 293 149 321 293 304 268 b 263 39 289 93 286 82 b 201 -12 251 18 226 -12 z m 400 1089 b 368 1094 393 1089 383 1089 b 132 1165 333 1106 201 1156 b 33 1188 78 1172 83 1176 b -35 1219 -25 1200 -35 1204 b 63 1286 -35 1232 -25 1239 b 161 1325 124 1319 129 1325 b 206 1306 182 1325 190 1321 b 360 1181 233 1279 332 1200 b 438 1104 399 1154 438 1118 b 400 1089 438 1096 418 1089 z "},"Í":{"ha":497,"x_min":0,"x_max":0,"o":"m 201 -12 b 167 40 185 -12 167 8 b 161 93 167 54 161 72 b 164 151 161 108 164 132 b 144 389 164 201 144 321 b 146 446 144 404 146 421 b 132 628 146 560 132 557 b 113 792 132 751 113 740 b 147 890 113 846 125 869 b 296 964 182 922 268 964 b 340 940 306 964 311 963 b 376 904 356 928 374 914 b 385 788 381 885 385 831 b 368 568 385 685 368 653 b 354 432 368 522 360 479 b 329 325 349 396 338 361 b 293 149 321 293 304 268 b 263 39 289 93 286 82 b 201 -12 251 18 226 -12 z m 51 1071 b 28 1089 40 1071 28 1078 b 114 1167 28 1104 86 1153 b 175 1204 118 1169 147 1186 b 385 1331 317 1296 339 1306 b 419 1346 406 1342 408 1346 b 464 1244 439 1346 447 1326 b 468 1200 468 1226 468 1214 b 397 1139 468 1169 432 1151 b 250 1103 343 1119 286 1108 b 132 1085 211 1096 229 1104 b 51 1071 93 1076 60 1071 z "},"Î":{"ha":497,"x_min":0,"x_max":0,"o":"m 201 -12 b 167 40 185 -12 167 8 b 161 93 167 54 161 72 b 164 151 161 108 164 132 b 144 389 164 201 144 321 b 146 446 144 404 146 421 b 132 628 146 560 132 557 b 113 792 132 751 113 740 b 147 890 113 846 125 869 b 296 964 182 922 268 964 b 340 940 306 964 311 963 b 376 904 356 928 374 914 b 385 788 381 885 385 831 b 368 568 385 685 368 653 b 354 432 368 522 360 479 b 329 325 349 396 338 361 b 293 149 321 293 304 268 b 263 39 289 93 286 82 b 201 -12 251 18 226 -12 z m -108 1007 b -128 1029 -119 1007 -128 1019 b -35 1138 -128 1057 -43 1132 b 93 1232 -19 1150 64 1213 b 236 1304 186 1294 210 1304 b 375 1239 276 1304 300 1282 b 540 1124 417 1215 503 1157 b 615 1032 601 1068 615 1051 b 592 1021 615 1022 611 1021 b 417 1083 558 1021 507 1043 b 364 1107 393 1093 371 1104 b 258 1133 344 1113 267 1133 b 182 1118 249 1133 201 1124 b -108 1007 168 1114 -79 1007 z "},"Ï":{"ha":497,"x_min":0,"x_max":0,"o":"m 201 -12 b 167 40 185 -12 167 8 b 161 93 167 54 161 72 b 164 151 161 108 164 132 b 144 389 164 201 144 321 b 146 446 144 404 146 421 b 132 628 146 560 132 557 b 113 792 132 751 113 740 b 147 890 113 846 125 869 b 296 964 182 922 268 964 b 340 940 306 964 311 963 b 376 904 356 928 374 914 b 385 788 381 885 385 831 b 368 568 385 685 368 653 b 354 432 368 522 360 479 b 329 325 349 396 338 361 b 293 149 321 293 304 268 b 263 39 289 93 286 82 b 201 -12 251 18 226 -12 z m 478 1038 b 418 1068 461 1038 440 1051 b 371 1121 393 1086 371 1108 b 447 1249 371 1136 422 1224 b 482 1271 461 1263 471 1271 b 556 1222 500 1271 531 1250 b 610 1136 576 1201 610 1156 b 543 1069 610 1128 606 1121 b 478 1038 529 1058 499 1038 z m 60 1042 b 24 1056 56 1042 51 1043 b -28 1113 -18 1075 -25 1078 b -39 1215 -29 1132 -39 1175 b -11 1257 -39 1236 -36 1240 b 36 1278 10 1271 28 1278 b 126 1231 54 1278 85 1261 b 199 1140 190 1182 199 1163 b 156 1096 199 1121 183 1115 b 60 1042 100 1054 78 1043 z "},"Ò":{"ha":1633,"x_min":0,"x_max":0,"o":"m 617 -6 b 483 21 592 -6 515 8 b 340 78 425 46 372 69 b 217 156 310 85 242 110 b 121 286 194 196 151 217 b 99 385 113 306 99 364 b 111 479 99 413 107 454 b 129 571 115 508 122 542 b 281 794 139 617 150 668 b 492 913 340 850 415 907 b 664 936 533 915 625 936 b 742 901 692 936 742 911 b 681 867 742 890 717 878 b 575 815 650 857 613 839 b 449 717 525 785 494 772 b 361 594 382 638 374 624 b 329 431 329 519 329 476 b 381 290 329 397 357 335 b 489 182 401 254 460 194 b 628 131 551 156 601 133 b 760 100 665 126 696 117 b 786 82 776 96 786 89 b 746 32 786 75 763 44 b 617 -6 718 10 656 -6 z m 1201 101 b 1179 121 1193 101 1179 107 b 1204 186 1179 131 1183 151 b 1279 349 1244 251 1279 315 b 1290 469 1279 363 1290 386 b 1254 639 1290 588 1275 585 b 1174 746 1238 678 1222 697 b 1115 854 1146 772 1115 828 b 1167 881 1115 875 1122 881 b 1301 856 1257 881 1269 863 b 1378 818 1322 850 1353 831 b 1524 640 1442 788 1492 724 b 1535 585 1533 614 1535 600 b 1507 401 1535 544 1515 426 b 1392 208 1490 340 1447 272 b 1281 135 1364 175 1322 160 b 1201 101 1261 122 1215 101 z m 872 369 b 792 393 865 369 856 374 b 682 454 753 406 682 433 b 785 536 682 469 721 510 b 854 560 811 547 846 560 b 922 514 861 560 886 543 b 979 457 965 479 979 467 b 872 369 979 443 904 369 z m 961 1065 b 922 1078 957 1065 940 1071 b 763 1136 844 1108 813 1117 b 667 1154 740 1144 692 1144 b 586 1176 654 1158 629 1165 b 547 1204 560 1183 547 1197 b 642 1275 547 1222 589 1243 b 749 1319 711 1319 718 1319 b 817 1272 775 1319 782 1304 b 926 1175 854 1238 861 1229 b 1017 1083 979 1132 1017 1099 b 961 1065 1017 1071 971 1065 z "},"Ó":{"ha":1633,"x_min":0,"x_max":0,"o":"m 683 1025 b 663 1043 675 1025 663 1033 b 839 1189 663 1076 824 1178 b 996 1292 890 1228 946 1261 b 1029 1306 1010 1300 1021 1306 b 1063 1228 1053 1306 1057 1249 b 1074 1161 1074 1182 1074 1169 b 992 1089 1074 1119 1036 1106 b 760 1039 878 1047 861 1065 b 683 1025 739 1033 690 1025 z m 617 -6 b 483 21 592 -6 515 8 b 340 78 425 46 372 69 b 217 156 310 85 242 110 b 121 286 194 196 151 217 b 99 385 113 306 99 364 b 111 479 99 413 107 454 b 129 571 115 508 122 542 b 281 794 139 617 150 668 b 492 913 340 850 415 907 b 664 936 533 915 625 936 b 742 901 692 936 742 911 b 681 867 742 890 717 878 b 575 815 650 857 613 839 b 449 717 525 785 494 772 b 361 594 382 638 374 624 b 329 431 329 519 329 476 b 381 290 329 397 357 335 b 489 182 401 254 460 194 b 628 131 551 156 601 133 b 760 100 665 126 696 117 b 786 82 776 96 786 89 b 746 32 786 75 763 44 b 617 -6 718 10 656 -6 z m 1201 101 b 1179 121 1193 101 1179 107 b 1204 186 1179 131 1183 151 b 1279 349 1244 251 1279 315 b 1290 469 1279 363 1290 386 b 1254 639 1290 588 1275 585 b 1174 746 1238 678 1222 697 b 1115 854 1146 772 1115 828 b 1167 881 1115 875 1122 881 b 1301 856 1257 881 1269 863 b 1378 818 1322 850 1353 831 b 1524 640 1442 788 1492 724 b 1535 585 1533 614 1535 600 b 1507 401 1535 544 1515 426 b 1392 208 1490 340 1447 272 b 1281 135 1364 175 1322 160 b 1201 101 1261 122 1215 101 z m 872 369 b 792 393 865 369 856 374 b 682 454 753 406 682 433 b 785 536 682 469 721 510 b 854 560 811 547 846 560 b 922 514 861 560 886 543 b 979 457 965 479 979 467 b 872 369 979 443 904 369 z "},"Ô":{"ha":1633,"x_min":0,"x_max":0,"o":"m 535 1001 b 515 1026 528 1001 515 1008 b 603 1138 515 1053 574 1110 b 779 1278 626 1163 707 1231 b 879 1328 843 1322 860 1328 b 1001 1267 904 1328 919 1325 b 1179 1133 1028 1247 1132 1178 b 1258 1036 1222 1090 1258 1047 b 1215 1026 1258 1028 1249 1026 b 1063 1082 1172 1026 1132 1049 b 892 1139 1001 1113 932 1139 b 732 1081 840 1139 801 1111 b 535 1001 653 1044 547 1001 z m 617 -6 b 483 21 592 -6 515 8 b 340 78 425 46 372 69 b 217 156 310 85 242 110 b 121 286 194 196 151 217 b 99 385 113 306 99 364 b 111 479 99 413 107 454 b 129 571 115 508 122 542 b 281 794 139 617 150 668 b 492 913 340 850 415 907 b 664 936 533 915 625 936 b 742 901 692 936 742 911 b 681 867 742 890 717 878 b 575 815 650 857 613 839 b 449 717 525 785 494 772 b 361 594 382 638 374 624 b 329 431 329 519 329 476 b 381 290 329 397 357 335 b 489 182 401 254 460 194 b 628 131 551 156 601 133 b 760 100 665 126 696 117 b 786 82 776 96 786 89 b 746 32 786 75 763 44 b 617 -6 718 10 656 -6 z m 1201 101 b 1179 121 1193 101 1179 107 b 1204 186 1179 131 1183 151 b 1279 349 1244 251 1279 315 b 1290 469 1279 363 1290 386 b 1254 639 1290 588 1275 585 b 1174 746 1238 678 1222 697 b 1115 854 1146 772 1115 828 b 1167 881 1115 875 1122 881 b 1301 856 1257 881 1269 863 b 1378 818 1322 850 1353 831 b 1524 640 1442 788 1492 724 b 1535 585 1533 614 1535 600 b 1507 401 1535 544 1515 426 b 1392 208 1490 340 1447 272 b 1281 135 1364 175 1322 160 b 1201 101 1261 122 1215 101 z m 872 369 b 792 393 865 369 856 374 b 682 454 753 406 682 433 b 785 536 682 469 721 510 b 854 560 811 547 846 560 b 922 514 861 560 886 543 b 979 457 965 479 979 467 b 872 369 979 443 904 369 z "},"Õ":{"ha":1633,"x_min":0,"x_max":0,"o":"m 1060 1060 b 940 1082 1014 1060 979 1065 b 744 1118 904 1097 822 1118 b 574 1092 679 1118 590 1092 b 542 1124 557 1092 542 1113 b 618 1222 542 1156 575 1197 b 719 1258 650 1240 689 1253 b 794 1263 739 1261 768 1263 b 942 1201 857 1263 876 1254 b 1042 1163 981 1169 993 1163 b 1179 1182 1104 1163 1128 1182 b 1274 1146 1269 1182 1274 1154 b 1197 1093 1274 1128 1261 1113 b 1060 1060 1132 1072 1118 1060 z m 617 -6 b 483 21 592 -6 515 8 b 340 78 425 46 372 69 b 217 156 310 85 242 110 b 121 286 194 196 151 217 b 99 385 113 306 99 364 b 111 479 99 413 107 454 b 129 571 115 508 122 542 b 281 794 139 617 150 668 b 492 913 340 850 415 907 b 664 936 533 915 625 936 b 742 901 692 936 742 911 b 681 867 742 890 717 878 b 575 815 650 857 613 839 b 449 717 525 785 494 772 b 361 594 382 638 374 624 b 329 431 329 519 329 476 b 381 290 329 397 357 335 b 489 182 401 254 460 194 b 628 131 551 156 601 133 b 760 100 665 126 696 117 b 786 82 776 96 786 89 b 746 32 786 75 763 44 b 617 -6 718 10 656 -6 z m 1201 101 b 1179 121 1193 101 1179 107 b 1204 186 1179 131 1183 151 b 1279 349 1244 251 1279 315 b 1290 469 1279 363 1290 386 b 1254 639 1290 588 1275 585 b 1174 746 1238 678 1222 697 b 1115 854 1146 772 1115 828 b 1167 881 1115 875 1122 881 b 1301 856 1257 881 1269 863 b 1378 818 1322 850 1353 831 b 1524 640 1442 788 1492 724 b 1535 585 1533 614 1535 600 b 1507 401 1535 544 1515 426 b 1392 208 1490 340 1447 272 b 1281 135 1364 175 1322 160 b 1201 101 1261 122 1215 101 z m 872 369 b 792 393 865 369 856 374 b 682 454 753 406 682 433 b 785 536 682 469 721 510 b 854 560 811 547 846 560 b 922 514 861 560 886 543 b 979 457 965 479 979 467 b 872 369 979 443 904 369 z "},"Ö":{"ha":1633,"x_min":0,"x_max":0,"o":"m 650 1025 b 581 1060 642 1025 592 1051 b 558 1153 561 1074 567 1093 b 554 1210 556 1172 554 1193 b 558 1242 554 1226 556 1238 b 628 1282 567 1256 614 1282 b 792 1133 657 1282 792 1193 b 785 1114 792 1125 789 1118 b 676 1033 776 1104 694 1043 b 650 1025 665 1028 657 1025 z m 1071 1026 b 1011 1051 1038 1026 1031 1038 b 963 1107 981 1074 963 1100 b 1004 1199 963 1124 979 1158 b 1074 1275 1022 1226 1047 1275 b 1142 1226 1096 1275 1117 1256 b 1201 1128 1160 1206 1201 1151 b 1132 1054 1201 1107 1167 1085 b 1071 1026 1101 1026 1092 1026 z m 617 -6 b 483 21 592 -6 515 8 b 340 78 425 46 372 69 b 217 156 310 85 242 110 b 121 286 194 196 151 217 b 99 385 113 306 99 364 b 111 479 99 413 107 454 b 129 571 115 508 122 542 b 281 794 139 617 150 668 b 492 913 340 850 415 907 b 664 936 533 915 625 936 b 742 901 692 936 742 911 b 681 867 742 890 717 878 b 575 815 650 857 613 839 b 449 717 525 785 494 772 b 361 594 382 638 374 624 b 329 431 329 519 329 476 b 381 290 329 397 357 335 b 489 182 401 254 460 194 b 628 131 551 156 601 133 b 760 100 665 126 696 117 b 786 82 776 96 786 89 b 746 32 786 75 763 44 b 617 -6 718 10 656 -6 z m 1201 101 b 1179 121 1193 101 1179 107 b 1204 186 1179 131 1183 151 b 1279 349 1244 251 1279 315 b 1290 469 1279 363 1290 386 b 1254 639 1290 588 1275 585 b 1174 746 1238 678 1222 697 b 1115 854 1146 772 1115 828 b 1167 881 1115 875 1122 881 b 1301 856 1257 881 1269 863 b 1378 818 1322 850 1353 831 b 1524 640 1442 788 1492 724 b 1535 585 1533 614 1535 600 b 1507 401 1535 544 1515 426 b 1392 208 1490 340 1447 272 b 1281 135 1364 175 1322 160 b 1201 101 1261 122 1215 101 z m 872 369 b 792 393 865 369 856 374 b 682 454 753 406 682 433 b 785 536 682 469 721 510 b 854 560 811 547 846 560 b 922 514 861 560 886 543 b 979 457 965 479 979 467 b 872 369 979 443 904 369 z "},"Ø":{"ha":1633,"x_min":0,"x_max":0,"o":"m 160 -233 b 140 -217 150 -233 140 -231 b 193 -104 140 -200 176 -131 b 256 -6 229 -50 251 -8 b 314 15 264 0 304 15 b 360 -7 322 15 354 -1 b 374 -49 367 -14 374 -40 b 229 -187 374 -68 335 -106 b 160 -233 174 -229 167 -233 z m 556 221 b 538 235 546 221 538 226 b 592 328 538 251 578 310 b 678 451 632 376 660 432 b 890 658 729 508 728 553 b 1053 742 967 708 1007 742 b 1090 621 1089 742 1090 732 b 1033 549 1090 578 1050 581 b 949 468 1025 531 996 504 b 854 397 892 425 881 418 b 683 282 792 349 753 328 b 556 221 629 246 576 221 z m 1385 932 b 1335 951 1375 932 1354 942 b 1278 989 1290 972 1278 981 b 1372 1083 1278 1014 1338 1056 b 1507 1176 1378 1088 1492 1176 b 1517 1158 1513 1176 1517 1169 b 1410 953 1517 1144 1476 1033 b 1385 932 1394 935 1390 932 z m 617 -6 b 483 21 592 -6 499 15 b 340 78 425 43 399 63 b 217 156 329 81 242 110 b 124 286 192 200 154 217 b 99 385 115 306 99 364 b 111 479 99 413 104 421 b 129 571 115 508 125 536 b 281 793 131 600 154 667 b 492 913 339 850 415 907 b 664 936 533 915 625 936 b 742 901 692 936 742 911 b 681 867 742 890 717 878 b 575 815 650 857 613 839 b 450 714 525 785 500 775 b 361 594 383 635 372 621 b 331 431 331 521 331 476 b 381 290 331 397 357 335 b 489 182 401 254 471 190 b 611 115 551 156 558 151 b 685 64 647 90 629 103 b 721 31 704 50 721 38 b 701 10 721 17 718 15 b 617 -6 674 1 642 -6 z m 1200 101 b 1181 121 1192 101 1181 107 b 1203 186 1181 131 1182 151 b 1279 349 1243 251 1279 315 b 1293 417 1279 372 1293 400 b 1289 481 1293 442 1289 449 b 1253 639 1289 579 1278 589 b 1172 746 1236 676 1221 697 b 1115 854 1144 772 1115 828 b 1165 881 1115 875 1124 881 b 1300 856 1265 881 1247 868 b 1376 818 1321 850 1351 831 b 1522 640 1438 789 1483 742 b 1535 585 1532 614 1535 600 b 1506 401 1535 528 1514 426 b 1400 217 1489 340 1446 271 b 1286 136 1363 174 1328 161 b 1200 101 1265 124 1214 101 z "},"Ù":{"ha":1349,"x_min":0,"x_max":0,"o":"m 831 1006 b 707 1049 819 1006 769 1029 b 607 1078 661 1064 661 1069 b 493 1106 554 1086 543 1092 b 438 1139 449 1118 438 1125 b 578 1238 438 1160 476 1171 b 636 1256 599 1251 614 1256 b 689 1226 653 1256 665 1250 b 758 1160 718 1196 728 1189 b 894 1033 821 1103 894 1046 b 831 1006 894 1028 840 1006 z m 538 -3 b 440 8 475 -3 476 8 b 286 79 403 8 346 31 b 188 243 246 111 222 182 b 122 425 169 275 140 349 b 96 632 110 479 104 546 b 85 806 90 689 85 751 b 103 953 85 881 92 943 b 165 976 110 960 150 976 b 318 929 240 976 265 969 b 351 886 343 910 351 900 b 328 797 351 863 328 828 b 297 656 328 785 301 743 b 286 546 296 619 286 578 b 329 303 286 511 299 365 b 442 161 356 249 376 206 b 575 100 469 143 503 128 b 640 53 636 76 640 64 b 626 6 640 19 635 7 b 538 -3 606 1 586 -3 z m 857 7 b 790 56 829 7 790 32 b 822 92 790 67 801 78 b 946 211 868 121 919 169 b 1013 376 994 288 997 317 b 1040 526 1028 438 1040 494 b 1051 636 1040 551 1047 615 b 1054 776 1054 654 1054 713 b 1064 919 1054 897 1057 908 b 1094 933 1065 924 1089 933 b 1153 907 1104 933 1128 917 b 1251 839 1189 893 1203 878 b 1264 771 1264 829 1264 822 b 1257 657 1264 694 1257 689 b 1246 543 1257 611 1246 600 b 1228 428 1246 515 1240 483 b 1185 289 1217 371 1215 364 b 1089 144 1153 214 1131 183 b 936 36 1047 107 1031 86 b 857 7 903 18 888 7 z "},"Ú":{"ha":1349,"x_min":0,"x_max":0,"o":"m 560 982 b 546 993 553 982 546 983 b 736 1157 546 1021 578 1044 b 885 1254 824 1219 844 1226 b 911 1265 899 1264 903 1265 b 946 1203 928 1265 933 1260 b 958 1121 954 1163 958 1138 b 917 1064 958 1097 953 1085 b 724 1010 881 1043 754 1010 b 625 992 685 1010 665 996 b 560 982 592 989 575 982 z m 538 -3 b 440 8 475 -3 476 8 b 286 79 403 8 346 31 b 188 243 246 111 222 182 b 122 425 169 275 140 349 b 96 632 110 479 104 546 b 85 806 90 689 85 751 b 103 953 85 881 92 943 b 165 976 110 960 150 976 b 318 929 240 976 265 969 b 351 886 343 910 351 900 b 328 797 351 863 328 828 b 297 656 328 785 301 743 b 286 546 296 619 286 578 b 329 303 286 511 299 365 b 442 161 356 249 376 206 b 575 100 469 143 503 128 b 640 53 636 76 640 64 b 626 6 640 19 635 7 b 538 -3 606 1 586 -3 z m 857 7 b 790 56 829 7 790 32 b 822 92 790 67 801 78 b 946 211 868 121 919 169 b 1013 376 994 288 997 317 b 1040 526 1028 438 1040 494 b 1051 636 1040 551 1047 615 b 1054 776 1054 654 1054 713 b 1064 919 1054 897 1057 908 b 1094 933 1065 924 1089 933 b 1153 907 1104 933 1128 917 b 1251 839 1189 893 1203 878 b 1264 771 1264 829 1264 822 b 1257 657 1264 694 1257 689 b 1246 543 1257 611 1246 600 b 1228 428 1246 515 1240 483 b 1185 289 1217 371 1215 364 b 1089 144 1153 214 1131 183 b 936 36 1047 107 1031 86 b 857 7 903 18 888 7 z "},"Û":{"ha":1349,"x_min":0,"x_max":0,"o":"m 376 1025 b 353 1049 364 1025 353 1033 b 435 1154 353 1058 392 1111 b 693 1349 493 1214 656 1335 b 724 1353 706 1353 708 1353 b 882 1263 753 1353 772 1338 b 1065 1107 979 1196 1028 1150 b 1100 1051 1086 1085 1100 1065 b 1078 1038 1100 1043 1092 1038 b 907 1103 1053 1038 994 1058 b 740 1163 794 1160 750 1163 b 685 1151 733 1163 711 1157 b 417 1038 614 1135 618 1113 b 376 1025 394 1029 383 1025 z m 538 -3 b 440 8 475 -3 476 8 b 286 79 403 8 346 31 b 188 243 246 111 222 182 b 122 425 169 275 140 349 b 96 632 110 479 104 546 b 85 806 90 689 85 751 b 103 953 85 881 92 943 b 165 976 110 960 150 976 b 318 929 240 976 265 969 b 351 886 343 910 351 900 b 328 797 351 863 328 828 b 297 656 328 785 301 743 b 286 546 296 619 286 578 b 329 303 286 511 299 365 b 442 161 356 249 376 206 b 575 100 469 143 503 128 b 640 53 636 76 640 64 b 626 6 640 19 635 7 b 538 -3 606 1 586 -3 z m 857 7 b 790 56 829 7 790 32 b 822 92 790 67 801 78 b 946 211 868 121 919 169 b 1013 376 994 288 997 317 b 1040 526 1028 438 1040 494 b 1051 636 1040 551 1047 615 b 1054 776 1054 654 1054 713 b 1064 919 1054 897 1057 908 b 1094 933 1065 924 1089 933 b 1153 907 1104 933 1128 917 b 1251 839 1189 893 1203 878 b 1264 771 1264 829 1264 822 b 1257 657 1264 694 1257 689 b 1246 543 1257 611 1246 600 b 1228 428 1246 515 1240 483 b 1185 289 1217 371 1215 364 b 1089 144 1153 214 1131 183 b 936 36 1047 107 1031 86 b 857 7 903 18 888 7 z "},"Ü":{"ha":1349,"x_min":0,"x_max":0,"o":"m 465 1042 b 404 1069 457 1042 449 1046 b 375 1115 379 1083 375 1110 b 376 1133 375 1119 376 1126 b 369 1175 376 1138 374 1150 b 365 1232 365 1200 365 1213 b 392 1279 365 1258 369 1264 b 440 1303 417 1296 428 1303 b 579 1203 463 1303 553 1239 b 603 1153 592 1186 603 1164 b 556 1097 603 1136 600 1132 b 465 1042 504 1057 478 1042 z m 882 1042 b 815 1075 867 1042 850 1044 b 775 1128 789 1097 775 1114 b 825 1232 775 1142 790 1169 b 888 1294 850 1276 871 1294 b 915 1285 894 1294 903 1292 b 1014 1143 950 1264 1014 1172 b 963 1085 1014 1129 988 1108 b 882 1042 928 1054 911 1042 z m 538 -3 b 440 8 475 -3 476 8 b 286 79 403 8 346 31 b 188 243 246 111 222 182 b 122 425 169 275 140 349 b 96 632 110 479 104 546 b 85 806 90 689 85 751 b 103 953 85 881 92 943 b 165 976 110 960 150 976 b 318 929 240 976 265 969 b 351 886 343 910 351 900 b 328 797 351 863 328 828 b 297 656 328 785 301 743 b 286 546 296 619 286 578 b 329 303 286 511 299 365 b 442 161 356 249 376 206 b 575 100 469 143 503 128 b 640 53 636 76 640 64 b 626 6 640 19 635 7 b 538 -3 606 1 586 -3 z m 857 7 b 790 56 829 7 790 32 b 822 92 790 67 801 78 b 946 211 868 121 919 169 b 1013 376 994 288 997 317 b 1040 526 1028 438 1040 494 b 1051 636 1040 551 1047 615 b 1054 776 1054 654 1054 713 b 1064 919 1054 897 1057 908 b 1094 933 1065 924 1089 933 b 1153 907 1104 933 1128 917 b 1251 839 1189 893 1203 878 b 1264 771 1264 829 1264 822 b 1257 657 1264 694 1257 689 b 1246 543 1257 611 1246 600 b 1228 428 1246 515 1240 483 b 1185 289 1217 371 1215 364 b 1089 144 1153 214 1131 183 b 936 36 1047 107 1031 86 b 857 7 903 18 888 7 z "},"Œ":{"ha":2426,"x_min":0,"x_max":0,"o":"m 619 -10 b 483 17 569 -10 496 13 b 435 38 467 22 450 31 b 218 153 349 78 265 82 b 192 188 210 167 197 182 b 124 285 176 206 146 233 b 99 378 108 318 99 368 b 114 482 99 408 106 438 b 160 656 125 551 139 632 b 181 685 167 663 175 675 b 325 838 203 718 293 814 b 496 918 394 890 422 908 b 586 932 506 919 575 929 b 663 940 592 933 644 940 b 689 938 669 940 683 939 b 742 906 697 935 742 919 b 679 871 742 896 728 888 b 574 817 642 857 632 853 b 486 757 560 808 518 788 b 378 628 465 736 390 649 b 351 564 357 593 356 576 b 332 443 336 529 332 449 b 356 343 332 406 332 400 b 411 251 376 296 378 292 b 490 181 442 215 457 199 b 606 131 504 172 586 136 b 654 122 622 126 635 126 b 775 92 686 117 749 101 b 789 76 783 89 789 82 b 743 24 789 71 754 32 b 619 -10 728 13 674 -10 z m 2164 8 b 2036 17 2071 8 2060 8 b 1838 68 1988 33 1922 63 b 1728 83 1783 71 1761 78 b 1632 90 1718 85 1653 90 b 1563 111 1621 90 1585 100 b 1528 144 1546 119 1528 140 b 1554 169 1528 150 1539 164 b 1639 194 1592 181 1633 194 b 1725 196 1642 194 1679 196 b 1957 192 1885 196 1925 192 b 2222 211 2081 192 2090 211 b 2283 169 2272 211 2276 207 b 2311 82 2292 124 2304 133 b 2314 54 2313 74 2314 65 b 2294 18 2314 33 2307 24 b 2164 8 2279 11 2251 8 z m 1201 97 b 1181 117 1192 97 1181 107 b 1208 186 1181 132 1190 156 b 1271 306 1225 213 1265 289 b 1286 371 1278 321 1283 344 b 1293 425 1290 407 1293 413 b 1289 508 1293 440 1289 449 b 1268 613 1289 551 1279 596 b 1253 644 1267 617 1254 639 b 1169 753 1238 681 1210 714 b 1117 860 1136 785 1117 843 b 1165 886 1117 876 1118 886 b 1306 858 1239 886 1236 882 b 1379 822 1328 851 1354 833 b 1475 742 1413 808 1465 758 b 1507 681 1479 732 1483 725 b 1538 586 1519 656 1538 610 b 1522 472 1538 547 1533 550 b 1454 285 1514 410 1500 363 b 1379 192 1433 251 1407 221 b 1249 113 1371 182 1271 122 b 1201 97 1236 107 1204 97 z m 879 369 b 767 403 861 369 829 376 b 683 456 717 422 683 436 b 840 557 683 486 763 529 b 854 560 847 560 853 560 b 982 461 886 560 982 465 b 879 369 982 439 904 369 z m 2140 438 b 2044 451 2100 438 2079 443 b 1947 461 2019 457 1974 460 b 1829 469 1871 465 1863 468 b 1703 485 1811 471 1772 471 b 1683 535 1689 488 1683 496 b 1782 557 1683 561 1713 542 b 1933 571 1813 564 1876 569 b 2082 585 1978 572 2026 578 b 2131 590 2103 588 2117 590 b 2167 588 2144 590 2157 589 b 2217 571 2204 583 2217 582 b 2207 528 2217 563 2208 536 b 2167 443 2204 508 2186 454 b 2140 438 2160 439 2154 438 z m 1632 779 b 1576 792 1613 779 1592 781 b 1544 857 1572 794 1554 822 b 1539 883 1542 868 1539 876 b 1554 901 1539 893 1546 901 b 1592 899 1557 901 1578 899 b 1781 914 1649 899 1735 914 b 1917 928 1800 914 1856 919 b 2049 947 1961 933 2007 942 b 2165 960 2103 954 2118 960 b 2254 951 2192 960 2214 958 b 2314 913 2304 943 2314 936 b 2293 853 2314 893 2303 875 b 2225 786 2282 825 2236 790 b 2167 782 2217 783 2196 782 b 2026 788 2108 782 2071 786 b 1804 794 1967 789 1965 794 b 1756 792 1779 794 1772 794 b 1632 779 1704 783 1663 779 z "}," ":{"ha":806,"x_min":0,"x_max":0,"o":""},"'":{"ha":393,"x_min":0,"x_max":0,"o":"m 169 738 b 138 746 157 738 151 739 b 113 804 118 754 113 767 b 121 960 113 864 121 921 b 119 1057 121 982 119 1007 b 160 1144 119 1129 147 1144 b 218 1111 176 1144 183 1133 b 275 1065 233 1103 268 1079 b 281 1031 281 1057 281 1054 b 243 875 281 953 256 940 b 169 738 231 811 188 738 z "},"~":{"ha":1018,"x_min":0,"x_max":0,"o":"m 701 344 b 565 379 669 344 610 357 b 363 432 485 419 390 432 b 149 388 285 432 156 388 b 113 417 131 388 113 403 b 156 507 113 436 125 469 b 315 594 185 540 261 582 b 421 604 351 603 363 604 b 582 517 494 604 517 586 b 693 472 617 481 650 472 b 786 482 729 472 753 482 b 867 467 813 482 839 478 b 906 432 901 453 906 449 b 813 369 906 401 883 383 b 701 344 779 363 742 344 z "},"−":{"ha":1006,"x_min":0,"x_max":0,"o":"m 181 417 b 138 431 168 417 157 422 b 113 464 125 436 113 451 b 160 510 113 481 131 496 b 253 522 176 517 190 519 b 400 535 300 525 311 532 b 601 544 446 536 532 539 b 699 547 633 547 682 547 b 831 543 796 547 803 544 b 893 521 881 542 893 538 b 781 419 893 489 835 444 b 646 411 763 411 733 411 b 456 408 593 411 538 408 b 235 418 411 408 388 418 b 181 417 210 418 190 417 z "},"^":{"ha":844,"x_min":0,"x_max":0,"o":"m 140 458 b 113 478 124 458 113 467 b 129 511 113 486 117 490 b 239 694 161 567 231 665 b 343 865 256 751 297 767 b 404 946 364 908 388 935 b 440 972 411 951 426 972 b 504 889 471 972 501 917 b 543 810 506 867 531 840 b 582 722 550 789 563 740 b 696 547 603 703 657 590 b 732 493 717 525 732 500 b 707 476 732 485 726 476 b 625 497 692 476 650 486 b 503 625 596 511 575 540 b 424 700 449 688 449 700 b 367 651 407 700 385 678 b 265 543 336 610 308 582 b 140 458 210 493 185 458 z "},"”":{"ha":686,"x_min":0,"x_max":0,"o":"m 169 738 b 138 746 157 738 151 739 b 113 804 118 754 113 767 b 121 960 113 864 121 921 b 119 1057 121 982 119 1007 b 160 1144 119 1129 147 1144 b 218 1111 176 1144 183 1133 b 275 1065 233 1103 268 1079 b 281 1031 281 1057 281 1054 b 243 875 281 953 256 940 b 169 738 231 811 188 738 z m 456 744 b 435 751 451 744 446 746 b 404 817 418 761 404 778 b 408 876 404 829 407 846 b 414 974 410 910 414 943 b 408 1068 414 1017 408 1053 b 425 1128 408 1085 417 1110 b 450 1150 432 1143 439 1150 b 489 1133 463 1150 472 1143 b 557 1088 517 1117 549 1096 b 574 1056 569 1075 574 1069 b 560 965 574 999 567 993 b 536 882 554 936 542 908 b 510 806 531 860 519 826 b 456 744 492 768 475 744 z "},"’":{"ha":393,"x_min":0,"x_max":0,"o":"m 169 738 b 138 746 157 738 151 739 b 113 804 118 754 113 767 b 121 960 113 864 121 921 b 119 1057 121 982 119 1007 b 160 1144 119 1129 147 1144 b 218 1111 176 1144 183 1133 b 275 1065 233 1103 268 1079 b 281 1031 281 1057 281 1054 b 243 875 281 953 256 940 b 169 738 231 811 188 738 z "},"‘":{"ha":393,"x_min":0,"x_max":0,"o":"m 222 738 b 149 875 206 738 161 811 b 113 1031 136 940 113 953 b 118 1065 113 1054 113 1057 b 174 1111 125 1079 158 1103 b 232 1144 208 1132 217 1144 b 272 1057 244 1144 272 1129 b 271 960 272 1007 271 982 b 281 804 271 921 281 864 b 256 746 281 767 274 754 b 222 738 242 739 235 738 z "},"“":{"ha":686,"x_min":0,"x_max":0,"o":"m 517 738 b 443 875 499 738 456 811 b 406 1031 431 940 406 953 b 411 1065 406 1054 406 1057 b 468 1111 418 1079 453 1103 b 526 1144 503 1132 510 1144 b 567 1057 539 1144 567 1129 b 565 960 567 1007 565 982 b 574 804 565 921 574 864 b 549 746 574 767 568 754 b 517 738 535 739 529 738 z m 231 744 b 176 806 211 744 194 768 b 150 882 167 826 156 860 b 126 965 144 908 132 936 b 113 1056 119 993 113 999 b 129 1088 113 1069 117 1075 b 197 1133 138 1096 169 1117 b 236 1150 214 1143 224 1150 b 261 1128 247 1150 254 1143 b 278 1068 269 1110 278 1085 b 272 974 278 1053 272 1017 b 278 876 272 943 276 910 b 282 817 279 846 282 829 b 251 751 282 778 268 761 b 231 744 240 746 235 744 z "},"a":{"ha":1543,"x_min":0,"x_max":0,"o":"m 110 -18 b 64 17 90 -18 64 -7 b 101 117 64 39 89 96 b 163 240 119 149 157 224 b 243 354 168 253 181 267 b 351 550 282 411 322 482 b 414 663 374 603 406 646 b 518 860 439 713 493 804 b 663 943 532 892 551 888 b 732 968 696 960 697 956 b 761 978 746 974 756 978 b 790 954 776 978 790 967 b 767 903 790 940 782 925 b 693 763 751 883 721 831 b 657 689 681 733 669 722 b 592 564 636 639 597 575 b 417 364 560 510 504 461 b 324 231 354 296 332 243 b 210 63 290 175 244 101 b 110 -18 169 15 129 -18 z m 1426 -8 b 1283 53 1410 -8 1303 43 b 1121 261 1224 83 1146 206 b 1057 376 1099 313 1072 342 b 971 532 1028 436 997 479 b 890 686 942 590 908 629 b 868 826 875 732 868 722 b 890 858 868 856 876 858 b 919 844 899 858 911 851 b 992 786 938 825 961 819 b 1094 631 1025 749 1079 663 b 1182 483 1119 578 1149 529 b 1339 258 1194 468 1294 313 b 1442 99 1371 218 1369 172 b 1479 40 1457 82 1479 54 b 1426 -8 1479 25 1444 -8 z m 571 229 b 508 260 519 229 508 229 b 528 342 508 290 517 322 b 594 404 554 385 582 404 b 722 374 606 404 646 383 b 883 350 800 363 807 353 b 1007 333 971 346 994 343 b 1035 281 1017 325 1035 288 b 1008 267 1035 276 1031 268 b 864 250 978 265 969 250 b 675 233 779 250 790 233 b 571 229 604 233 596 229 z "},"b":{"ha":1329,"x_min":0,"x_max":0,"o":"m 235 -4 b 189 40 215 -4 204 14 b 176 106 178 58 176 61 b 181 192 176 139 181 179 b 174 264 181 210 174 232 b 156 422 174 332 156 393 b 138 568 156 483 138 488 b 157 676 138 601 157 649 b 125 757 157 701 146 731 b 113 824 114 771 113 772 b 196 907 113 839 114 840 b 308 963 210 918 289 963 b 360 888 326 963 360 929 b 356 768 360 865 356 808 b 364 665 356 707 364 697 b 356 542 364 617 358 563 b 331 292 343 447 343 372 b 306 163 325 251 314 204 b 283 51 294 104 288 61 b 235 -4 268 11 251 -4 z m 528 -6 b 481 4 517 -6 483 0 b 436 71 468 17 443 58 b 418 132 429 85 418 119 b 544 168 418 154 433 168 b 726 160 635 168 651 160 b 936 197 804 160 918 188 b 1011 289 981 219 1011 260 b 981 385 1011 328 1007 338 b 907 450 961 421 931 442 b 832 464 882 460 858 464 b 715 443 800 464 764 457 b 663 431 692 436 668 431 b 604 483 656 431 625 451 b 581 571 593 501 581 547 b 608 592 581 586 583 592 b 721 582 664 592 692 582 b 886 592 738 582 872 589 b 988 628 951 604 967 608 b 1026 696 1006 644 1026 656 b 982 785 1026 728 1010 761 b 849 817 957 806 942 810 b 729 822 793 821 758 822 b 597 815 688 822 618 815 b 515 842 567 815 531 826 b 482 885 493 865 482 876 b 549 926 482 893 492 901 b 681 951 593 944 611 950 b 921 976 842 954 835 976 b 1024 953 953 976 975 971 b 1156 867 1089 929 1128 903 b 1217 750 1201 808 1217 779 b 1206 678 1217 733 1214 715 b 1153 593 1199 647 1178 622 b 1118 543 1125 561 1118 551 b 1199 433 1118 533 1179 493 b 1215 329 1206 414 1215 356 b 1149 211 1215 278 1175 231 b 803 47 1097 175 1013 124 b 610 3 688 6 653 13 b 528 -6 583 -3 546 -6 z "},"c":{"ha":1125,"x_min":0,"x_max":0,"o":"m 865 -19 b 656 11 804 -19 739 -8 b 406 101 521 43 418 93 b 239 206 340 144 281 172 b 114 354 186 246 142 278 b 85 506 100 390 85 449 b 104 640 85 556 90 606 b 189 754 119 681 149 721 b 351 868 253 807 239 814 b 504 929 454 918 460 910 b 699 953 543 946 654 953 b 928 931 753 953 768 949 b 1040 886 953 928 1040 904 b 915 813 1040 869 919 815 b 846 790 882 796 871 790 b 799 793 835 790 814 793 b 718 788 792 793 756 788 b 572 772 660 788 590 779 b 433 703 536 757 475 719 b 347 629 410 693 375 668 b 294 481 306 571 294 544 b 329 335 294 418 303 363 b 406 268 347 315 390 281 b 542 189 442 242 515 210 b 665 124 558 176 610 150 b 814 76 701 107 760 92 b 951 8 886 57 951 26 b 865 -19 951 -7 928 -19 z "},"d":{"ha":1300,"x_min":0,"x_max":0,"o":"m 183 1 b 154 19 171 1 154 6 b 161 171 154 94 161 65 b 168 375 161 264 168 226 b 160 532 168 483 164 483 b 131 692 156 600 151 619 b 121 778 121 728 129 750 b 113 861 118 786 113 831 b 119 936 113 889 115 915 b 156 967 126 963 131 967 b 267 922 171 967 229 943 b 344 863 294 906 338 871 b 360 794 354 853 360 844 b 356 751 360 785 356 760 b 358 676 356 740 358 738 b 344 561 358 593 344 650 b 349 446 344 522 349 469 b 344 408 349 428 344 415 b 347 372 344 397 347 381 b 340 329 347 363 346 354 b 324 176 329 282 324 243 b 318 97 324 117 322 108 b 282 40 306 57 292 46 b 183 1 254 21 217 1 z m 508 6 b 463 35 492 6 463 13 b 619 144 463 53 518 83 b 800 256 722 206 764 221 b 875 326 818 274 864 308 b 949 403 885 342 919 363 b 1000 486 982 450 1000 467 b 993 540 1000 493 997 511 b 981 606 986 582 986 592 b 840 738 968 633 892 717 b 713 764 806 751 758 754 b 497 803 599 788 514 774 b 489 831 494 807 489 819 b 528 936 489 860 518 882 b 601 964 531 953 538 957 b 675 968 628 967 647 968 b 804 938 708 968 761 950 b 960 888 824 932 953 889 b 1043 842 965 886 1006 865 b 1108 793 1081 819 1092 808 b 1215 585 1196 717 1215 667 b 1175 444 1215 528 1193 476 b 1108 375 1167 429 1136 401 b 986 260 1063 332 1010 283 b 750 93 904 178 800 115 b 619 36 656 51 644 39 b 508 6 593 32 564 6 z "},"e":{"ha":1374,"x_min":0,"x_max":0,"o":"m 188 -12 b 164 33 178 -12 167 13 b 157 189 160 64 157 111 b 119 496 157 263 119 419 b 122 613 119 525 122 569 b 118 713 122 664 118 675 b 119 814 118 733 119 781 b 113 904 119 846 113 879 b 157 956 113 951 135 956 b 265 903 175 956 181 953 b 332 800 293 886 332 839 b 322 701 332 753 328 715 b 296 506 308 664 296 567 b 293 361 296 461 293 389 b 301 253 293 289 301 275 b 293 160 301 225 297 175 b 254 82 285 135 257 99 b 229 15 247 56 243 28 b 188 -12 215 1 194 -12 z m 590 35 b 422 75 564 35 422 51 b 496 117 422 94 450 97 b 647 143 538 135 551 139 b 843 153 688 144 767 153 b 1001 167 931 153 974 161 b 1138 185 1040 175 1118 185 b 1218 118 1172 185 1175 172 b 1261 33 1246 85 1261 56 b 1106 6 1261 18 1232 6 b 879 42 1051 6 957 42 b 819 39 863 42 842 39 b 731 42 804 39 761 42 b 590 35 661 42 603 35 z m 1068 389 b 806 415 1006 389 949 408 b 531 451 743 418 638 431 b 440 488 454 467 440 471 b 489 524 440 514 458 524 b 706 546 604 524 643 546 b 919 563 892 546 851 563 b 979 558 946 563 944 558 b 1054 497 1018 558 1018 549 b 1106 404 1068 475 1106 411 b 1068 389 1106 392 1088 389 z m 535 760 b 497 765 524 760 506 760 b 438 850 483 775 438 833 b 464 872 438 869 443 872 b 689 911 510 872 538 888 b 840 929 731 918 761 914 b 1044 961 861 933 956 947 b 1157 969 1079 967 1111 969 b 1247 947 1226 969 1247 968 b 1146 786 1247 919 1183 799 b 1046 776 1131 781 1093 776 b 738 788 897 776 893 788 b 535 760 665 788 615 760 z "},"f":{"ha":1272,"x_min":0,"x_max":0,"o":"m 188 0 b 149 108 150 0 149 47 b 150 257 149 213 150 238 b 138 401 150 332 138 364 b 122 564 138 435 124 531 b 113 672 119 636 113 642 b 117 840 113 699 117 775 b 115 906 117 865 115 890 b 131 938 115 919 121 932 b 217 975 160 954 200 975 b 321 885 247 975 315 894 b 365 782 353 839 365 818 b 331 625 365 743 361 756 b 297 443 306 524 297 465 b 311 321 297 410 311 335 b 301 253 311 301 307 289 b 225 65 296 222 243 135 b 188 0 211 15 200 0 z m 549 443 b 451 461 458 443 451 456 b 514 535 451 468 496 524 b 569 546 519 539 529 540 b 731 572 665 558 692 565 b 814 589 771 579 783 585 b 975 611 857 594 949 611 b 1050 558 994 611 1043 583 b 1074 515 1054 547 1065 531 b 1096 442 1093 483 1096 465 b 1065 411 1096 413 1092 411 b 799 444 996 411 933 433 b 675 450 750 449 711 450 b 549 443 610 450 575 443 z m 867 779 b 753 788 828 779 790 786 b 568 800 658 792 581 796 b 493 886 554 806 493 876 b 713 929 493 907 565 900 b 914 953 775 942 853 938 b 1072 979 996 972 1044 979 b 1138 954 1090 979 1113 971 b 1189 889 1156 942 1156 947 b 1215 835 1206 857 1215 843 b 1058 793 1215 811 1114 793 b 867 779 999 793 1018 779 z "},"g":{"ha":1333,"x_min":0,"x_max":0,"o":"m 776 4 b 719 7 760 4 740 7 b 632 1 682 7 661 1 b 439 53 565 1 503 25 b 310 118 410 65 414 61 b 103 336 185 186 133 240 b 92 494 97 356 92 461 b 118 607 92 565 107 565 b 165 690 124 631 142 663 b 235 767 190 719 199 733 b 518 928 336 864 435 904 b 824 971 589 947 706 971 b 944 960 861 971 904 963 b 1083 908 1038 954 1083 919 b 990 854 1083 889 1010 858 b 874 844 978 851 888 844 b 794 836 850 844 829 836 b 625 794 747 836 672 817 b 388 660 529 749 429 706 b 317 468 322 589 317 518 b 328 321 317 438 324 336 b 367 260 332 308 351 276 b 635 133 443 176 554 133 b 735 156 678 133 675 139 b 864 194 819 181 846 194 b 908 157 886 194 894 176 b 938 71 935 115 938 86 b 914 33 938 63 935 44 b 776 4 883 15 819 4 z m 1111 11 b 1082 51 1093 11 1082 29 b 1085 72 1082 57 1083 64 b 1097 197 1088 93 1097 132 b 1054 307 1097 274 1079 290 b 844 386 1017 332 879 372 b 800 411 825 393 811 403 b 779 450 782 425 779 433 b 793 479 779 467 779 468 b 856 514 832 510 846 514 b 983 517 863 514 925 517 b 1115 511 1051 517 1081 513 b 1172 504 1153 510 1160 508 b 1235 418 1210 489 1235 450 b 1222 268 1235 369 1231 358 b 1203 143 1219 219 1208 178 b 1172 68 1197 100 1188 89 b 1111 11 1143 32 1126 11 z "},"h":{"ha":1383,"x_min":0,"x_max":0,"o":"m 228 -8 b 200 4 218 -8 204 -3 b 178 74 190 25 181 64 b 156 150 174 90 167 124 b 139 399 143 174 150 304 b 126 526 133 440 133 482 b 119 703 122 549 119 633 b 113 908 119 801 113 826 b 121 972 113 964 113 967 b 168 982 131 979 146 982 b 289 953 200 982 231 969 b 343 906 313 946 336 926 b 353 782 346 899 353 801 b 357 688 353 744 357 694 b 343 611 357 676 349 629 b 326 456 329 556 331 488 b 322 403 324 440 322 428 b 325 294 322 381 325 328 b 306 171 325 200 308 238 b 286 65 303 126 292 97 b 251 -3 281 22 274 6 b 228 -8 243 -6 235 -8 z m 1103 0 b 1079 83 1082 0 1079 31 b 1069 242 1079 107 1072 194 b 1044 433 1067 324 1067 322 b 1031 658 1032 501 1031 532 b 1025 857 1031 831 1025 790 b 1028 907 1025 878 1025 896 b 1135 958 1029 914 1072 946 b 1206 976 1157 963 1192 976 b 1244 954 1221 976 1242 960 b 1258 863 1250 946 1258 908 b 1268 776 1258 808 1263 800 b 1271 688 1269 764 1271 719 b 1254 608 1271 658 1268 640 b 1233 439 1233 565 1233 496 b 1231 335 1233 369 1233 343 b 1224 292 1228 322 1226 317 b 1185 150 1221 261 1193 186 b 1122 7 1168 67 1160 33 b 1103 0 1115 1 1108 0 z m 549 399 b 457 406 482 399 472 400 b 438 488 446 410 438 418 b 463 576 438 521 456 574 b 543 582 469 581 508 582 b 660 561 597 582 607 579 b 819 524 719 540 783 526 b 943 482 861 519 910 504 b 968 447 968 465 968 464 b 860 411 968 421 951 411 b 699 404 785 411 808 404 b 549 399 600 404 607 399 z "},"i":{"ha":479,"x_min":0,"x_max":0,"o":"m 193 -8 b 158 117 171 -8 158 0 b 147 286 158 190 156 222 b 143 449 143 326 143 364 b 129 629 143 524 129 571 b 113 796 129 767 113 731 b 125 874 113 831 115 856 b 231 951 138 899 190 933 b 282 969 263 965 274 969 b 322 946 294 969 306 958 b 356 914 336 935 349 922 b 367 792 363 906 367 840 b 353 600 367 682 353 686 b 333 422 353 531 333 435 b 313 328 333 397 315 351 b 281 157 310 306 281 225 b 243 32 281 111 264 60 b 193 -8 224 4 214 -8 z "},"j":{"ha":1050,"x_min":0,"x_max":0,"o":"m 231 -214 b 181 -183 207 -214 181 -203 b 272 -103 181 -169 203 -147 b 372 -24 319 -72 338 -50 b 482 89 428 17 426 33 b 583 263 554 160 575 228 b 618 390 594 307 610 339 b 649 504 624 418 646 494 b 667 613 653 517 667 603 b 681 651 667 625 671 640 b 750 696 700 678 710 675 b 835 707 771 707 806 707 b 897 696 865 707 890 704 b 908 644 903 692 908 661 b 882 536 908 614 882 564 b 863 457 882 524 872 482 b 817 339 843 410 826 351 b 756 218 810 331 808 317 b 675 92 724 158 692 114 b 521 -81 613 4 571 -40 b 381 -172 468 -124 413 -156 b 299 -201 338 -194 328 -192 b 231 -214 286 -206 242 -214 z m 340 793 b 142 825 242 793 190 797 b 113 851 117 839 113 842 b 238 950 113 857 203 929 b 325 976 276 972 288 976 b 465 953 364 976 383 964 b 663 918 574 938 597 918 b 836 925 697 918 810 925 b 926 883 886 925 911 904 b 938 861 932 874 938 868 b 925 844 938 856 932 850 b 850 818 894 821 857 822 b 767 804 842 813 774 807 b 611 786 754 800 682 786 b 340 793 524 786 564 793 z "},"k":{"ha":1317,"x_min":0,"x_max":0,"o":"m 1200 -36 b 958 19 1196 -36 1003 13 b 796 60 917 26 822 54 b 624 171 697 82 699 113 b 488 282 600 189 500 272 b 443 332 469 294 449 318 b 431 407 436 346 431 379 b 449 469 431 422 443 458 b 511 494 458 485 474 492 b 651 554 583 500 593 503 b 758 747 719 613 742 650 b 776 819 765 783 768 803 b 831 874 781 826 819 867 b 1038 969 897 922 1000 969 b 1064 928 1046 969 1064 944 b 1024 788 1064 907 1047 826 b 925 635 1004 756 969 685 b 747 439 858 561 838 521 b 683 365 689 386 683 375 b 819 236 683 336 760 281 b 956 156 874 196 868 192 b 1065 106 1000 138 1053 113 b 1260 8 1151 57 1260 43 b 1250 -19 1260 -3 1257 -10 b 1200 -36 1236 -36 1228 -36 z m 190 0 b 156 100 160 0 157 49 b 151 165 156 139 156 151 b 138 363 139 214 140 257 b 133 490 136 400 133 443 b 119 740 133 525 121 686 b 113 844 118 799 113 808 b 197 938 113 856 193 933 b 306 978 217 951 261 978 b 343 957 324 978 339 967 b 356 878 349 949 356 885 b 336 743 356 858 349 811 b 329 674 331 714 329 696 b 340 532 329 628 340 581 b 307 407 340 493 325 446 b 289 328 293 374 292 381 b 282 258 288 303 283 281 b 249 68 281 200 276 146 b 190 0 235 31 215 0 z "},"l":{"ha":1175,"x_min":0,"x_max":0,"o":"m 882 -1 b 725 22 843 -1 808 6 b 581 49 669 33 614 44 b 456 56 564 51 535 56 b 367 76 375 56 367 58 b 428 154 367 82 410 128 b 481 179 443 179 446 179 b 581 174 518 179 536 174 b 819 185 628 174 649 185 b 981 192 872 185 907 192 b 1047 174 1008 192 1021 192 b 1069 153 1060 165 1069 158 b 1028 81 1069 142 1050 115 b 882 -1 972 0 951 -1 z m 156 1 b 140 56 143 1 140 22 b 150 236 140 114 150 190 b 131 386 150 278 143 335 b 121 626 125 404 124 475 b 113 806 119 761 113 767 b 135 903 113 856 114 869 b 190 950 144 919 169 950 b 282 901 210 950 210 943 b 365 835 329 875 350 858 b 374 772 369 826 374 800 b 368 585 374 758 369 592 b 332 476 364 551 332 536 b 319 281 332 454 319 397 b 322 207 319 249 322 225 b 286 106 322 172 315 171 b 233 29 264 56 260 50 b 156 1 214 14 183 3 z "},"m":{"ha":1726,"x_min":0,"x_max":0,"o":"m 1453 -1 b 1411 42 1442 -1 1414 15 b 1393 107 1410 63 1394 89 b 1372 208 1383 176 1378 182 b 1368 297 1369 224 1372 274 b 1361 374 1363 321 1365 354 b 1356 506 1360 381 1356 447 b 1357 699 1356 554 1357 613 b 1338 825 1357 789 1338 782 b 1406 935 1338 851 1342 853 b 1449 968 1431 967 1431 968 b 1546 893 1471 968 1492 957 b 1614 769 1588 844 1614 803 b 1582 654 1614 742 1592 671 b 1560 569 1569 631 1565 603 b 1550 465 1553 524 1550 497 b 1553 382 1550 443 1553 411 b 1543 253 1553 318 1547 274 b 1539 215 1539 239 1539 228 b 1540 151 1539 204 1540 171 b 1533 65 1540 111 1536 72 b 1453 -1 1525 42 1478 -1 z m 224 10 b 168 86 181 10 206 21 b 147 157 151 114 147 125 b 158 268 147 190 158 226 b 139 478 158 326 139 401 b 125 692 139 618 126 643 b 113 808 122 774 113 776 b 139 896 113 836 121 867 b 218 972 164 936 178 972 b 318 931 225 972 246 965 b 371 811 343 918 371 876 b 365 740 371 785 365 769 b 357 674 365 721 358 694 b 343 488 351 561 343 547 b 331 328 343 413 336 410 b 308 179 319 182 310 189 b 276 57 303 133 293 100 b 224 10 260 14 256 10 z m 867 326 b 776 383 833 326 793 358 b 715 468 756 414 733 438 b 619 569 686 514 660 538 b 508 672 571 608 539 651 b 456 739 490 685 485 694 b 431 792 431 778 431 779 b 449 835 431 804 431 808 b 513 897 468 865 497 897 b 629 867 522 897 606 885 b 664 817 643 856 651 846 b 775 639 675 790 757 660 b 807 592 793 617 797 603 b 851 532 832 565 846 546 b 921 357 889 429 921 383 b 867 326 921 339 886 326 z m 978 396 b 943 435 965 396 956 414 b 931 493 932 456 931 475 b 965 551 931 510 931 511 b 1053 671 1004 597 1032 647 b 1160 810 1081 704 1142 785 b 1211 861 1182 839 1196 861 b 1236 846 1218 861 1222 857 b 1268 783 1264 825 1268 814 b 1253 650 1268 738 1258 657 b 1092 488 1199 590 1147 546 b 978 396 1068 464 986 396 z "},"n":{"ha":1339,"x_min":0,"x_max":0,"o":"m 214 4 b 149 214 185 4 153 188 b 140 349 140 272 140 303 b 135 497 140 358 136 425 b 125 710 133 590 131 693 b 118 796 121 722 119 765 b 113 868 118 838 113 850 b 125 931 113 875 119 904 b 143 971 131 961 135 971 b 226 932 161 971 188 967 b 300 874 254 907 279 888 b 326 781 326 856 326 854 b 315 615 326 675 322 657 b 296 406 306 556 306 507 b 286 294 293 368 294 340 b 275 175 281 267 278 239 b 254 46 274 125 279 97 b 214 4 247 33 231 4 z m 1090 17 b 1068 21 1081 17 1074 18 b 1053 51 1054 28 1053 33 b 1056 193 1053 75 1056 140 b 1042 354 1056 289 1050 317 b 1021 511 1019 440 1025 464 b 1010 639 1018 561 1010 606 b 994 854 1010 740 994 783 b 1018 928 994 900 1014 911 b 1061 961 1019 944 1047 961 b 1144 907 1075 961 1081 953 b 1214 846 1172 888 1197 865 b 1226 800 1226 832 1226 824 b 1222 704 1226 772 1222 769 b 1225 614 1222 676 1225 633 b 1196 510 1225 551 1196 543 b 1190 372 1196 438 1190 440 b 1200 213 1190 296 1200 231 b 1186 143 1200 194 1197 178 b 1132 40 1169 89 1147 51 b 1090 17 1118 29 1104 17 z m 947 199 b 874 281 929 199 901 250 b 743 413 813 347 799 369 b 644 513 686 458 665 492 b 557 603 619 538 596 563 b 443 767 463 703 454 732 b 422 869 438 786 422 836 b 476 938 422 928 446 938 b 568 910 506 938 539 929 b 629 843 600 890 610 874 b 694 744 668 775 674 783 b 729 696 707 721 717 710 b 819 574 769 649 804 597 b 869 499 843 540 847 544 b 900 424 890 460 896 450 b 960 308 904 394 907 394 b 969 250 969 292 969 288 b 947 199 969 201 964 199 z "},"o":{"ha":1590,"x_min":0,"x_max":0,"o":"m 642 -4 b 529 22 615 -4 576 7 b 417 75 492 35 454 54 b 324 124 375 99 343 117 b 244 171 304 131 275 149 b 217 201 226 185 221 190 b 178 258 208 217 190 244 b 99 447 118 322 99 404 b 107 531 99 468 104 494 b 117 590 110 563 117 569 b 142 688 119 626 129 667 b 361 907 193 772 279 863 b 556 953 404 931 449 933 b 650 965 604 961 617 965 b 721 932 667 965 721 944 b 557 849 721 910 628 894 b 464 790 521 825 492 813 b 404 729 426 760 424 750 b 326 615 342 665 342 651 b 307 529 311 579 307 546 b 304 478 307 504 304 492 b 354 336 304 440 329 388 b 388 288 364 318 379 299 b 446 229 404 261 428 243 b 504 190 468 211 492 197 b 632 136 576 151 592 143 b 696 118 642 135 667 126 b 797 78 747 103 797 93 b 746 24 797 72 761 32 b 642 -4 722 11 668 -4 z m 1086 44 b 1053 64 1075 44 1053 51 b 1111 131 1053 79 1085 108 b 1228 269 1156 168 1215 240 b 1257 382 1242 301 1254 347 b 1267 485 1258 396 1267 450 b 1249 594 1267 533 1260 553 b 1168 746 1232 657 1197 710 b 1086 882 1131 794 1086 875 b 1126 906 1086 904 1092 906 b 1271 861 1217 906 1219 888 b 1357 799 1321 836 1317 832 b 1450 681 1399 764 1429 726 b 1492 533 1467 643 1492 560 b 1469 389 1492 521 1481 444 b 1379 204 1453 306 1435 274 b 1292 122 1344 163 1325 149 b 1229 88 1271 106 1263 100 b 1086 44 1129 49 1104 44 z m 854 388 b 743 424 842 388 794 403 b 667 475 685 449 667 460 b 758 554 667 497 706 528 b 838 583 785 567 829 583 b 964 483 854 583 964 493 b 936 439 964 469 963 464 b 854 388 897 401 874 388 z "},"p":{"ha":1243,"x_min":0,"x_max":0,"o":"m 219 1 b 156 36 197 1 163 17 b 150 113 153 49 150 79 b 151 204 150 139 151 158 b 138 471 151 400 138 378 b 131 542 138 483 131 531 b 118 650 126 572 118 582 b 113 896 117 696 113 864 b 169 978 113 949 144 978 b 281 960 188 978 250 967 b 358 926 342 944 354 940 b 363 857 361 919 363 888 b 357 779 363 835 361 808 b 353 657 353 744 353 692 b 340 532 353 590 342 547 b 315 429 336 489 322 483 b 308 338 310 394 308 386 b 310 242 308 317 310 274 b 286 96 310 119 292 160 b 219 1 281 31 253 1 z m 533 338 b 504 365 518 338 507 339 b 479 451 501 389 486 438 b 472 474 474 460 472 468 b 676 519 472 510 588 506 b 751 525 710 525 731 522 b 803 551 761 526 778 538 b 894 646 836 571 886 610 b 907 707 900 665 907 685 b 743 821 907 760 869 778 b 674 838 718 829 706 833 b 572 860 640 842 617 851 b 469 907 518 869 469 892 b 643 964 469 925 549 950 b 778 976 722 976 733 976 b 917 946 849 976 854 974 b 1010 893 964 925 974 910 b 1097 844 1036 881 1068 856 b 1186 694 1167 818 1186 743 b 1146 610 1186 676 1179 656 b 1081 547 1135 594 1110 569 b 864 422 1039 514 972 483 b 738 374 821 399 779 389 b 604 350 690 356 678 364 b 533 338 563 342 547 338 z "},"q":{"ha":1628,"x_min":0,"x_max":0,"o":"m 1454 -67 b 1376 -60 1432 -67 1419 -60 b 1269 -68 1335 -60 1353 -68 b 1210 -65 1244 -68 1221 -67 b 1061 -35 1181 -61 1108 -44 b 986 4 1007 -25 986 -10 b 1024 69 986 15 1001 44 b 1097 106 1042 90 1075 106 b 1186 60 1117 106 1138 71 b 1288 31 1206 56 1246 40 b 1417 -1 1342 18 1393 3 b 1528 -39 1458 -8 1528 -24 b 1454 -67 1528 -51 1492 -67 z m 638 4 b 417 81 594 4 499 32 b 329 128 385 100 346 121 b 215 207 285 146 224 188 b 154 292 197 244 179 263 b 99 450 117 335 99 415 b 107 539 99 483 106 518 b 115 588 108 564 114 568 b 146 703 119 653 131 678 b 244 825 181 760 201 778 b 372 919 283 867 339 903 b 488 947 418 942 467 943 b 638 972 560 961 619 972 b 719 940 661 972 719 954 b 557 856 719 914 636 908 b 417 754 508 822 471 815 b 324 619 349 674 338 661 b 304 489 308 575 304 544 b 332 392 304 467 310 439 b 381 301 349 357 350 342 b 549 172 421 249 443 228 b 692 126 606 142 606 153 b 793 85 746 110 793 100 b 769 51 793 74 779 67 b 638 4 750 19 675 4 z m 1207 111 b 1172 151 1183 111 1172 126 b 1242 275 1172 178 1189 167 b 1279 385 1267 328 1279 358 b 1286 440 1279 400 1286 421 b 1282 522 1286 464 1283 478 b 1247 668 1279 615 1267 617 b 1161 782 1232 704 1217 722 b 1111 890 1126 819 1111 869 b 1175 914 1111 914 1113 914 b 1235 910 1217 914 1221 914 b 1367 851 1326 882 1324 874 b 1506 694 1447 811 1482 751 b 1529 604 1522 654 1529 632 b 1499 418 1529 564 1511 458 b 1446 303 1489 386 1478 349 b 1371 203 1429 279 1396 224 b 1233 119 1358 192 1240 125 b 1207 111 1226 113 1217 111 z m 804 399 b 776 401 794 399 783 400 b 719 479 729 410 733 424 b 710 542 715 499 710 519 b 753 572 710 553 711 556 b 794 586 779 582 786 586 b 886 558 824 586 840 572 b 954 468 954 538 954 533 b 933 425 954 442 954 432 b 842 403 917 419 890 415 b 804 399 832 400 818 399 z "},"r":{"ha":1364,"x_min":0,"x_max":0,"o":"m 1250 -57 b 1121 -28 1211 -57 1174 -39 b 1043 -8 1094 -22 1063 -14 b 807 100 963 15 882 74 b 669 169 768 114 738 129 b 542 263 590 217 583 204 b 521 296 529 279 521 293 b 542 400 521 300 536 336 b 567 457 546 454 551 457 b 608 456 574 457 588 456 b 689 461 635 456 671 457 b 793 524 711 465 775 503 b 842 651 831 565 842 629 b 781 750 842 706 828 725 b 532 821 715 783 631 808 b 474 843 486 826 474 832 b 528 913 474 847 514 900 b 581 954 554 935 565 954 b 646 947 592 954 615 949 b 776 929 676 946 726 935 b 943 867 864 918 885 896 b 1057 797 965 856 1028 819 b 1101 693 1085 776 1101 754 b 1068 589 1101 635 1094 639 b 918 461 1051 556 976 490 b 821 389 854 431 840 403 b 782 322 794 369 782 343 b 881 224 782 301 810 258 b 1017 138 931 199 960 179 b 1194 57 1061 104 1139 63 b 1283 31 1246 51 1268 44 b 1307 -12 1293 22 1307 1 b 1250 -57 1307 -43 1282 -57 z m 188 -18 b 150 11 172 -18 150 -14 b 157 126 150 40 157 118 b 156 143 157 136 156 139 b 158 214 156 147 158 185 b 146 338 158 257 156 292 b 131 474 136 390 133 379 b 121 653 129 507 121 619 b 113 851 121 764 113 775 b 132 931 113 894 122 913 b 181 974 149 958 163 974 b 281 906 199 974 243 932 b 350 819 331 869 350 838 b 343 689 350 765 343 715 b 344 611 343 664 344 646 b 321 525 344 582 343 564 b 311 471 313 510 311 508 b 303 390 311 428 303 407 b 306 222 303 376 303 236 b 308 189 307 211 308 200 b 288 100 308 157 294 128 b 188 -18 268 26 218 -18 z "},"s":{"ha":1157,"x_min":0,"x_max":0,"o":"m 369 -1 b 232 67 335 -1 307 17 b 113 178 175 106 113 139 b 154 221 113 194 124 221 b 288 165 171 221 243 189 b 411 129 331 142 368 129 b 474 133 433 129 461 133 b 556 92 521 133 556 110 b 472 19 556 72 481 24 b 369 -1 436 1 406 -1 z m 643 11 b 607 44 631 11 607 21 b 682 121 607 68 626 90 b 835 306 749 157 835 239 b 629 440 835 368 771 411 b 393 496 503 465 511 472 b 204 575 288 517 221 563 b 124 689 147 617 124 646 b 149 790 124 739 129 769 b 243 858 168 811 197 832 b 389 917 314 899 353 917 b 418 893 406 917 418 908 b 382 828 418 883 411 871 b 338 743 350 779 338 760 b 344 718 338 735 340 728 b 464 625 365 676 399 656 b 622 583 511 603 575 586 b 917 508 708 578 818 551 b 1024 442 974 483 1004 465 b 1065 350 1051 410 1065 382 b 996 183 1065 288 1054 251 b 811 64 956 136 897 106 b 668 14 722 21 693 14 b 643 11 660 14 653 11 z m 838 799 b 793 806 826 799 811 801 b 593 832 743 817 628 831 b 500 868 536 835 500 850 b 546 918 500 883 519 894 b 608 960 581 950 588 956 b 678 972 633 965 660 972 b 756 953 686 972 733 960 b 857 871 790 940 800 922 b 881 838 875 856 881 846 b 838 799 881 819 860 799 z "},"t":{"ha":1150,"x_min":0,"x_max":0,"o":"m 518 -3 b 489 57 494 -3 489 10 b 493 143 489 107 493 125 b 486 218 493 168 486 203 b 474 344 486 236 478 321 b 468 438 471 360 468 401 b 457 564 468 489 461 556 b 442 656 451 578 449 618 b 436 690 440 671 436 686 b 461 717 436 701 449 717 b 614 657 478 717 543 699 b 683 599 671 622 683 619 b 672 513 683 568 681 546 b 665 474 668 499 669 486 b 657 431 663 460 661 443 b 640 308 647 399 640 319 b 647 221 640 292 647 260 b 610 104 647 168 622 121 b 518 -3 582 68 547 -3 z m 189 753 b 142 800 160 753 144 785 b 113 860 139 819 128 835 b 85 919 94 888 85 906 b 147 985 85 969 114 985 b 251 965 171 985 185 985 b 400 943 314 947 331 944 b 588 922 478 942 565 922 b 708 938 643 922 658 938 b 792 922 729 938 736 936 b 960 883 885 899 903 888 b 1079 840 1033 878 1079 860 b 1074 822 1079 836 1078 831 b 978 793 1061 800 1047 793 b 894 797 940 793 925 793 b 729 814 811 808 764 814 b 578 801 710 814 626 801 b 435 775 535 801 474 779 b 189 753 394 769 214 753 z "},"u":{"ha":1349,"x_min":0,"x_max":0,"o":"m 538 -3 b 440 8 475 -3 476 8 b 286 79 403 8 346 31 b 188 243 246 111 222 182 b 122 425 169 275 140 349 b 96 632 110 479 104 546 b 85 806 90 689 85 751 b 103 953 85 881 92 943 b 165 976 110 960 150 976 b 318 929 240 976 265 969 b 351 886 343 910 351 900 b 328 797 351 863 328 828 b 297 656 328 785 301 743 b 286 546 296 619 286 578 b 329 303 286 511 299 365 b 442 161 356 249 376 206 b 575 100 469 143 503 128 b 640 53 636 76 640 64 b 626 6 640 19 635 7 b 538 -3 606 1 586 -3 z m 857 7 b 790 56 829 7 790 32 b 822 92 790 67 801 78 b 946 211 868 121 919 169 b 1013 376 994 288 997 317 b 1040 526 1028 438 1040 494 b 1051 636 1040 551 1047 615 b 1054 776 1054 654 1054 713 b 1064 919 1054 897 1057 908 b 1094 933 1065 924 1089 933 b 1153 907 1104 933 1128 917 b 1251 839 1189 893 1203 878 b 1264 771 1264 829 1264 822 b 1257 657 1264 694 1257 689 b 1246 543 1257 611 1246 600 b 1228 428 1246 515 1240 483 b 1185 289 1217 371 1215 364 b 1089 144 1153 214 1131 183 b 936 36 1047 107 1031 86 b 857 7 903 18 888 7 z "},"v":{"ha":1467,"x_min":0,"x_max":0,"o":"m 821 14 b 799 60 803 14 799 33 b 818 169 799 104 815 154 b 864 293 821 186 843 246 b 950 483 899 374 893 392 b 1033 644 1007 578 1029 622 b 1043 733 1042 692 1040 708 b 1088 826 1049 779 1068 813 b 1253 943 1136 867 1208 903 b 1304 971 1276 964 1289 971 b 1335 954 1317 971 1328 965 b 1382 858 1360 915 1382 878 b 1340 765 1382 838 1346 772 b 1278 674 1322 744 1296 697 b 1221 601 1258 647 1256 642 b 1153 506 1188 561 1183 550 b 1113 421 1147 499 1128 461 b 1074 335 1101 390 1079 349 b 1017 238 1031 243 1033 269 b 956 161 1006 217 969 182 b 903 107 943 143 913 124 b 821 14 850 22 836 14 z m 692 17 b 610 100 676 17 649 49 b 567 156 596 118 582 138 b 490 278 549 179 517 242 b 388 456 439 353 392 444 b 325 553 378 476 353 511 b 238 678 278 622 244 668 b 92 878 165 772 147 774 b 85 896 89 885 85 890 b 113 935 85 904 97 921 b 151 957 135 957 138 957 b 199 943 165 957 175 953 b 303 889 253 922 254 914 b 361 863 328 876 346 867 b 418 825 393 853 403 844 b 483 710 475 753 472 732 b 536 581 494 686 529 599 b 553 524 544 553 549 533 b 574 463 564 506 565 485 b 597 356 578 450 590 404 b 635 218 604 311 613 253 b 676 129 646 200 664 151 b 706 29 690 103 706 61 b 692 17 706 24 697 17 z "},"w":{"ha":1994,"x_min":0,"x_max":0,"o":"m 619 1 b 588 57 610 1 603 19 b 535 175 567 107 553 135 b 422 369 503 244 447 293 b 326 582 388 475 340 547 b 103 907 286 682 168 840 b 85 931 90 919 85 925 b 171 963 85 949 101 954 b 225 968 196 965 211 968 b 449 900 294 968 428 919 b 488 760 469 879 486 799 b 504 636 490 713 504 681 b 561 469 504 599 540 518 b 618 306 599 385 590 351 b 657 161 642 268 657 176 b 654 132 657 147 654 140 b 661 67 654 111 661 75 b 619 1 661 33 639 1 z m 1274 14 b 1249 42 1260 14 1249 26 b 1293 233 1249 79 1285 174 b 1326 315 1297 260 1311 281 b 1403 478 1343 357 1360 369 b 1431 544 1413 504 1422 514 b 1483 682 1450 610 1476 651 b 1521 775 1490 706 1513 743 b 1733 928 1539 842 1663 885 b 1890 992 1765 947 1868 992 b 1910 978 1900 992 1910 985 b 1863 888 1910 949 1889 918 b 1781 768 1819 839 1799 789 b 1743 710 1774 760 1760 739 b 1638 558 1714 654 1690 622 b 1515 408 1554 460 1586 483 b 1424 254 1478 369 1440 292 b 1353 139 1388 171 1365 174 b 1311 67 1339 106 1319 90 b 1274 14 1297 31 1285 14 z m 740 74 b 718 106 724 74 718 81 b 725 221 718 124 721 158 b 778 438 733 365 760 349 b 842 604 786 481 818 546 b 885 654 856 639 868 654 b 929 619 904 654 928 642 b 954 514 936 563 954 535 b 917 388 954 435 936 465 b 833 254 906 339 889 339 b 789 132 813 221 815 196 b 740 74 772 94 769 74 z m 1210 203 b 1190 244 1199 203 1193 213 b 1142 397 1185 292 1167 350 b 1078 494 1124 432 1100 463 b 999 600 1040 551 1001 578 b 971 675 997 614 971 647 b 972 700 971 681 972 689 b 965 751 972 714 965 739 b 1014 804 965 767 976 775 b 1110 882 1085 858 1074 867 b 1153 897 1139 894 1147 897 b 1178 826 1174 897 1167 865 b 1193 694 1186 799 1183 733 b 1214 589 1201 665 1203 635 b 1228 524 1219 564 1228 543 b 1244 372 1228 492 1244 422 b 1232 218 1244 282 1240 226 b 1210 203 1224 207 1215 203 z "},"x":{"ha":1358,"x_min":0,"x_max":0,"o":"m 140 -1 b 85 29 108 -1 85 1 b 150 115 85 46 124 94 b 274 200 168 131 250 185 b 375 308 304 219 358 288 b 469 425 406 347 446 425 b 492 414 476 425 482 422 b 517 368 515 396 517 392 b 469 193 517 343 476 228 b 449 88 465 167 457 168 b 421 50 446 61 440 58 b 281 24 367 28 328 31 b 140 -1 196 11 179 -1 z m 1117 0 b 1019 65 1086 0 1071 18 b 885 181 990 92 949 129 b 801 256 850 210 825 235 b 672 372 751 299 715 328 b 615 425 653 393 631 410 b 471 558 571 471 539 503 b 333 700 392 624 400 638 b 228 844 297 735 263 779 b 167 975 185 926 167 960 b 193 990 167 988 178 990 b 353 951 228 990 293 975 b 501 833 453 911 438 879 b 638 701 532 811 579 767 b 753 531 704 625 719 596 b 811 422 783 475 781 454 b 842 383 818 414 832 396 b 928 292 864 357 878 328 b 1092 136 963 268 1060 172 b 1165 39 1128 96 1165 67 b 1117 0 1165 19 1146 0 z m 821 596 b 797 631 813 596 797 614 b 842 728 797 651 813 682 b 943 844 865 764 899 806 b 1078 974 1017 907 1028 974 b 1243 938 1115 974 1201 960 b 1274 910 1263 928 1274 918 b 1143 807 1274 897 1179 829 b 1000 714 1125 796 1114 778 b 951 685 985 706 961 692 b 821 596 863 622 829 596 z "},"y":{"ha":1319,"x_min":0,"x_max":0,"o":"m 750 -6 b 690 14 719 -6 717 -1 b 592 61 653 36 610 44 b 544 150 569 82 553 136 b 522 254 533 169 522 201 b 546 356 522 294 531 333 b 667 513 565 388 592 390 b 807 690 710 582 731 599 b 938 869 865 758 903 807 b 1044 969 990 968 997 969 b 1215 899 1057 969 1186 915 b 1235 865 1231 889 1235 883 b 1049 696 1235 819 1115 735 b 828 519 946 636 943 589 b 750 451 786 494 779 489 b 701 357 707 400 704 394 b 699 311 700 346 699 329 b 717 219 699 285 708 238 b 781 89 740 168 778 108 b 800 28 786 63 800 42 b 750 -6 800 13 776 -6 z m 560 471 b 497 507 540 471 519 483 b 383 592 468 536 432 563 b 219 739 297 644 251 682 b 111 875 203 768 156 819 b 85 940 90 899 85 910 b 129 978 85 956 97 978 b 274 967 183 978 228 976 b 361 940 321 957 353 953 b 400 844 378 918 376 879 b 546 651 490 711 533 678 b 568 589 554 633 564 615 b 585 504 574 564 585 524 b 560 471 585 485 576 471 z "},"z":{"ha":1376,"x_min":0,"x_max":0,"o":"m 493 4 b 418 39 450 4 418 21 b 472 97 418 56 436 58 b 593 172 504 131 535 151 b 676 194 622 183 653 194 b 814 169 713 194 775 175 b 971 133 853 164 940 138 b 1026 129 988 131 1007 129 b 1090 133 1049 129 1071 133 b 1179 125 1107 133 1136 131 b 1264 92 1235 118 1264 118 b 1157 33 1264 72 1229 71 b 1063 3 1108 7 1093 3 b 996 6 1050 3 1021 4 b 790 21 915 11 911 21 b 581 10 681 21 629 10 b 493 4 551 10 543 4 z m 222 68 b 146 81 194 68 172 76 b 113 103 118 85 113 89 b 356 294 113 135 168 160 b 510 413 432 349 479 386 b 756 617 611 499 721 585 b 925 743 797 654 875 714 b 963 775 938 750 947 769 b 1067 783 972 779 1015 783 b 1193 776 1111 783 1171 781 b 1221 736 1199 775 1221 757 b 1142 636 1221 715 1182 669 b 1000 544 1074 582 1058 578 b 956 521 988 538 982 540 b 643 363 924 499 683 382 b 489 264 599 342 540 307 b 381 186 408 197 401 210 b 279 100 368 172 317 129 b 222 68 247 76 243 68 z m 381 789 b 236 836 343 789 281 815 b 142 913 183 861 142 890 b 296 947 142 943 193 921 b 458 969 339 958 392 969 b 654 963 529 969 533 963 b 974 940 790 963 931 946 b 1035 921 1010 936 1026 932 b 1047 889 1042 914 1047 897 b 938 854 1047 874 1001 874 b 860 836 914 847 888 840 b 707 817 815 829 772 817 b 597 819 653 817 619 819 b 381 789 515 819 443 789 z "},"A":{"ha":1543,"x_min":0,"x_max":0,"o":"m 110 -18 b 64 17 90 -18 64 -7 b 101 117 64 39 89 96 b 163 240 119 149 157 224 b 243 354 168 253 181 267 b 351 550 282 411 322 482 b 414 663 374 603 406 646 b 518 860 439 713 493 804 b 663 943 532 892 551 888 b 732 968 696 960 697 956 b 761 978 746 974 756 978 b 790 954 776 978 790 967 b 767 903 790 940 782 925 b 693 763 751 883 721 831 b 657 689 681 733 669 722 b 592 564 636 639 597 575 b 417 364 560 510 504 461 b 324 231 354 296 332 243 b 210 63 290 175 244 101 b 110 -18 169 15 129 -18 z m 1426 -8 b 1283 53 1410 -8 1303 43 b 1121 261 1224 83 1146 206 b 1057 376 1099 313 1072 342 b 971 532 1028 436 997 479 b 890 686 942 590 908 629 b 868 826 875 732 868 722 b 890 858 868 856 876 858 b 919 844 899 858 911 851 b 992 786 938 825 961 819 b 1094 631 1025 749 1079 663 b 1182 483 1119 578 1149 529 b 1339 258 1194 468 1294 313 b 1442 99 1371 218 1369 172 b 1479 40 1457 82 1479 54 b 1426 -8 1479 25 1444 -8 z m 571 229 b 508 260 519 229 508 229 b 528 342 508 290 517 322 b 594 404 554 385 582 404 b 722 374 606 404 646 383 b 883 350 800 363 807 353 b 1007 333 971 346 994 343 b 1035 281 1017 325 1035 288 b 1008 267 1035 276 1031 268 b 864 250 978 265 969 250 b 675 233 779 250 790 233 b 571 229 604 233 596 229 z "}}}
